<svg width="49" height="37" viewBox="0 0 49 37" fill="none" xmlns="http://www.w3.org/2000/svg">
<path fill-rule="evenodd" clip-rule="evenodd" d="M34.6461 8.3404C34.9332 8.05364 35.3224 7.89258 35.7282 7.89258C36.134 7.89258 36.5232 8.05364 36.8103 8.3404L36.8144 8.34448L36.8205 8.34856L36.8348 8.36286L36.8756 8.40369L37.0022 8.54456C37.1043 8.66094 37.2472 8.82631 37.4126 9.03661C39.299 11.4886 40.3219 14.4955 40.322 17.5891C40.3219 20.6828 39.299 23.6897 37.4126 26.1417C37.2416 26.3599 37.0618 26.571 36.8736 26.7746L36.8327 26.8154L36.8205 26.8297L36.8144 26.8338L36.8123 26.8359L35.7711 25.7987L36.8123 26.8399C36.5251 27.1272 36.1355 27.2886 35.7292 27.2886C35.323 27.2886 34.9334 27.1272 34.6461 26.8399C34.3589 26.5527 34.1975 26.1631 34.1975 25.7568C34.1975 25.3506 34.3589 24.961 34.6461 24.6737L34.6441 24.6758L34.64 24.6778L34.6502 24.6676L34.7176 24.5941C34.7829 24.5233 34.8775 24.4097 35.0014 24.2531C36.293 22.567 37.067 20.542 37.2294 18.4242C37.3918 16.3064 36.9355 14.187 35.916 12.3237C35.6499 11.8333 35.344 11.3655 35.0014 10.9251C34.8905 10.7819 34.7733 10.6436 34.6502 10.5107L34.64 10.5005C34.3553 10.2127 34.1961 9.82396 34.1973 9.41917C34.1984 9.01439 34.3598 8.62653 34.6461 8.3404Z" fill="#F5F5F5"/>
<path fill-rule="evenodd" clip-rule="evenodd" d="M40.7714 2.21579C41.0585 1.92903 41.4477 1.76797 41.8535 1.76797C42.2593 1.76797 42.6485 1.92903 42.9356 2.21579L42.9417 2.21987L42.9478 2.22599L42.9662 2.24641C43.0547 2.3337 43.1392 2.42499 43.2194 2.51999C43.3807 2.7017 43.6032 2.96508 43.8646 3.30604C44.3893 3.98591 45.0773 4.98633 45.7613 6.28687C47.1292 8.88795 48.4889 12.7038 48.4889 17.5895C48.4889 22.4752 47.1292 26.2911 45.7613 28.8942C45.2164 29.9408 44.5817 30.9381 43.8646 31.8751C43.5824 32.2419 43.2826 32.5949 42.9662 32.9327L42.9458 32.9531L42.9417 32.9592L42.9376 32.9612L41.8535 31.8812L42.9356 32.9633C42.6469 33.2424 42.2602 33.3969 41.8587 33.3936C41.4572 33.3903 41.0731 33.2294 40.7891 32.9457C40.505 32.6619 40.3438 32.2779 40.3401 31.8764C40.3364 31.4749 40.4906 31.088 40.7694 30.7991L40.798 30.7705L40.9266 30.6276C41.0477 30.4942 41.2179 30.2873 41.437 30.007C41.8699 29.4435 42.4579 28.5921 43.0499 27.4671C44.2341 25.2213 45.4264 21.8913 45.4264 17.5895C45.4264 13.2877 44.2341 9.95779 43.0499 7.71195C42.5851 6.82125 42.0455 5.97159 41.437 5.17212C41.2344 4.90904 41.0212 4.6543 40.798 4.40854L40.7694 4.37995C40.4826 4.09284 40.3216 3.70365 40.3216 3.29787C40.3216 2.89209 40.4847 2.5029 40.7714 2.21579ZM24.5749 1.04387C26.9493 -0.52209 30.1139 1.1827 30.1139 4.02674V33.194C30.1139 36.0401 26.9493 37.7428 24.5749 36.1769L12.3249 28.1021C12.242 28.0468 12.1448 28.017 12.0452 28.0163H6.12435C4.63527 28.0163 3.20718 27.4248 2.15424 26.3719C1.1013 25.3189 0.509766 23.8908 0.509766 22.4017V14.819C0.509766 14.0817 0.654991 13.3516 0.93715 12.6704C1.21931 11.9892 1.63288 11.3702 2.15424 10.8489C2.6756 10.3275 3.29455 9.91395 3.97574 9.63179C4.65693 9.34964 5.38703 9.20441 6.12435 9.20441H12.0452C12.1453 9.20474 12.2433 9.17563 12.3269 9.1207L24.5749 1.04387Z" fill="#F5F5F5"/>
</svg>
