<svg width="27" height="30" viewBox="0 0 27 30" fill="none" xmlns="http://www.w3.org/2000/svg">
<path d="M11.935 21.7752L10.6088 23.1002L3.38502 15.8789C3.26857 15.7632 3.17616 15.6256 3.1131 15.4741C3.05004 15.3225 3.01758 15.16 3.01758 14.9958C3.01758 14.8317 3.05004 14.6691 3.1131 14.5176C3.17616 14.366 3.26857 14.2284 3.38502 14.1127L10.6088 6.8877L11.9338 8.2127L5.15377 14.9939L11.935 21.7752Z" fill="black"/>
<path d="M23.935 21.7752L22.6088 23.1002L15.385 15.8789C15.2686 15.7632 15.1762 15.6256 15.1131 15.4741C15.05 15.3225 15.0176 15.16 15.0176 14.9958C15.0176 14.8317 15.05 14.6691 15.1131 14.5176C15.1762 14.366 15.2686 14.2284 15.385 14.1127L22.6088 6.8877L23.9338 8.2127L17.1538 14.9939L23.935 21.7752Z" fill="black"/>
</svg>
