<svg width="44" height="45" viewBox="0 0 44 45" fill="none" xmlns="http://www.w3.org/2000/svg">
<path d="M25.2209 14.1182C25.1252 14.0079 25.0372 13.8899 24.957 13.7686C25.546 14.0135 26.0371 14.4455 26.3633 14.9945C25.9558 14.813 25.5661 14.5224 25.2209 14.1182Z" fill="#0D002C"/>
<path d="M25.498 17.3439C25.184 18.0231 24.506 18.4451 23.7755 18.4451C23.6764 18.4451 23.5729 18.4407 23.4738 18.4229L20.1635 17.8828C19.2282 17.7292 18.2829 18.0844 17.6772 18.8148L17.1884 19.4049C16.3633 20.407 15.0127 20.8112 13.7746 20.4159L9.66484 19.1154C9.21167 18.9762 8.73623 18.9306 8.26524 18.9929L8.2207 18.9985L8.22182 10.9583L8.4111 10.9539C9.49226 10.9271 10.5556 10.6978 11.5466 10.2713L21.248 6.10369C22.2123 5.69061 23.3068 5.70397 24.2621 6.14489L25.3633 6.65485C25.5392 6.73613 25.5726 6.97329 25.4268 7.10134L19.0178 12.7098C18.8586 12.8489 18.9142 13.1073 19.1169 13.1685L24.3278 14.7385C25.4268 15.0703 25.979 16.3017 25.498 17.3439Z" fill="#0D002C"/>
<mask id="mask0_2193_122369" style="mask-type:luminance" maskUnits="userSpaceOnUse" x="0" y="8" width="8" height="14">
<path d="M0 8.86133H7.40441V21.1181H0V8.86133Z" fill="white"/>
</mask>
<g mask="url(#mask0_2193_122369)">
<path d="M6.05188 8.88002L1.35091 8.87891C0.6461 8.87891 0.0715628 9.44899 0.0715628 10.1549L0.0693359 19.8174C0.0693359 20.5233 0.64276 21.0934 1.34757 21.0945L6.04854 21.0956C6.75335 21.0956 7.32232 20.5255 7.32343 19.8196L7.32566 10.1571C7.32566 9.45122 6.75669 8.88002 6.05188 8.88002ZM3.69805 19.715C3.23152 19.715 2.85518 19.3364 2.85518 18.8743C2.85518 18.4067 3.23263 18.0292 3.69917 18.0303C4.16125 18.0303 4.53759 18.4078 4.53759 18.8754C4.53759 19.3375 4.16013 19.715 3.69805 19.715Z" fill="#0D002C"/>
</g>
<mask id="mask1_2193_122369" style="mask-type:luminance" maskUnits="userSpaceOnUse" x="18" y="0" width="21" height="24">
<path d="M18.8057 0.924805H38.1885V23.1135H18.8057V0.924805Z" fill="white"/>
</mask>
<g mask="url(#mask1_2193_122369)">
<path d="M37.9511 8.39468C35.987 6.10655 34.0273 3.82065 32.0654 1.52695C31.7269 1.13725 31.011 0.939053 30.5033 1.14281C28.2975 2.028 26.6641 3.57569 25.2088 5.33605L26.4748 5.92172C27.5159 4.72031 28.6561 3.64138 30.0389 2.83859C30.412 3.26727 31.1067 3.3775 31.6423 3.13031C32.9762 4.6858 34.309 6.24573 35.6374 7.79899C35.104 8.04061 35.0038 8.63073 35.3712 9.05718C30.4532 11.9087 28.5503 18.2876 23.6322 21.1392C23.2614 20.706 22.5655 20.6003 22.0322 20.8419C21.5322 20.2562 21.0256 19.6739 20.5268 19.0882L19.9812 18.9991C19.587 18.9379 19.1918 19.027 18.8711 19.2485C19.7819 20.3197 20.696 21.3797 21.6091 22.4452C21.9453 22.8416 22.6624 23.0343 23.1701 22.8305C29.6036 20.2618 31.1747 12.0123 37.6059 9.43687C38.1114 9.23088 38.2874 8.79107 37.9511 8.39468Z" fill="#0D002C"/>
</g>
<path d="M25.9464 11.8151C26.0143 11.8952 26.0889 11.9353 26.1691 11.9287C26.2482 11.9264 26.3617 11.8696 26.5098 11.7639C26.3294 11.5545 26.1491 11.3441 25.9698 11.1348C25.8896 11.2662 25.8473 11.3897 25.844 11.5111C25.8406 11.6336 25.8751 11.7327 25.9464 11.8151Z" fill="#0D002C"/>
<path d="M27.1338 12.021C27.3208 12.2403 27.5079 12.4586 27.6961 12.6768C27.7807 12.5398 27.8219 12.4062 27.8308 12.2782C27.8375 12.1457 27.8052 12.0388 27.7317 11.953C27.6604 11.8707 27.5792 11.8283 27.4934 11.8384C27.4077 11.8484 27.2886 11.9085 27.1338 12.021Z" fill="#0D002C"/>
<path d="M28.4538 9.85354C27.3203 8.52742 25.659 8.38936 24.7805 9.59188C23.9844 10.6886 24.0634 12.4612 24.9564 13.7673C25.0366 13.8887 25.1234 14.0067 25.2203 14.1169C25.5655 14.5222 25.9552 14.8117 26.3627 14.9932C27.2902 15.4052 28.2801 15.2181 28.8913 14.383C29.7687 13.1861 29.5861 11.1797 28.4538 9.85354ZM28.0707 13.5836C27.9906 13.4923 27.9137 13.4088 27.8402 13.3186C27.5396 13.6448 27.1889 13.8363 26.7758 13.8887C26.7569 13.6882 26.7402 13.4934 26.7212 13.293C27.0352 13.2451 27.2947 13.1215 27.4984 12.9211C27.2991 12.6873 27.0931 12.4512 26.896 12.2118C26.6177 12.449 26.3794 12.5815 26.1868 12.6093C25.9953 12.6383 25.8049 12.5525 25.6256 12.3443C25.4475 12.1305 25.3562 11.8845 25.3595 11.5894C25.3651 11.2943 25.4541 11.0149 25.6356 10.7465C25.5822 10.6831 25.5332 10.6218 25.4775 10.5639C25.5399 10.4793 25.6022 10.3947 25.6657 10.31C25.7191 10.3724 25.7737 10.437 25.8283 10.4993C26.0543 10.2243 26.336 10.0428 26.6678 9.94595C26.7001 10.1464 26.7335 10.3401 26.7658 10.5405C26.5386 10.5984 26.3371 10.7142 26.1667 10.8902C26.3616 11.1229 26.5576 11.3489 26.7535 11.576C26.7558 11.5705 26.7558 11.5705 26.758 11.566C27.0419 11.3311 27.2869 11.1952 27.4839 11.1685C27.6844 11.1362 27.8781 11.2298 28.0618 11.4402C28.2455 11.6562 28.3302 11.9056 28.3235 12.2062C28.319 12.5013 28.2199 12.7897 28.034 13.0681C28.1086 13.1571 28.1832 13.2462 28.2544 13.3286C28.1899 13.4121 28.1331 13.499 28.0707 13.5836Z" fill="#0D002C"/>
<path d="M29.2726 7.70817C28.9686 8.02773 28.9642 8.57109 29.2503 8.90512C29.5365 9.23916 30.0041 9.23693 30.3081 8.91626C30.6132 8.59558 30.6399 8.08006 30.3537 7.74491C30.0676 7.41199 29.5766 7.38638 29.2726 7.70817Z" fill="#0D002C"/>
<path d="M40.7205 36.477L31.7038 36.7153H31.6504L30.1795 34.8414C29.4669 33.9328 28.3857 33.4017 27.2289 33.4017H21.1205C19.6831 33.4017 18.2879 32.8494 17.2502 31.8429L12.321 27.0785C11.9858 26.7645 11.8232 26.3313 11.8232 25.8982C11.8232 25.5619 11.9201 25.2268 12.1261 24.9451C12.6672 24.188 13.7161 24.0354 14.4499 24.5888L19.2288 28.2376C19.6396 28.5404 20.1362 28.7141 20.6551 28.7141H27.4337C27.8769 28.7141 28.2443 28.3467 28.2443 27.9024C28.2443 27.4581 27.8769 27.0896 27.4337 27.0896H23.4665C22.6237 27.0896 21.9311 26.4082 21.9311 25.5519C21.9311 24.7079 22.6225 24.0254 23.4665 24.0254H31.6281C34.3527 24.0254 36.7956 25.7256 37.7465 28.291L40.7205 36.477Z" fill="#0D002C"/>
<mask id="mask2_2193_122369" style="mask-type:luminance" maskUnits="userSpaceOnUse" x="30" y="38" width="14" height="7">
<path d="M30.7783 38.5059H44.0005V44.9249H30.7783V38.5059Z" fill="white"/>
</mask>
<g mask="url(#mask2_2193_122369)">
<path d="M43.8125 39.4127C43.8013 38.9361 43.4016 38.5676 42.9262 38.5898L31.7706 38.8815C31.2951 38.8927 30.9277 39.2824 30.9377 39.7589L31.0457 44.0902C31.0568 44.5668 31.4465 44.9354 31.922 44.9242L43.0887 44.6214C43.5642 44.6102 43.9427 44.2205 43.9316 43.744L43.8125 39.4127ZM42.2024 42.5203C41.7804 42.5203 41.4341 42.174 41.4341 41.752C41.4341 41.3289 41.7804 40.9826 42.2024 40.9826C42.6233 40.9826 42.9696 41.3289 42.9696 41.752C42.9696 42.174 42.6233 42.5203 42.2024 42.5203Z" fill="#0D002C"/>
</g>
</svg>
