<svg width="504" height="206" viewBox="0 0 504 206" fill="none" xmlns="http://www.w3.org/2000/svg">
<mask id="mask0_2193_116778" style="mask-type:luminance" maskUnits="userSpaceOnUse" x="366" y="139" width="69" height="67">
<path d="M366.22 139.668H434.824V206H366.22V139.668Z" fill="white"/>
</mask>
<g mask="url(#mask0_2193_116778)">
<path d="M431.16 145.42C422.656 146.206 414.152 147.778 405.849 144.833C400.113 142.872 394.578 139.538 389.233 144.245C388.642 144.643 388.25 145.42 388.05 146.405C378.954 149.738 371.434 157.201 368.666 167.401C364.314 183.69 374.01 200.567 390.617 204.885C407.033 209.204 424.04 199.591 428.392 183.103C430.568 174.863 429.184 166.226 425.032 159.36C427.4 157.788 429.384 155.828 430.768 154.057C432.152 152.485 434.128 149.937 434.519 147.579C435.12 144.833 434.519 145.23 431.16 145.42ZM424.44 182.118C420.68 196.248 405.849 204.687 391.61 200.964C377.37 197.233 368.866 182.516 372.627 168.386C374.794 160.146 380.93 153.668 388.25 150.723C388.642 151.898 389.434 153.271 390.417 154.454C394.177 158.963 401.297 163.48 410.392 163.679C414.353 163.869 418.113 162.893 421.272 161.519C425.232 167.401 426.416 174.863 424.44 182.118Z" fill="#F7D671"/>
</g>
<path d="M404.466 186.437C398.73 186.049 393.195 184.675 388.051 182.119C386.075 181.143 383.499 182.516 383.699 184.866C383.699 188.795 387.259 193.312 393.386 195.074C399.714 196.646 404.858 194.686 407.034 191.153C408.026 189.184 406.642 186.636 404.466 186.437Z" fill="#F7D671"/>
<path d="M413.282 170.571C413.813 170.709 414.291 170.951 414.735 171.28C415.17 171.616 415.527 172.022 415.797 172.489C416.076 172.964 416.25 173.473 416.319 174.017C416.389 174.553 416.354 175.088 416.215 175.615C416.076 176.151 415.832 176.626 415.501 177.058C415.162 177.498 414.761 177.852 414.283 178.12C413.804 178.396 413.29 178.569 412.742 178.638C412.202 178.707 411.663 178.673 411.132 178.535C410.601 178.388 410.114 178.155 409.678 177.826C409.235 177.489 408.886 177.084 408.608 176.617C408.329 176.142 408.155 175.633 408.086 175.088C408.016 174.553 408.051 174.017 408.19 173.482C408.338 172.955 408.573 172.48 408.912 172.04C409.243 171.608 409.652 171.254 410.131 170.986C410.601 170.709 411.115 170.537 411.663 170.468C412.211 170.399 412.751 170.433 413.282 170.571Z" fill="#F7D671"/>
<path d="M388.338 163.981C388.869 164.119 389.356 164.361 389.792 164.689C390.227 165.026 390.584 165.423 390.862 165.898C391.132 166.373 391.306 166.883 391.384 167.418C391.454 167.963 391.419 168.498 391.28 169.025C391.132 169.552 390.897 170.035 390.557 170.467C390.227 170.899 389.818 171.253 389.339 171.53C388.86 171.806 388.355 171.979 387.807 172.048C387.259 172.117 386.719 172.082 386.188 171.944C385.657 171.797 385.17 171.564 384.735 171.227C384.299 170.899 383.943 170.493 383.664 170.018C383.394 169.552 383.22 169.042 383.151 168.498C383.072 167.954 383.107 167.418 383.255 166.892C383.394 166.365 383.638 165.881 383.969 165.449C384.308 165.017 384.709 164.663 385.187 164.395C385.666 164.119 386.179 163.946 386.719 163.877C387.267 163.8 387.807 163.834 388.338 163.981Z" fill="#F7D671"/>
<path d="M350.475 152.485C345.332 155.042 339.796 156.415 334.06 156.804C331.684 157.002 330.5 159.36 331.684 161.321C333.86 164.655 339.004 166.814 345.332 165.242C351.659 163.48 355.019 159.162 355.019 155.042C355.019 152.883 352.651 151.509 350.475 152.485Z" fill="#F7D671"/>
<path d="M355.28 137.293C355.428 137.82 355.463 138.355 355.393 138.899C355.315 139.435 355.141 139.944 354.871 140.419C354.592 140.894 354.236 141.292 353.8 141.629C353.365 141.957 352.878 142.199 352.347 142.337C351.816 142.484 351.276 142.518 350.728 142.44C350.188 142.371 349.675 142.199 349.196 141.931C348.717 141.654 348.317 141.3 347.978 140.869C347.638 140.437 347.403 139.953 347.264 139.426C347.116 138.899 347.081 138.364 347.151 137.82C347.229 137.276 347.403 136.766 347.673 136.3C347.951 135.825 348.308 135.419 348.744 135.09C349.179 134.754 349.666 134.52 350.197 134.374C350.728 134.235 351.268 134.201 351.816 134.27C352.364 134.339 352.869 134.512 353.348 134.788C353.827 135.064 354.236 135.419 354.566 135.85C354.906 136.282 355.141 136.766 355.28 137.293Z" fill="#F7D671"/>
<path d="M330.378 143.969C330.526 144.496 330.561 145.032 330.491 145.576C330.413 146.12 330.238 146.629 329.969 147.096C329.69 147.571 329.333 147.977 328.898 148.305C328.463 148.642 327.975 148.875 327.445 149.022C326.914 149.16 326.374 149.195 325.826 149.125C325.277 149.056 324.772 148.884 324.294 148.607C323.815 148.331 323.406 147.977 323.075 147.545C322.736 147.113 322.501 146.629 322.362 146.103C322.214 145.576 322.179 145.04 322.248 144.496C322.327 143.961 322.501 143.451 322.771 142.976C323.049 142.501 323.406 142.104 323.841 141.767C324.276 141.439 324.764 141.197 325.295 141.059C325.826 140.912 326.365 140.877 326.914 140.955C327.462 141.024 327.967 141.197 328.445 141.473C328.924 141.741 329.333 142.095 329.664 142.527C330.003 142.959 330.238 143.442 330.378 143.969Z" fill="#F7D671"/>
<path d="M369.659 137.578C365.307 121.289 348.3 111.477 331.884 115.986C331.293 116.184 330.692 116.383 330.1 116.573C330.1 116.771 330.1 116.97 330.1 117.16V117.359V117.557C329.708 118.732 328.916 119.717 327.733 120.105L320.021 122.463L319.229 122.662C319.029 122.852 319.029 122.852 318.829 123.051L315.861 131.489C315.469 132.663 314.477 133.449 313.493 133.648H313.293H313.093C313.093 133.648 313.093 133.648 312.901 133.648C312.901 133.648 312.901 133.648 312.701 133.648C312.701 133.648 312.701 133.648 312.501 133.648C312.501 133.648 312.501 133.648 312.301 133.648C312.301 133.648 312.301 133.648 312.109 133.648C312.109 133.648 312.109 133.648 311.909 133.648C311.909 133.648 311.909 133.648 311.709 133.648C311.709 133.648 311.709 133.648 311.509 133.648C311.509 133.648 311.509 133.648 311.317 133.648H311.117C308.55 139.729 307.949 146.604 309.733 153.271C314.085 169.561 331.092 179.372 347.508 175.054C364.315 170.744 374.202 154.057 369.659 137.578ZM346.716 171.331C332.476 175.054 317.645 166.615 313.885 152.485C312.501 147.58 312.701 142.674 314.085 137.967L337.028 131.886L339.396 121.09L346.916 129.33L358.187 126.384C361.747 129.727 364.315 133.847 365.699 138.753C369.459 152.883 360.955 167.401 346.716 171.331Z" fill="#F7D671"/>
<mask id="mask1_2193_116778" style="mask-type:luminance" maskUnits="userSpaceOnUse" x="303" y="108" width="26" height="26">
<path d="M303.833 108.333H328.343V133.035H303.833V108.333Z" fill="white"/>
</mask>
<g mask="url(#mask1_2193_116778)">
<path d="M304.59 124.623L311.318 131.489C312.11 132.275 313.494 132.077 313.885 130.902L317.245 121.289L326.941 118.344C327.925 117.946 328.325 116.772 327.533 115.986L320.805 109.12C320.022 108.334 318.629 108.532 318.237 109.707L314.878 119.32L305.182 122.265C304.198 122.464 303.798 123.837 304.59 124.623Z" fill="#F7D671"/>
</g>
<mask id="mask2_2193_116778" style="mask-type:luminance" maskUnits="userSpaceOnUse" x="276" y="113" width="39" height="40">
<path d="M276.067 113.135H314.973V152.934H276.067V113.135Z" fill="white"/>
</mask>
<g mask="url(#mask2_2193_116778)">
<path d="M309.141 132.275L303.005 125.996C302.222 125.011 301.821 123.837 302.222 122.662C302.613 121.479 303.405 120.503 304.589 120.106L313.493 117.359L313.684 116.97C312.109 115.986 309.733 115.01 307.557 115.398C303.605 115.787 299.845 119.916 296.677 124.623C293.318 129.529 289.958 132.664 286.398 132.862C282.838 133.26 278.878 130.116 277.303 130.116C276.511 130.116 276.702 131.489 277.694 134.046C278.686 136.594 280.862 140.325 283.63 144.047C286.398 147.58 289.758 150.525 292.926 150.922C296.085 151.311 299.254 148.953 302.021 144.643C304.789 140.126 307.165 135.609 309.141 132.275Z" fill="#F7D671"/>
</g>
<mask id="mask3_2193_116778" style="mask-type:luminance" maskUnits="userSpaceOnUse" x="40" y="0" width="8" height="14">
<path d="M40.9072 0H47.5917V13.6378H40.9072V0Z" fill="white"/>
</mask>
<g mask="url(#mask3_2193_116778)">
<path d="M43.9288 11.7292L44.0769 11.7205L45.5573 2.31488C45.6705 1.54619 45.3483 0.751591 44.6777 0.337017C44.3468 0.12973 43.9637 0.026088 43.5456 0.0433608C43.1364 0.0519994 42.7619 0.19019 42.4484 0.41475C41.8127 0.881147 41.5514 1.70166 41.7256 2.46171L43.9288 11.7292Z" fill="#F7D671"/>
</g>
<path d="M64.975 9.29333C65.4711 8.68875 65.5929 7.83369 65.2187 7.14273C65.0359 6.80589 64.7574 6.52087 64.3918 6.33086C64.0262 6.14085 63.6346 6.07175 63.2516 6.11494C62.4683 6.20131 61.8242 6.77134 61.5979 7.52276L58.8301 16.6347L58.9606 16.7038L64.975 9.29333Z" fill="#F7D671"/>
<path d="M79.5786 23.2336C79.5873 22.8535 79.4915 22.4649 79.2739 22.1194C79.0476 21.7739 78.743 21.5148 78.3949 21.368C77.6724 21.0484 76.8195 21.2298 76.245 21.7653L69.2559 28.2862L69.3342 28.4071L78.2817 24.9782C79.0215 24.6932 79.5525 24.0195 79.5786 23.2336Z" fill="#F7D671"/>
<mask id="mask4_2193_116778" style="mask-type:luminance" maskUnits="userSpaceOnUse" x="72" y="40" width="12" height="7">
<path d="M72.1025 40.1704H83.5567V46.8036H72.1025V40.1704Z" fill="white"/>
</mask>
<g mask="url(#mask4_2193_116778)">
<path d="M84.2001 43.1761C84.1827 42.7615 84.0434 42.3901 83.8171 42.0878C83.3558 41.4487 82.5289 41.1896 81.763 41.3623L72.4238 43.5475L72.4325 43.6943L81.9023 45.1626C82.6856 45.2835 83.4864 44.9553 83.9041 44.2902C84.1043 43.962 84.2175 43.582 84.2001 43.1761Z" fill="#F7D671"/>
</g>
<mask id="mask5_2193_116778" style="mask-type:luminance" maskUnits="userSpaceOnUse" x="0" y="37" width="12" height="6">
<path d="M0 37.9595H11.9416V42.3816H0V37.9595Z" fill="white"/>
</mask>
<g mask="url(#mask5_2193_116778)">
<path d="M2.37741 38.3914C1.59407 38.2705 0.793317 38.5987 0.375534 39.2637C0.175346 39.5833 0.0709014 39.972 0.0796046 40.3779C0.0970134 40.7925 0.236274 41.1639 0.462572 41.4748C0.932579 42.1053 1.75073 42.3644 2.52537 42.1917L11.8559 40.0065V39.8597L2.37741 38.3914Z" fill="#F7D671"/>
</g>
<path d="M7.24028 18.8803C6.90083 19.0617 6.6136 19.3381 6.41341 19.7008C6.22193 20.0636 6.161 20.4522 6.19582 20.8322C6.28286 21.6096 6.86601 22.2487 7.62324 22.4733L16.8058 25.2198L16.8754 25.0903L9.40752 19.1135C8.78955 18.6212 7.93658 18.5089 7.24028 18.8803Z" fill="#F7D671"/>
<path d="M28.5486 14.8642L28.6704 14.7865L25.215 5.91635C24.9278 5.18221 24.2402 4.65536 23.4482 4.62944C23.0652 4.62081 22.6822 4.71581 22.3341 4.93174C21.9859 5.14766 21.7248 5.45859 21.5681 5.80407C21.2548 6.52094 21.4289 7.36736 21.9772 7.9374L28.5486 14.8642Z" fill="#F7D671"/>
<path d="M49.1943 75.8584C49.116 75.8584 49.0029 75.8757 48.8549 75.9189L46.1393 76.6875C41.1172 78.104 35.9211 79.5723 30.8032 80.9801C30.133 81.1615 30.0895 81.4724 30.0721 82.1634C30.0634 82.2929 30.0634 82.4138 30.0547 82.5434C30.0547 84.3831 30.5682 84.5385 31.134 84.5385C31.4299 84.5385 31.7867 84.4781 32.2306 84.3572C37.4964 82.8889 42.7535 81.412 48.0193 79.9437C48.7243 79.7364 49.3162 79.2095 49.6208 78.4927C49.9603 77.7153 49.9255 76.8516 49.5338 76.1261C49.3945 75.8584 49.2814 75.8584 49.1943 75.8584Z" fill="#F7D671"/>
<path d="M30.0545 77.3179C30.0632 79.244 30.4114 79.2526 30.7857 79.2526C31.0468 79.2526 31.3949 79.1835 31.8823 79.0539C33.5796 78.5789 35.2681 78.1039 36.9654 77.6288C40.6993 76.5751 44.5551 75.4955 48.3586 74.4505C49.2812 74.1913 49.5772 73.9495 49.6381 73.4054L49.6642 73.2413C49.7774 72.2048 49.8818 71.3152 49.229 70.5379C49.142 70.4256 49.081 70.417 49.0201 70.417C48.907 70.417 48.759 70.4602 48.5936 70.5034L48.524 70.5293C43.6586 71.8939 37.592 73.604 31.7692 75.2105C29.776 75.7633 29.9849 76.8688 30.0545 77.2315V77.3179Z" fill="#F7D671"/>
<path d="M37.043 84.6506C38.5487 84.7197 40.5332 84.737 42.0912 84.737C43.1269 84.737 44.1627 84.7283 45.0766 84.7197C45.7816 84.7197 46.4257 84.7197 46.9653 84.7197C48.297 84.7111 49.1674 84.4347 49.5503 83.8733C49.9333 83.3119 49.8985 82.405 49.4459 81.1699L37.043 84.6506Z" fill="#F7D671"/>
<path d="M31.6469 70.2271H31.2552C30.5502 70.2271 30.3065 70.7625 30.2195 71.0821C30.0019 71.9544 29.8539 72.9736 30.3935 73.9669L43.162 70.3825C39.9764 70.3048 34.9195 70.2271 31.6469 70.2271Z" fill="#F7D671"/>
<mask id="mask6_2193_116778" style="mask-type:luminance" maskUnits="userSpaceOnUse" x="34" y="84" width="12" height="6">
<path d="M34.2236 84.3916H45.3645V89.5479H34.2236V84.3916Z" fill="white"/>
</mask>
<g mask="url(#mask6_2193_116778)">
<path d="M34.7615 86.2314C34.718 87.052 34.9269 87.7343 35.3534 88.2007C35.7886 88.6843 36.4762 88.9607 37.3378 89.0039C37.7208 89.0212 38.713 89.0298 39.8619 89.0298C41.0195 89.0298 42.0118 89.0212 42.386 89.0039C43.2564 88.9607 43.944 88.6843 44.3792 88.2007C44.8057 87.7343 45.0059 87.052 44.9624 86.2314H34.7615Z" fill="#F7D671"/>
</g>
<path d="M64.3206 43.1677C63.929 44.3682 62.8584 45.2751 61.3875 45.6638C60.4475 43.5304 59.7947 42.7013 58.7415 42.2435C57.7841 41.829 57.1052 41.9844 56.7135 42.7099C56.3393 43.4009 56.5569 44.04 57.3228 44.515C58.0278 44.9555 58.4195 45.4478 58.4978 45.9747C58.5761 46.5102 58.3324 47.1061 57.758 47.7453C56.8963 48.704 57.1922 49.3949 57.5839 49.8009C57.8798 50.1032 58.2106 50.25 58.55 50.2413C59.081 50.2327 59.5161 49.8527 59.786 49.5418C60.4475 48.7731 61.0045 48.3671 61.8662 48.5399C62.1447 51.0619 61.0045 52.9879 58.5674 54.1107C58.3847 54.0416 58.3237 53.8861 58.2454 53.6529C58.2106 53.5407 58.1671 53.4284 58.1061 53.3247C57.5926 52.5129 57.0094 52.2883 56.3131 52.6424C55.4689 53.0656 55.5211 53.8343 55.6604 54.4562C56.1478 56.6413 55.8867 58.2996 54.9031 59.2238C53.937 60.1479 52.2833 60.338 50.1334 59.7679C49.4981 59.5952 48.7234 59.5174 48.3231 60.3811C47.9662 61.1498 48.236 61.763 49.1499 62.2726C49.3675 62.3935 49.6199 62.4626 49.8549 62.5231C50.2292 62.6267 50.5773 62.7218 50.8297 63.0068C50.8297 63.1881 50.8297 63.3695 50.8297 63.5423C50.8297 64.095 50.8385 64.6219 50.5686 65.1055H44.476V56.0972C44.5717 56.1577 44.6675 56.2181 44.7545 56.2699C44.9634 56.3995 45.1375 56.5031 45.2941 56.6241C45.4247 56.7191 45.5552 56.8313 45.6945 56.9436C46.2167 57.3755 46.8086 57.8591 47.4353 57.7901C47.7747 57.7469 48.0881 57.5396 48.3753 57.1595C48.6712 56.7709 48.7844 56.4168 48.7234 56.0886C48.6103 55.5358 48.0445 55.1903 47.4875 54.8621C47.2873 54.7412 47.0871 54.6203 46.9217 54.4994C44.3628 52.5733 43.9363 50.5091 45.503 47.5984C45.9121 46.8384 45.7989 46.1906 45.2071 45.8624C44.0756 45.2319 44.1974 44.3423 44.3367 43.4095C44.3976 42.969 44.4586 42.5199 44.3889 42.0967C44.2497 41.2848 44.3628 40.6371 44.7284 40.1707C45.1201 39.6611 45.7989 39.3588 46.7477 39.2551C47.1132 39.2206 47.4092 39.0738 47.6093 38.8319C47.8095 38.5815 47.8879 38.2446 47.8443 37.8646C47.7486 37.1391 47.2438 36.7072 46.4865 36.6986C45.9991 36.6986 45.5378 36.7418 44.9982 36.7936C44.7893 36.8109 44.5804 36.8282 44.3541 36.8454C44.415 36.0422 44.3802 35.239 44.3541 34.4616C44.2932 32.7515 44.2236 31.1278 45.1288 29.5731C45.3202 29.2449 45.4247 28.7699 45.1288 28.4158C44.0234 27.077 44.1887 25.5483 44.3541 24.0627C44.4063 23.5532 44.4673 23.0177 44.476 22.4995C44.4847 21.083 45.416 19.9602 46.974 19.5111C48.5668 19.0533 49.8288 19.3815 50.8297 20.5216C50.5599 20.6943 50.2814 20.8498 50.0029 21.0053C49.2282 21.4544 48.4971 21.869 47.9662 22.6031C47.5136 23.2422 47.5397 23.8555 48.0445 24.3737C48.5494 24.9092 49.1847 24.9523 49.8114 24.4859C49.9681 24.365 50.116 24.2355 50.2553 24.1059C50.4207 23.9591 50.586 23.8123 50.7688 23.6827C52.7359 22.3267 55.6255 22.629 57.2009 24.365C58.846 26.1615 58.8721 28.6662 57.2967 30.6527C55.6865 29.3745 54.172 28.9081 52.527 29.1758L52.4922 29.1845C51.587 29.3313 50.4555 29.5127 50.5686 30.7996C50.5947 31.2141 50.7253 31.5078 50.9603 31.7064C51.3607 32.0346 51.9699 31.9656 52.5618 31.9051L52.7707 31.8792C53.8761 31.7669 54.8683 32.1037 55.5124 32.8033C56.0694 33.4166 56.287 34.2457 56.1043 35.1267C56.0433 35.4376 55.9041 35.7399 55.7735 36.0336C55.7387 36.1113 55.7039 36.189 55.6691 36.2668C55.2687 37.1909 55.4776 37.8991 56.2609 38.2533C57.2357 38.6937 57.8015 37.951 58.1496 37.3636C58.7589 36.3013 58.9765 35.4635 58.846 34.7294C58.6109 33.4079 59.1767 32.622 60.1863 31.8015C60.7869 32.1987 61.196 32.7688 61.4571 33.5807C62.049 35.4376 61.7617 37.0959 60.5867 38.5124C60.0123 39.212 60.0123 39.8943 60.5954 40.4298C61.2395 41.0344 61.9445 40.9653 62.6495 40.2398C62.8062 40.067 62.9629 39.8856 63.1456 39.6784C63.224 39.592 63.3023 39.5056 63.3893 39.402C64.3729 40.5852 64.7123 41.9585 64.3206 43.1677ZM37.0603 65.1142H33.5353C32.2732 65.1055 30.0712 65.0883 29.2008 65.0624C29.1834 64.9501 29.1747 64.8551 29.1573 64.7601C29.1225 64.501 29.0876 64.2764 29.0702 64.0432C28.5132 58.7574 26.8508 54.4303 23.9872 50.8114C17.5725 42.7099 18.7649 31.266 26.6854 24.7623C29.8449 22.1712 33.2394 20.8757 37.0603 20.7893V65.1142ZM64.4338 35.3512C64.5121 33.0884 63.6853 31.1882 61.9706 29.7113C61.3178 29.1413 61.1873 28.5799 61.1873 27.7939C61.1873 23.9764 58.785 21.0312 55.0859 20.2798C54.2155 20.107 53.7455 19.7183 53.2842 19.1483C51.3955 16.8422 48.6277 16.0476 45.8947 17.015C43.2139 17.965 41.7343 20.1761 41.7256 23.2336C41.7082 28.2257 41.7082 33.2956 41.7169 38.2014C41.7169 40.2398 41.7169 42.2781 41.7169 44.3078V44.4287H41.7343V50.4918C41.7343 55.3631 41.7343 60.2429 41.7343 65.1142H39.863C39.863 59.7075 39.863 54.3007 39.863 48.8853V38.711C39.863 32.6911 39.863 26.6797 39.863 20.6598C39.863 19.3297 39.7933 18.6301 39.393 18.2587C38.9752 17.8614 38.2528 17.8614 36.8166 17.9478C27.5384 18.5178 19.4264 25.5569 17.5116 34.7035C16.2234 40.8616 17.4768 46.5879 21.2455 51.7096C24.6226 56.3045 26.3024 60.9166 26.3721 65.8138C26.3721 65.8483 26.3808 65.9002 26.3808 65.9692C26.4156 67.0661 27.3121 67.9212 28.4175 67.9212H51.3781C51.9264 67.9212 52.4487 67.7139 52.8316 67.3166C53.2233 66.9366 53.4235 66.4184 53.4148 65.8742C53.3626 64.1468 53.5018 62.5576 55.7126 61.8321C56.8789 61.4521 57.8798 60.2602 58.2454 58.8178C58.5935 57.4791 59.3334 56.84 60.43 56.244C63.2501 54.7067 64.7384 52.0551 64.7471 48.6003C64.7558 47.6416 64.869 46.9939 65.4957 46.2856C67.9588 43.4786 67.8196 39.8856 65.1388 37.1305C64.5992 36.5777 64.4077 36.0767 64.4338 35.3512Z" fill="#F7D671"/>
<path d="M45.8105 178.718C65.69 174.054 65.7596 159.026 61.6514 141.787L57.8217 125.722C54.1313 110.21 60.5025 106.064 58.5877 98.1183C57.0558 91.6578 49.292 89.9305 42.1897 91.5887C34.7393 93.3507 28.0547 98.8438 29.8999 106.582C31.8844 114.943 39.2304 113.803 43.0601 129.902L46.0542 142.443C49.8839 158.439 49.9187 165.59 44.3483 166.903C41.2845 167.628 38.9519 165.694 37.8378 160.995C37.0719 157.817 37.7334 155.329 36.863 151.667C35.7837 147.107 32.2326 143.203 25.6177 144.758C19.3509 146.243 12.9449 151.391 15.4516 161.928C17.5057 170.496 28.2984 182.83 45.8105 178.718Z" fill="#63518C"/>
<path d="M136.487 129.688C135.304 123.054 135.687 118.183 137.636 113.554C138.715 111.135 139.064 108.51 138.681 106.368C137.775 101.393 133.145 99.0437 126.704 100.218C118.801 101.6 113.405 107.093 114.414 112.656C114.728 114.418 115.494 115.938 117.2 117.941C120.646 121.983 122.492 126.164 123.258 130.344C124.894 139.361 120.298 145.96 111.211 147.583C104.388 148.793 100.732 145.165 98.9913 135.526C98.0165 130.068 98.5039 124.575 100.314 120.222C101.359 117.803 101.777 115.178 101.394 113.036C100.488 108.061 95.8231 105.711 89.3475 106.852C81.4792 108.268 76.0481 113.761 77.0577 119.323C77.4059 121.223 78.1718 122.709 79.8777 124.747C84.4385 130.033 85.2393 131.761 86.1793 137.081C86.4926 138.774 87.3282 145.476 87.6067 147.031C89.8349 159.468 95.8231 165.03 104.562 163.475C110.794 162.335 114.206 160.021 118.662 153.975C121.134 150.589 122.178 149.656 123.78 149.38C125.695 149.034 126.843 150.14 127.331 152.904C128.062 156.808 129.106 159.088 134.015 158.224C141.187 156.946 146.793 151.142 145.853 146.063C145.504 144.163 144.564 142.85 142.406 141.019C139.064 138.325 137.532 135.388 136.487 129.688Z" fill="#63518C"/>
<path d="M218.434 144.182C214.465 138.447 213.838 136.685 213.42 131.503C213.281 129.844 213.107 122.797 212.968 121.242C211.958 108.632 206.562 102.517 197.719 103.208C192.601 103.622 189.015 105.626 183.967 111.223C181.182 114.332 180.033 115.161 178.675 115.265C177.7 115.334 176.725 114.781 176.447 111.327C176.133 107.354 175.298 105.004 170.319 105.384C163.043 105.972 156.915 111.188 157.333 116.336C157.472 118.271 158.343 119.653 160.292 121.691C163.321 124.697 164.54 127.737 165.027 133.748C165.55 140.243 164.714 145.045 162.312 149.467C161.024 151.748 160.397 154.373 160.571 156.515C160.954 161.559 165.306 164.358 171.851 163.839C179.859 163.217 185.777 158.277 185.325 152.646C185.185 150.815 184.559 149.295 182.957 147.084C180.033 142.765 178.605 138.378 178.292 134.37C177.526 125.008 181.565 119.031 190.756 118.305C196.431 117.856 199.703 121.795 200.504 131.814C200.922 137.065 199.912 142.523 197.684 146.635C196.396 148.949 195.734 151.575 195.908 153.717C196.291 158.761 200.678 161.559 207.223 161.041C215.231 160.419 221.184 155.444 220.732 149.813C220.592 147.878 219.966 146.324 218.434 144.182Z" fill="#63518C"/>
<path d="M257.446 95.0444C263.782 95.0444 270.223 91.6587 270.223 84.4382C270.223 78.9796 265.209 76.354 259.5 76.354C252.711 76.354 245.156 80.1888 245.156 86.2347C245.156 91.9005 251.248 95.0444 257.446 95.0444ZM255.496 162.724C262.424 162.724 269.84 159.096 269.84 152.601C269.84 150.425 269.004 148.732 267.89 146.901C266.323 144.137 264.374 140.406 264.374 131.458C264.374 123.27 266.08 121.093 267.542 118.813C268.378 117.604 269.84 115.428 269.84 112.422C269.84 106.998 264.861 104.338 259.151 104.338C252.328 104.338 244.808 108.173 244.808 114.218C244.808 116.637 246.026 118.191 247.349 119.781C249.055 121.819 251.109 123.615 251.109 131.941C251.109 140.889 248.951 144.862 247.105 147.626C246.374 148.732 244.808 151.254 244.808 154.501C244.808 160.202 249.786 162.724 255.496 162.724Z" fill="#63518C"/>
<path d="M489.669 118.433C479.468 117.984 477.657 128.417 473.863 128.244C471.913 128.141 471.043 126.759 471.182 123.995C471.356 120.057 470.834 117.604 465.89 117.396C458.579 117.051 451.825 121.473 451.581 126.621C451.511 128.555 452.173 130.041 453.879 132.287C456.525 135.672 457.36 138.851 457.082 144.862C456.803 151.391 455.341 156.055 452.382 160.098C450.815 162.205 449.875 164.727 449.77 166.869C449.562 171.947 453.565 175.264 460.111 175.575C468.118 175.92 474.594 171.74 474.872 166.074C474.942 164.243 474.524 162.689 473.166 160.305C470.834 155.641 469.963 151.15 470.137 147.142C470.555 137.745 476.509 132.321 482.079 132.563C484.76 132.701 487.371 134.256 487.266 136.916C487.197 138.471 486.535 139.438 486.396 141.442C486.257 145.587 489.634 147.764 493.707 147.937C498.93 148.179 503.49 143.929 503.804 136.57C504.221 127.519 500.009 118.917 489.669 118.433Z" fill="#63518C"/>
</svg>
