<svg width="36" height="36" viewBox="0 0 36 36" fill="none" xmlns="http://www.w3.org/2000/svg">
<path d="M33.6231 10.818L22.032 1.38603C19.7668 -0.449967 16.2275 -0.467967 13.98 1.36803L2.38882 10.818C0.725351 12.168 -0.283347 14.868 0.070582 16.992L2.30034 30.564C2.81353 33.606 5.59188 36 8.61797 36H27.3763C30.367 36 33.1984 33.552 33.7116 30.546L35.9414 16.974C36.2599 14.868 35.2512 12.168 33.6231 10.818ZM19.3244 28.8C19.3244 29.538 18.7227 30.15 17.9972 30.15C17.2716 30.15 16.6699 29.538 16.6699 28.8V23.4C16.6699 22.662 17.2716 22.05 17.9972 22.05C18.7227 22.05 19.3244 22.662 19.3244 23.4V28.8Z" fill="#63518C"/>
</svg>
