<svg width="37" height="37" viewBox="0 0 37 37" fill="none" xmlns="http://www.w3.org/2000/svg">
<path d="M26.3604 1.97079L29.3209 4.9312L24.87 9.3412C24.0738 10.1375 24.0738 11.4441 24.87 12.2404C25.6663 13.0366 26.9729 13.0366 27.7692 12.2404L32.1792 7.78954L35.1396 10.75C35.2835 10.891 35.466 10.9864 35.664 11.0239C35.862 11.0615 36.0667 11.0396 36.2523 10.9609C36.4379 10.8823 36.5961 10.7506 36.7069 10.5822C36.8177 10.4139 36.8762 10.2165 36.875 10.015V1.2562C36.875 0.684536 36.4259 0.235369 35.8542 0.235369H27.0954C26.8939 0.234185 26.6965 0.292686 26.5282 0.4035C26.3598 0.514314 26.228 0.67248 26.1494 0.858066C26.0708 1.04365 26.0489 1.24835 26.0865 1.44637C26.124 1.64439 26.2194 1.82686 26.3604 1.97079ZM1.86043 10.75L4.82085 7.78954L9.23085 12.2404C10.0271 13.0366 11.3338 13.0366 12.13 12.2404C12.9263 11.4441 12.9263 10.1375 12.13 9.3412L7.67918 4.9312L10.6396 1.97079C10.7807 1.82686 10.876 1.64439 10.9136 1.44637C10.9511 1.24835 10.9292 1.04365 10.8506 0.858066C10.772 0.67248 10.6402 0.514314 10.4719 0.4035C10.3035 0.292686 10.1061 0.234185 9.9046 0.235369H1.14585C0.574184 0.235369 0.125018 0.684536 0.125018 1.2562V10.015C0.125018 10.9337 1.22752 11.3829 1.86043 10.75ZM10.6396 35.25L7.67918 32.2895L12.13 27.8795C12.9263 27.0833 12.9263 25.7766 12.13 24.9804C11.3338 24.1841 10.0271 24.1841 9.23085 24.9804L4.82085 29.4312L1.86043 26.4708C1.71651 26.3297 1.53403 26.2344 1.33602 26.1968C1.138 26.1593 0.933301 26.1812 0.747715 26.2598C0.562129 26.3384 0.403962 26.4702 0.293148 26.6385C0.182335 26.8069 0.123834 27.0042 0.125018 27.2058V35.9645C0.125018 36.5362 0.574184 36.9854 1.14585 36.9854H9.9046C10.1061 36.9866 10.3035 36.9281 10.4719 36.8172C10.6402 36.7064 10.772 36.5483 10.8506 36.3627C10.9292 36.1771 10.9511 35.9724 10.9136 35.7744C10.876 35.5764 10.7807 35.3939 10.6396 35.25ZM35.1396 26.4708L32.1792 29.4312L27.7692 24.9804C26.9729 24.1841 25.6663 24.1841 24.87 24.9804C24.0738 25.7766 24.0738 27.0833 24.87 27.8795L29.3209 32.2895L26.3604 35.25C26.2194 35.3939 26.124 35.5764 26.0865 35.7744C26.0489 35.9724 26.0708 36.1771 26.1494 36.3627C26.228 36.5483 26.3598 36.7064 26.5282 36.8172C26.6965 36.9281 26.8939 36.9866 27.0954 36.9854H35.8542C36.4259 36.9854 36.875 36.5362 36.875 35.9645V27.2058C36.8762 27.0042 36.8177 26.8069 36.7069 26.6385C36.5961 26.4702 36.4379 26.3384 36.2523 26.2598C36.0667 26.1812 35.862 26.1593 35.664 26.1968C35.466 26.2344 35.2835 26.3297 35.1396 26.4708Z" fill="#F5F5F5"/>
</svg>
