<svg width="39" height="38" viewBox="0 0 39 38" fill="none" xmlns="http://www.w3.org/2000/svg">
<path d="M1.12449 10.4442C1.12449 11.5671 2.04324 12.4858 3.16616 12.4858H11.3328C12.4557 12.4858 13.3745 11.5671 13.3745 10.4442V2.27748C13.3745 1.15457 12.4557 0.235818 11.3328 0.235818C10.2099 0.235818 9.29116 1.15457 9.29116 2.27748V5.52374L4.43199 0.664568C4.24297 0.475547 4.01857 0.325607 3.7716 0.223309C3.52463 0.121011 3.25993 0.0683594 2.99261 0.0683594C2.7253 0.0683594 2.4606 0.121011 2.21363 0.223309C1.96666 0.325607 1.74226 0.475547 1.55324 0.664568C1.36422 0.853589 1.21428 1.07799 1.11198 1.32496C1.00968 1.57193 0.957031 1.83663 0.957031 2.10394C0.957031 2.37126 1.00968 2.63596 1.11198 2.88293C1.21428 3.1299 1.36422 3.3543 1.55324 3.54332L6.41241 8.40249H3.16616C2.04324 8.40249 1.12449 9.32124 1.12449 10.4442ZM35.8328 8.40249H32.5866L37.4457 3.54332C37.8275 3.16157 38.0419 2.64381 38.0419 2.10394C38.0419 1.56407 37.8275 1.04631 37.4457 0.664568C37.064 0.282822 36.5462 0.0683594 36.0064 0.0683594C35.4665 0.0683594 34.9487 0.282822 34.567 0.664568L29.7078 5.52374V2.27748C29.7078 1.15457 28.7891 0.235818 27.6662 0.235818C26.5432 0.235818 25.6245 1.15457 25.6245 2.27748V10.4442C25.6245 11.5671 26.5432 12.4858 27.6662 12.4858H35.8328C36.9557 12.4858 37.8745 11.5671 37.8745 10.4442C37.8745 9.32124 36.9557 8.40249 35.8328 8.40249ZM3.16616 28.8192H6.41241L1.55324 33.6783C1.17149 34.0601 0.957031 34.5778 0.957031 35.1177C0.957031 35.6576 1.17149 36.1753 1.55324 36.5571C1.93499 36.9388 2.45274 37.1533 2.99261 37.1533C3.53249 37.1533 4.05024 36.9388 4.43199 36.5571L9.29116 31.6979V34.9442C9.29116 36.0671 10.2099 36.9858 11.3328 36.9858C12.4557 36.9858 13.3745 36.0671 13.3745 34.9442V26.7775C13.3745 25.6546 12.4557 24.7358 11.3328 24.7358H3.16616C2.04324 24.7358 1.12449 25.6546 1.12449 26.7775C1.12449 27.9004 2.04324 28.8192 3.16616 28.8192ZM37.8745 26.7775C37.8745 25.6546 36.9557 24.7358 35.8328 24.7358H27.6662C26.5432 24.7358 25.6245 25.6546 25.6245 26.7775V34.9442C25.6245 36.0671 26.5432 36.9858 27.6662 36.9858C28.7891 36.9858 29.7078 36.0671 29.7078 34.9442V31.6979L34.567 36.5571C34.9487 36.9388 35.4665 37.1533 36.0064 37.1533C36.5462 37.1533 37.064 36.9388 37.4457 36.5571C37.8275 36.1753 38.0419 35.6576 38.0419 35.1177C38.0419 34.5778 37.8275 34.0601 37.4457 33.6783L32.5866 28.8192H35.8328C36.9557 28.8192 37.8745 27.9004 37.8745 26.7775Z" fill="#F5F5F5"/>
</svg>
