<svg width="120" height="120" viewBox="0 0 120 120" fill="none" xmlns="http://www.w3.org/2000/svg">
<circle cx="60" cy="60" r="60" fill="#63518C"/>
<mask id="mask0_2193_121868" style="mask-type:luminance" maskUnits="userSpaceOnUse" x="36" y="58" width="52" height="38">
<path d="M36.6758 58.585H87.1712V96.0001H36.6758V58.585Z" fill="white"/>
</mask>
<g mask="url(#mask0_2193_121868)">
<path d="M83.7493 62.2702H82.2367C82.1815 62.2702 82.1251 62.2702 82.0688 62.2702V60.3079C82.0688 59.7477 81.6777 59.2991 81.1175 59.1864C77.6459 58.6814 74.3412 58.7942 71.4298 59.1864C71.7657 59.8593 72.0452 60.5885 72.2131 61.373C74.5655 61.0935 77.141 60.9808 79.8292 61.3178V83.4118C76.7498 83.4118 68.4057 83.7488 63.0304 86.1598V79.0938H60.7897V86.1598C55.4144 83.6925 47.0714 83.4118 43.9909 83.4118V61.3178C46.6791 61.0371 49.2546 61.0935 51.6069 61.373C51.7749 60.5885 52.0544 59.8593 52.3903 59.1864C49.4789 58.7942 46.1753 58.6814 42.7026 59.1864C42.1436 59.2428 41.7513 59.7477 41.7513 60.3079V62.2702C41.695 62.2702 41.6386 62.2702 41.5834 62.2702H40.0708C38.2234 62.2702 36.7119 63.7851 36.7119 65.6358V88.0669C36.7119 89.9165 38.2234 91.4314 40.0708 91.4314H54.631C55.358 91.4314 56.0309 91.8799 56.8706 92.8887L57.654 93.8423C58.718 95.1317 60.2859 95.9173 61.91 95.9173C63.5342 95.9173 65.1584 95.1881 66.1661 93.8423L66.9494 92.8887C67.5096 92.1606 68.4621 91.4314 69.4697 91.4314H83.7493C85.5967 91.4314 87.1093 89.9165 87.1093 88.0669V65.6358C87.1093 63.7851 85.5967 62.2702 83.7493 62.2702Z" fill="#F7D671"/>
</g>
<path d="M55.8631 70.1226C56.7028 71.3556 57.822 73.0384 58.3258 74.9455C58.6065 76.0107 59.6142 76.7952 60.6782 76.7952H63.1984C64.2624 76.7952 65.2137 76.0107 65.5496 74.9455C66.0546 72.9821 67.1738 71.3004 68.0135 70.1226C68.2378 69.7855 68.4621 69.4497 68.6301 69.2254C68.9096 68.7768 69.1339 68.3845 69.3018 67.9912C69.9736 66.589 70.3095 65.2996 70.3095 64.0665C70.3095 59.3551 66.6136 55.542 62.0217 55.542H61.7422C57.2066 55.542 53.5107 59.3551 53.5107 64.0101C53.5107 65.2996 53.8466 66.589 54.5184 67.9348C54.7427 68.3282 54.967 68.7204 55.1902 69.169C55.4145 69.506 55.6388 69.7855 55.8631 70.1226Z" fill="#F7D671"/>
<mask id="mask1_2193_121868" style="mask-type:luminance" maskUnits="userSpaceOnUse" x="26" y="24" width="69" height="29">
<path d="M26 24H94.445V52.814H26V24Z" fill="white"/>
</mask>
<g mask="url(#mask1_2193_121868)">
<path d="M93.6056 33.3352L62.2465 24.1389C62.0222 24.0826 61.7991 24.0826 61.6311 24.1389L30.2721 33.3352C29.8246 33.4479 29.4887 33.8402 29.4887 34.3451C29.4887 34.4015 29.4887 37.766 29.4887 37.766C28.2004 38.2146 27.248 39.4476 27.248 40.9061C27.248 42.3083 28.0889 43.5414 29.3208 44.0463C29.0965 44.8872 28.4247 46.233 26.689 47.2429C26.0724 47.5788 25.9045 48.2517 26.2404 48.813C26.521 49.3731 27.1928 49.5422 27.753 49.2052C29.0965 48.4207 29.9926 47.4672 30.5528 46.57C31.1118 47.4672 32.0079 48.4207 33.3526 49.2052C33.5205 49.3179 33.7437 49.3731 33.9116 49.3731C34.3039 49.3731 34.6961 49.1488 34.864 48.813C35.1999 48.2517 34.9756 47.5788 34.4718 47.2992C32.736 46.2893 32.0642 44.9435 31.8399 44.1027C33.0719 43.5977 33.9116 42.4199 33.9116 41.0177C33.9116 39.5603 32.9603 38.3261 31.672 37.8775V36.2511L46.3439 42.8121L45.1119 48.2517C44.9992 48.7566 45.2799 49.3179 45.7837 49.5422C46.1196 49.6538 53.5113 52.7388 60.7903 52.7388H63.031C70.31 52.7388 77.7018 49.6538 78.0376 49.5422C78.5415 49.3179 78.8221 48.813 78.7094 48.2517L77.5338 42.7569L93.7735 35.4666C94.221 35.2987 94.4453 34.8501 94.4453 34.3451C94.3337 33.8965 94.053 33.5043 93.6056 33.3352ZM30.5528 42.084C29.9362 42.084 29.4324 41.579 29.4324 40.9625C29.4324 40.3448 29.9362 39.841 30.5528 39.841C31.1682 39.841 31.672 40.3448 31.672 40.9625C31.672 41.579 31.1682 42.084 30.5528 42.084ZM63.031 50.4946H60.7903C55.3587 50.4946 49.6475 48.5887 47.5195 47.8031L49.4232 39.0554C51.1037 38.4941 56.1431 37.0931 60.9594 37.0931H62.8631C67.6782 37.0931 72.7187 38.5504 74.3981 39.0554L76.3019 47.8031C74.1738 48.5887 68.4627 50.4946 63.031 50.4946Z" fill="#F7D671"/>
</g>
</svg>
