<svg width="30" height="30" viewBox="0 0 30 30" fill="none" xmlns="http://www.w3.org/2000/svg">
<g clip-path="url(#clip0_2763_152)">
<path d="M14.9998 13.125C13.718 13.125 12.4886 12.6311 11.5822 11.7521C10.6757 10.873 10.1665 9.6807 10.1665 8.4375C10.1665 7.1943 10.6757 6.00201 11.5822 5.12294C12.4886 4.24386 13.718 3.75 14.9998 3.75C16.2817 3.75 17.5111 4.24386 18.4175 5.12294C19.3239 6.00201 19.8332 7.1943 19.8332 8.4375C19.8332 9.6807 19.3239 10.873 18.4175 11.7521C17.5111 12.6311 16.2817 13.125 14.9998 13.125ZM14.9998 5.625C13.3952 5.625 12.0998 6.88125 12.0998 8.4375C12.0998 9.99375 13.3952 11.25 14.9998 11.25C16.6045 11.25 17.8998 9.99375 17.8998 8.4375C17.8998 6.88125 16.6045 5.625 14.9998 5.625Z" fill="#63518C"/>
<path d="M26.6 20.625C26.0587 20.625 25.6333 20.2125 25.6333 19.6875C25.6333 19.1625 26.0587 18.75 26.6 18.75C27.1413 18.75 27.5667 18.3375 27.5667 17.8125C27.5667 16.5693 27.0574 15.377 26.151 14.4979C25.2446 13.6189 24.0152 13.125 22.7333 13.125H20.8C20.2587 13.125 19.8333 12.7125 19.8333 12.1875C19.8333 11.6625 20.2587 11.25 20.8 11.25C22.4047 11.25 23.7 9.99375 23.7 8.4375C23.7 6.88125 22.4047 5.625 20.8 5.625C20.2587 5.625 19.8333 5.2125 19.8333 4.6875C19.8333 4.1625 20.2587 3.75 20.8 3.75C22.0819 3.75 23.3113 4.24386 24.2177 5.12294C25.1241 6.00201 25.6333 7.1943 25.6333 8.4375C25.6333 9.6 25.208 10.65 24.4733 11.475C27.354 12.225 29.5 14.775 29.5 17.8125C29.5 19.3687 28.2047 20.625 26.6 20.625ZM3.4 20.625C1.79533 20.625 0.5 19.3687 0.5 17.8125C0.5 14.775 2.62667 12.225 5.52667 11.475C4.81133 10.65 4.36667 9.6 4.36667 8.4375C4.36667 7.1943 4.87589 6.00201 5.78232 5.12294C6.68874 4.24386 7.91812 3.75 9.2 3.75C9.74133 3.75 10.1667 4.1625 10.1667 4.6875C10.1667 5.2125 9.74133 5.625 9.2 5.625C7.59533 5.625 6.3 6.88125 6.3 8.4375C6.3 9.99375 7.59533 11.25 9.2 11.25C9.74133 11.25 10.1667 11.6625 10.1667 12.1875C10.1667 12.7125 9.74133 13.125 9.2 13.125H7.26667C5.98479 13.125 4.75541 13.6189 3.84898 14.4979C2.94256 15.377 2.43333 16.5693 2.43333 17.8125C2.43333 18.3375 2.85867 18.75 3.4 18.75C3.94133 18.75 4.36667 19.1625 4.36667 19.6875C4.36667 20.2125 3.94133 20.625 3.4 20.625ZM20.8 26.25H9.2C7.59533 26.25 6.3 24.9937 6.3 23.4375V21.5625C6.3 17.9438 9.33533 15 13.0667 15H16.9333C20.6647 15 23.7 17.9438 23.7 21.5625V23.4375C23.7 24.9937 22.4047 26.25 20.8 26.25ZM13.0667 16.875C11.7848 16.875 10.5554 17.3689 9.64898 18.2479C8.74256 19.127 8.23333 20.3193 8.23333 21.5625V23.4375C8.23333 23.9625 8.65867 24.375 9.2 24.375H20.8C21.3413 24.375 21.7667 23.9625 21.7667 23.4375V21.5625C21.7667 20.3193 21.2574 19.127 20.351 18.2479C19.4446 17.3689 18.2152 16.875 16.9333 16.875H13.0667Z" fill="#63518C"/>
</g>
<defs>
<clipPath id="clip0_2763_152">
<rect width="29" height="30" fill="white" transform="translate(0.5)"/>
</clipPath>
</defs>
</svg>
