<svg width="31" height="36" viewBox="0 0 31 36" fill="none" xmlns="http://www.w3.org/2000/svg">
<path d="M30.3209 21.6731L28.2753 18.2805C27.8228 17.5406 27.4245 16.115 27.4245 15.2488V11.8741C27.4245 5.32352 22.0844 0 15.5313 0C8.96023 0.0180458 3.62005 5.32352 3.62005 11.8741V15.2307C3.62005 16.0969 3.2218 17.5225 2.78734 18.2624L0.741784 21.655C-0.0366155 22.9724 -0.217639 24.4702 0.271124 25.7695C0.759886 27.0868 1.86413 28.1335 3.31231 28.6027C5.26736 29.2523 7.24051 29.7215 9.24987 30.0644C9.44899 30.1005 9.64812 30.1185 9.84725 30.1546C10.1007 30.1907 10.3722 30.2268 10.6437 30.2629C11.1144 30.3351 11.5851 30.3892 12.0738 30.4253C13.2142 30.5336 14.3728 30.5877 15.5313 30.5877C16.6718 30.5877 17.8122 30.5336 18.9346 30.4253C19.3509 30.3892 19.7673 30.3531 20.1655 30.299C20.4914 30.2629 20.8172 30.2268 21.143 30.1726C21.3422 30.1546 21.5413 30.1185 21.7404 30.0824C23.7679 29.7576 25.7772 29.2523 27.7323 28.6027C29.1262 28.1335 30.1942 27.0868 30.7011 25.7514C31.2079 24.398 31.0631 22.9182 30.3209 21.6731ZM16.8528 14.3465C16.8528 15.1044 16.2373 15.7179 15.477 15.7179C14.7167 15.7179 14.1012 15.1044 14.1012 14.3465V8.75222C14.1012 7.9943 14.7167 7.38074 15.477 7.38074C16.2373 7.38074 16.8528 7.9943 16.8528 8.75222V14.3465Z" fill="#0D002C"/>
<path d="M20.6189 32.4087C19.8586 34.502 17.8493 35.9998 15.496 35.9998C14.0659 35.9998 12.6539 35.4223 11.6583 34.3937C11.079 33.8523 10.6445 33.1305 10.3911 32.3906C10.6264 32.4267 10.8618 32.4448 11.1152 32.4809C11.5316 32.535 11.966 32.5891 12.4005 32.6252C13.4323 32.7154 14.4823 32.7696 15.5322 32.7696C16.564 32.7696 17.5958 32.7154 18.6096 32.6252C18.9897 32.5891 19.3699 32.5711 19.7319 32.5169C20.0216 32.4809 20.3112 32.4448 20.6189 32.4087Z" fill="#0D002C"/>
</svg>
