<svg width="26" height="36" viewBox="0 0 26 36" fill="none" xmlns="http://www.w3.org/2000/svg">
<path d="M3.36377 16.2812C3.36377 17.9156 4.34286 19.3268 5.75185 19.7341C6.80788 22.7131 9.59722 24.7105 12.7115 24.7105C15.8258 24.7105 18.6151 22.7131 19.671 19.7341C21.0801 19.3268 22.0592 17.9162 22.0592 16.2812C22.0592 15.178 21.5933 14.126 20.8095 13.4513L20.9244 12.824C20.9244 12.5904 20.9086 12.3622 20.8905 12.1335L20.8758 11.9512L20.7227 12.0478C18.5866 13.394 15.1259 13.9961 12.644 13.9961C10.2326 13.9961 6.83902 13.4186 4.69353 12.1281L4.53723 12.0866L4.52422 12.2662C4.51093 12.4512 4.49765 12.6357 4.49951 12.8448L4.61244 13.453C3.8293 14.1277 3.36377 15.1791 3.36377 16.2812Z" fill="#63518C"/>
<path d="M19.9295 26.795C19.2628 26.3752 18.6332 25.9789 18.1234 25.5695L18.0586 25.5176L17.9913 25.5662C17.5148 25.9117 15.8322 27.6875 14.4609 29.1642L13.7035 27.6684L14.0977 27.3818V25.9155H11.3251V27.3818L11.7193 27.6684L10.9617 29.1648C9.58997 27.6876 7.90656 25.9118 7.43051 25.5662L7.36318 25.5176L7.29835 25.5695C6.78853 25.9789 6.1588 26.3752 5.49225 26.795C3.41444 28.1035 1.05957 29.5862 1.05957 32.2333C1.05957 33.7973 4.67432 36.0005 12.711 36.0005C20.7475 36.0005 24.3623 33.7973 24.3623 32.2333C24.3622 29.5862 22.0072 28.1035 19.9295 26.795Z" fill="#63518C"/>
<path d="M4.39719 9.26887C4.39719 10.5801 8.2802 12.2435 12.6442 12.2435C17.0083 12.2435 20.8913 10.5802 20.8913 9.26887V7.46142L23.9014 6.21675V10.1516C23.5508 10.2073 23.2812 10.5162 23.2812 10.8863C23.2812 11.203 23.4864 11.4792 23.7823 11.5791L23.1835 15.5947H26L25.4014 11.5791C25.6969 11.4791 25.9018 11.2029 25.9018 10.8863C25.9018 10.514 25.6306 10.2045 25.2781 10.1505L25.2636 5.42566C25.2883 5.382 25.2883 5.33665 25.2883 5.31267C25.2883 5.28862 25.2883 5.24391 25.278 5.24391H25.2778C25.2597 5.07192 25.1387 4.91962 24.9623 4.8465L24.1648 4.51462L13.7993 0.227672C13.4402 0.0786094 13.0409 0 12.6442 0C12.2476 0 11.8484 0.0786094 11.4894 0.227672L0.326109 4.84706C0.128008 4.92947 0 5.11235 0 5.31267C0 5.5125 0.12787 5.69538 0.326317 5.77884L4.39719 7.46128V9.26887Z" fill="#63518C"/>
</svg>
