<svg width="64" height="50" viewBox="0 0 64 50" fill="none" xmlns="http://www.w3.org/2000/svg">
<path d="M11 40.4437V8.77703C11 7.87981 11.3084 7.12825 11.9251 6.52236C12.5419 5.91647 13.3042 5.61247 14.2122 5.61036C15.1202 5.60825 15.8837 5.91225 16.5026 6.52236C17.1215 7.13247 17.4288 7.88403 17.4245 8.77703V40.4437C17.4245 41.3409 17.1161 42.0935 16.4993 42.7015C15.8826 43.3095 15.1202 43.6125 14.2122 43.6103C13.3042 43.6082 12.5419 43.3042 11.9251 42.6983C11.3084 42.0925 11 41.3409 11 40.4437ZM28.7476 40.7603C27.6769 41.3937 26.5933 41.3937 25.4968 40.7603C24.4004 40.127 23.8511 39.2034 23.8489 37.9895V11.2312C23.8489 10.0173 24.3982 9.09369 25.4968 8.46036C26.5954 7.82703 27.679 7.82703 28.7476 8.46036L51.3939 21.9187C52.4646 22.552 53 23.4492 53 24.6104C53 25.7715 52.4646 26.6687 51.3939 27.302L28.7476 40.7603Z" fill="#F5F5F5"/>
</svg>
