<svg width="32" height="32" viewBox="0 0 32 32" fill="none" xmlns="http://www.w3.org/2000/svg">
<path fill-rule="evenodd" clip-rule="evenodd" d="M15.46 22.535C15.07 22.145 15.07 21.512 15.46 21.121L19.59 17H9C8.45 17 8 16.553 8 16C8 15.447 8.45 15 9 15H19.59L15.46 10.879C15.07 10.488 15.07 9.854 15.46 9.465C15.86 9.074 16.49 9.074 16.88 9.465L22.54 15.121C22.78 15.361 22.85 15.689 22.79 16C22.85 16.311 22.78 16.639 22.54 16.879L16.88 22.535C16.49 22.926 15.86 22.926 15.46 22.535ZM32 16C32 7.163 24.84 0 16 0C7.16 0 0 7.163 0 16C0 24.837 7.16 32 16 32C24.84 32 32 24.837 32 16Z" fill="black"/>
</svg>
