<svg width="24" height="24" viewBox="0 0 24 24" fill="none" xmlns="http://www.w3.org/2000/svg">
<mask id="mask0_2193_120884" style="mask-type:luminance" maskUnits="userSpaceOnUse" x="0" y="0" width="24" height="24">
<path d="M0 0H24V24H0V0Z" fill="white"/>
</mask>
<g mask="url(#mask0_2193_120884)">
<path d="M9.73139 0.043541C4.33304 0.102839 0.00452707 4.53676 0.0648315 9.94518C0.122902 15.3525 4.54857 19.6891 9.94692 19.6298C11.9403 19.6085 13.8801 18.9764 15.505 17.8173L21.0887 23.4103C21.7275 24.0424 22.7582 24.0357 23.3892 23.3946C24.0146 22.7602 24.0146 21.7399 23.3892 21.1055L17.8066 15.5125C20.9357 11.1054 19.9049 4.98988 15.505 1.85493C13.8198 0.65554 11.7985 0.0211644 9.73139 0.043541ZM9.61413 1.73857C14.0722 1.61326 17.7876 5.13309 17.9127 9.60058C17.9149 9.6789 17.916 9.75721 17.916 9.83553C17.9183 14.3041 14.3033 17.928 9.84418 17.9303C5.38389 17.9325 1.76675 14.312 1.76452 9.84336C1.76452 9.84113 1.76452 9.83889 1.76452 9.83553C1.75894 5.45196 5.23983 1.86164 9.61413 1.73857Z" fill="#0D002C"/>
</g>
<path d="M7.65983 3.83495C8.10206 3.67719 8.58785 3.90655 8.74643 4.34961C8.90389 4.78931 8.6783 5.27376 8.24166 5.43599C6.39456 6.10953 5.16614 7.86833 5.16614 9.83635C5.16614 10.3074 4.78533 10.6878 4.31629 10.6878C3.84614 10.6878 3.46533 10.3074 3.46533 9.83635C3.46645 7.15228 5.14157 4.75351 7.65983 3.83495Z" fill="#0D002C"/>
</svg>
