<svg width="37" height="34" viewBox="0 0 37 34" fill="none" xmlns="http://www.w3.org/2000/svg">
<path d="M33.0637 11.9931C29.8073 11.9931 28.476 9.68771 30.0952 6.86005C31.0307 5.22109 30.473 3.13186 28.8358 2.19531L25.7234 0.412264C24.3021 -0.434233 22.467 0.0700636 21.6214 1.4929L21.4235 1.8351C19.8043 4.66276 17.1417 4.66276 15.5045 1.8351L15.3066 1.4929C14.497 0.0700636 12.6619 -0.434233 11.2406 0.412264L8.12819 2.19531C6.491 3.13186 5.93328 5.2391 6.86882 6.87806C8.506 9.68771 7.17466 11.9931 3.91829 11.9931C2.04723 11.9931 0.5 13.524 0.5 15.4151V18.5849C0.5 20.458 2.02924 22.0069 3.91829 22.0069C7.17466 22.0069 8.506 24.3123 6.86882 27.1399C5.93328 28.7789 6.491 30.8681 8.12819 31.8047L11.2406 33.5877C12.6619 34.4342 14.497 33.9299 15.3426 32.5071L15.5405 32.1649C17.1597 29.3372 19.8223 29.3372 21.4595 32.1649L21.6574 32.5071C22.503 33.9299 24.3381 34.4342 25.7594 33.5877L28.8718 31.8047C30.509 30.8681 31.0667 28.7609 30.1312 27.1399C28.494 24.3123 29.8253 22.0069 33.0817 22.0069C34.9528 22.0069 36.5 20.476 36.5 18.5849V15.4151C36.482 13.542 34.9528 11.9931 33.0637 11.9931ZM18.491 22.8534C15.2706 22.8534 12.6439 20.2239 12.6439 17C12.6439 13.7761 15.2706 11.1466 18.491 11.1466C21.7114 11.1466 24.3381 13.7761 24.3381 17C24.3381 20.2239 21.7114 22.8534 18.491 22.8534Z" fill="#63518C"/>
</svg>
