<svg width="18" height="18" viewBox="0 0 18 18" fill="none" xmlns="http://www.w3.org/2000/svg">
<path d="M13.9167 18C13.7029 18 13.49 17.9314 13.3069 17.7947L9.00011 14.5662L4.69336 17.7947C4.51492 17.9289 4.30049 18.0007 4.08068 17.9999C3.86086 17.9991 3.64691 17.9257 3.46936 17.7903C3.29159 17.6556 3.15899 17.4658 3.09046 17.2478C3.02192 17.0298 3.02094 16.7947 3.08766 16.5761L4.69389 11.1573L0.425786 8.01354C0.248901 7.87708 0.117535 7.68595 0.0502711 7.46717C-0.016993 7.24839 -0.0167505 7.01305 0.0509642 6.79442C0.119353 6.57642 0.251482 6.38635 0.428721 6.25102C0.605959 6.1157 0.819364 6.04194 1.03884 6.04015L6.325 6.03185L8.008 0.74754C8.07745 0.529851 8.21066 0.340519 8.38877 0.206356C8.56687 0.0721933 8.78084 0 9.00037 0C9.21991 0 9.43388 0.0721933 9.61198 0.206356C9.79009 0.340519 9.9233 0.529851 9.99275 0.74754L11.6472 6.03185L16.9603 6.04015C17.1801 6.04145 17.3939 6.11511 17.5713 6.25066C17.7488 6.38621 17.8809 6.57677 17.9488 6.79525C18.0167 7.01374 18.0171 7.24905 17.9498 7.46775C17.8825 7.68645 17.751 7.87742 17.5739 8.01354L13.3058 11.1573L14.912 16.5761C14.9788 16.7947 14.9779 17.0297 14.9095 17.2477C14.841 17.4657 14.7085 17.6556 14.5309 17.7903C14.3527 17.9267 14.1376 18.0002 13.9167 18Z" fill="#FFAC33"/>
</svg>
