<svg width="131" height="130" viewBox="0 0 131 130" fill="none" xmlns="http://www.w3.org/2000/svg">
<ellipse opacity="0.5" cx="65.5008" cy="64.9048" rx="64.9286" ry="64.9048" fill="#F5F5F5"/>
<path d="M48.222 42.7528L48.222 86.5648C48.2235 87.0084 48.3473 87.4432 48.5802 87.8224C48.8132 88.2016 49.1464 88.5109 49.544 88.7169C49.9416 88.923 50.3886 89.018 50.8368 88.9917C51.2851 88.9655 51.7176 88.819 52.0878 88.568L84.1173 66.662C85.4453 65.7541 85.4453 63.5684 84.1173 62.658L52.0878 40.752C51.7183 40.4985 51.2856 40.3498 50.8367 40.3221C50.3877 40.2944 49.9396 40.3888 49.5412 40.5951C49.1427 40.8013 48.809 41.1115 48.5765 41.4919C48.3439 41.8723 48.2213 42.3084 48.222 42.7528Z" fill="#F5F5F5"/>
</svg>
