<svg width="25" height="24" viewBox="0 0 25 24" fill="none" xmlns="http://www.w3.org/2000/svg">
<path d="M1.25 12.6382C1.7625 13.0047 2.45 13.1817 3.125 13.1817C3.8125 13.1817 4.4875 13.0047 5 12.6382C5.775 12.0569 6.25 11.1596 6.25 10.1106C6.25 11.1596 6.7125 12.0569 7.5 12.6382C8.0125 13.0047 8.7 13.1817 9.375 13.1817C10.0625 13.1817 10.7375 13.0047 11.25 12.6382C12.025 12.0569 12.5 11.1596 12.5 10.1106C12.5 11.1596 12.9625 12.0569 13.75 12.6382C14.2625 13.0047 14.95 13.1817 15.6375 13.1817C16.3125 13.1817 16.9875 13.0047 17.5 12.6382C18.275 12.0569 18.75 11.1596 18.75 10.1106C18.75 11.1596 19.2125 12.0569 20 12.6382C20.5125 13.0047 21.2 13.1817 21.875 13.1817C22.5625 13.1817 23.2375 13.0047 23.75 12.6382C24.5375 12.0569 25 11.1596 25 10.1106V8.84676L21.25 0H5L0 8.84676V10.1106C0 11.1596 0.4625 12.0569 1.25 12.6382ZM3.75 24H10V17.6809H15V24H21.25V15.1532C20.7875 15.09 20.35 14.8752 20 14.6098C19.2125 14.0411 18.75 13.6872 18.75 12.6382C18.75 13.6872 18.275 14.0411 17.5 14.6098C16.9875 14.9889 16.3125 15.1532 15.6375 15.1659C14.95 15.1659 14.2625 14.9889 13.75 14.6098C12.9625 14.0411 12.5 13.6872 12.5 12.6382C12.5 13.6872 12.025 14.0411 11.25 14.6098C10.7375 14.9889 10.0625 15.1532 9.375 15.1659C8.7 15.1659 8.0125 14.9889 7.5 14.6098C6.7125 14.0411 6.25 13.6872 6.25 12.6256C6.25 13.6872 5.775 14.0411 5 14.6098C4.6375 14.8752 4.2125 15.09 3.75 15.1659V24Z" fill="#63518C"/>
</svg>
