<svg width="23" height="36" viewBox="0 0 23 36" fill="none" xmlns="http://www.w3.org/2000/svg">
<path d="M14.7443 6.26599C16.4843 6.26599 17.8947 4.86302 17.8947 3.13299C17.8947 1.40231 16.4843 0 14.7443 0C13.0045 0 11.5928 1.40231 11.5928 3.13299C11.5928 4.86302 13.0045 6.26599 14.7443 6.26599Z" fill="#63518C"/>
<path d="M17.9848 6.79793H16.2613L14.7436 9.2674L13.2323 6.79793H11.4381C11.4381 6.79793 7.28774 6.74393 6.98717 10.3037L6.98732 10.3043V10.7694L5.36602 9.66777L5.17663 9.5366C4.83025 9.2693 4.57314 9.16247 4.23219 9.14745L1.04669 0.832031L0.5 1.03914L3.63772 9.2298C3.47486 9.29379 3.32329 9.38736 3.19195 9.51918C2.64651 10.0578 2.65912 10.9435 3.21094 11.4921C3.21343 11.4946 4.11118 12.0991 4.11118 12.0991L5.365 12.9322L7.7489 14.5109C7.90868 14.6089 8.14123 14.6715 8.36587 14.6716L8.36609 14.6723C9.1224 14.6723 9.73988 14.0565 9.73988 13.302C9.73988 13.2976 9.73988 13.2926 9.73988 13.29V10.8645H10.6376L10.6351 16.7022H18.8891L18.8865 10.9001H19.7477V18.2802H19.749C19.7477 18.301 19.7477 18.3255 19.7477 18.3412C19.7477 19.1026 20.3626 19.714 21.1228 19.714C21.8816 19.714 22.499 19.1001 22.499 18.3412C22.499 18.3255 22.4965 18.301 22.4965 18.2802H22.499V10.3025C22.5002 10.3025 22.6668 6.88392 17.9848 6.79793ZM14.744 15.1642L13.8336 10.553L14.744 9.3961L15.7869 10.553L14.744 15.1642Z" fill="#63518C"/>
<path d="M10.6152 17.6729L10.6089 34.158C10.6089 35.1725 11.4397 35.9986 12.4598 35.9986C13.4762 35.9986 14.2982 35.185 14.3134 34.1794L14.3272 34.1657V19.1456H15.158V34.1506C15.158 35.17 15.9927 35.9999 17.0193 35.9999C18.042 35.9999 18.8779 35.17 18.8779 34.1506L18.8702 17.6791L10.6152 17.6729Z" fill="#63518C"/>
<path d="M15.5403 16.9287H13.9468V17.4793H15.5403V16.9287Z" fill="#63518C"/>
</svg>
