<svg width="49" height="50" viewBox="0 0 49 50" fill="none" xmlns="http://www.w3.org/2000/svg">
<path d="M8.16536 40.944C7.04245 40.944 6.0815 40.5445 5.28253 39.7456C4.48356 38.9466 4.08339 37.985 4.08203 36.8607V12.3607C4.08203 11.2378 4.4822 10.2768 5.28253 9.47784C6.08286 8.67887 7.04381 8.2787 8.16536 8.27734H40.832C41.9549 8.27734 42.9166 8.67751 43.7169 9.47784C44.5172 10.2782 44.9167 11.2391 44.9154 12.3607V36.8607C44.9154 37.9836 44.5159 38.9452 43.7169 39.7456C42.9179 40.5459 41.9563 40.9454 40.832 40.944H8.16536ZM12.2487 32.7773H28.582V28.694H12.2487V32.7773ZM32.6654 32.7773H36.7487V28.694H32.6654V32.7773ZM12.2487 24.6107H16.332V20.5273H12.2487V24.6107ZM20.4154 24.6107H36.7487V20.5273H20.4154V24.6107Z" fill="#F5F5F5"/>
</svg>
