<svg width="723" height="1305" viewBox="0 0 723 1305" fill="none" xmlns="http://www.w3.org/2000/svg">
<path d="M294.06 -600C242.167 -511.603 160.807 -332.709 202.198 232.015C254.87 950.665 383.585 762.399 326.419 1317.08" stroke="#F7D671" stroke-width="2.33945"/>
<path d="M279.575 -469.559C227.681 -381.161 146.322 -202.267 187.712 362.456C240.385 1081.11 369.1 892.84 311.933 1447.52" stroke="#F7D671" stroke-width="2.33945"/>
<path d="M264.401 -349.445C212.507 -261.048 131.148 -82.1539 172.539 482.569C225.211 1201.22 353.926 1012.95 296.759 1567.63" stroke="#F7D671" stroke-width="2.33945"/>
<path d="M248.463 -242.586C196.57 -154.189 115.211 24.7055 156.601 589.429C209.274 1308.08 337.989 1119.81 280.822 1674.49" stroke="#F7D671" stroke-width="2.33945"/>
<path d="M232.206 -152.488C180.312 -64.0909 98.9527 114.803 140.343 679.526C193.016 1398.18 321.731 1209.91 264.564 1764.59" stroke="#F7D671" stroke-width="2.33945"/>
<path d="M214.254 -82.5156C162.361 5.88172 81.0015 184.776 122.392 749.499C175.065 1468.15 303.78 1279.88 246.613 1834.56" stroke="#F7D671" stroke-width="2.33945"/>
<path d="M196.187 -35.2695C144.294 53.1278 62.9342 232.022 104.325 796.745C156.997 1515.4 285.712 1327.13 228.546 1881.81" stroke="#F7D671" stroke-width="2.33945"/>
<path d="M177.766 -10.9297C125.873 77.4677 44.5133 256.362 85.9039 821.085C138.576 1539.74 267.291 1351.47 210.125 1906.15" stroke="#F7D671" stroke-width="2.33945"/>
<path d="M159.22 -7.07812C107.327 81.3192 25.9674 260.213 67.358 824.937C120.03 1543.59 248.746 1355.32 191.579 1910" stroke="#F7D671" stroke-width="2.33945"/>
<path d="M140.705 -19.4531C88.8112 68.9442 7.45173 247.838 48.8424 812.562C101.515 1531.21 230.23 1342.95 173.063 1897.62" stroke="#F7D671" stroke-width="2.33945"/>
<path d="M122.278 -43.2656C70.3844 45.1317 -10.975 224.026 30.4156 788.749C83.0881 1507.4 211.803 1319.13 154.636 1873.81" stroke="#F7D671" stroke-width="2.33945"/>
<path d="M103.934 -74.1016C52.0407 14.2958 -29.3188 193.19 12.0719 757.913C64.7444 1476.56 193.459 1288.3 136.293 1842.97" stroke="#F7D671" stroke-width="2.33945"/>
<path d="M85.6363 -108.355C33.7428 -19.9581 -47.6166 158.936 -6.22599 723.659C46.4465 1442.31 175.162 1254.04 117.995 1808.72" stroke="#F7D671" stroke-width="2.33945"/>
<path d="M67.3472 -143.172C15.4537 -54.7745 -65.9057 124.12 -24.5151 688.843C28.1574 1407.49 156.872 1219.23 99.7058 1773.9" stroke="#F7D671" stroke-width="2.33945"/>
<path d="M49.0367 -176.445C-2.85681 -88.048 -84.2162 90.8461 -42.8256 655.569C9.84689 1374.22 138.562 1185.95 81.3952 1740.63" stroke="#F7D671" stroke-width="2.33945"/>
<path d="M30.6832 -206.59C-21.2103 -118.192 -102.57 60.7016 -61.1791 625.425C-8.50662 1344.07 120.208 1155.81 63.0417 1710.49" stroke="#F7D671" stroke-width="2.33945"/>
<path d="M12.2779 -232.508C-39.6156 -144.11 -120.975 34.7836 -79.5844 599.507C-26.9119 1318.16 101.803 1129.89 44.6364 1684.57" stroke="#F7D671" stroke-width="2.33945"/>
<path d="M-6.17621 -253.438C-58.0697 -165.04 -139.429 13.854 -98.0385 578.577C-45.366 1297.23 83.349 1108.96 26.1823 1663.64" stroke="#F7D671" stroke-width="2.33945"/>
<path d="M-24.7875 -269.105C-76.681 -180.708 -158.04 -1.81401 -116.65 562.909C-63.9773 1281.56 64.7377 1093.29 7.57099 1647.97" stroke="#F7D671" stroke-width="2.33945"/>
<path d="M-43.3041 -281.164C-95.1976 -192.767 -176.557 -13.8726 -135.166 550.851C-82.4939 1269.5 46.2211 1081.23 -10.9456 1635.91" stroke="#F7D671" stroke-width="2.33945"/>
<circle cx="20.9549" cy="20.9549" r="20.9549" transform="matrix(0.684466 -0.729045 -0.729045 -0.684466 579.778 314.977)" fill="#F6C5A1"/>
<path d="M522.354 297.757C525.157 311.563 556.472 305.994 570.01 305.978L597.313 271.291C585.268 253.62 552.991 216.869 545.852 224.473C540.549 230.121 547.676 235.915 553.845 241.456C546.854 235.307 535.213 228.18 531.325 232.321C525.428 238.602 539.63 247.163 544.358 253.988C538.413 247.611 524.103 237.472 520.531 241.277C514.577 247.618 528.848 257.834 534.792 264.211C527.234 258.706 519.495 247.463 513.542 253.804C507.588 260.146 531.225 279.837 544.253 289.682C535.659 290.364 520.587 289.054 522.354 297.757Z" fill="#F6C5A1"/>
<path d="M576.664 278.625C571.055 275.113 565.484 275.01 558.444 276.902C552.429 278.52 546.003 286.273 545.45 288.587" stroke="black" stroke-width="6" stroke-linecap="round"/>
<path d="M554.179 240.962C554.608 241.339 555.019 241.712 555.409 242.079C555.006 241.708 554.595 241.336 554.179 240.962Z" fill="#F6C5A1"/>
<path d="M565.942 304.568C552.404 304.584 525.492 311.069 522.689 297.263C520.922 288.56 535.994 289.87 544.587 289.188C531.559 279.343 507.922 259.652 513.876 253.31C519.83 246.969 527.569 258.212 535.127 263.717C529.182 257.34 514.912 247.124 520.866 240.783C524.438 236.978 538.748 247.117 544.692 253.494C539.965 246.668 525.763 238.108 531.66 231.827C535.786 227.432 548.645 235.728 555.409 242.079C549.028 236.202 540.526 230.008 546.187 223.979C553.326 216.375 585.408 255.372 597.452 273.043" stroke="black" stroke-width="6" stroke-linecap="round" stroke-linejoin="round"/>
<ellipse cx="347.026" cy="403.961" rx="21.8403" ry="21.8403" transform="rotate(162.629 347.026 403.961)" fill="#F6C5A1"/>
<path d="M380.763 357.378C391.969 365.915 374.409 387.315 368.497 399.493L326.395 414.126C315.735 395.587 294.606 349.721 304.561 346.607C311.955 344.294 314.065 353.233 316.367 361.199C313.876 352.228 312.532 338.645 317.953 336.949C326.175 334.377 327.695 350.89 331.779 358.118C328.629 349.99 325.735 332.692 330.716 331.134C339.018 328.537 341.998 345.833 345.148 353.961C343.485 344.76 336.736 332.896 345.037 330.3C353.339 327.703 360.768 357.557 363.955 373.572C368.312 366.133 373.698 351.996 380.763 357.378Z" fill="#F6C5A1"/>
<path d="M316.402 361.313C316.555 361.862 316.712 362.395 316.872 362.906C316.713 362.382 316.557 361.849 316.402 361.313Z" fill="#F6C5A1"/>
<path d="M368.533 399.607C374.445 387.428 392.005 366.028 380.798 357.491C373.734 352.109 368.347 366.247 363.991 373.686C360.803 357.67 353.375 327.816 345.073 330.413C336.771 333.01 343.521 344.873 345.184 354.075C342.033 345.946 339.053 328.65 330.752 331.247C325.771 332.805 328.664 350.103 331.815 358.232C327.73 351.003 326.211 334.491 317.989 337.063C312.235 338.862 314.102 354.051 316.872 362.906C314.361 354.602 312.489 344.251 304.596 346.72C294.642 349.834 315.77 395.7 326.43 414.239" stroke="black" stroke-width="6" stroke-linecap="round" stroke-linejoin="round"/>
<mask id="path-30-inside-1_2472_35430" fill="white">
<path fill-rule="evenodd" clip-rule="evenodd" d="M547.478 431.532C546.8 431.947 546.135 432.396 545.486 432.88C533.899 441.507 531.5 457.893 540.128 469.479C548.599 480.857 564.552 483.375 576.095 475.294L576.102 475.303L670.588 404.95C671.168 404.585 671.738 404.194 672.298 403.777C683.884 395.15 686.283 378.764 677.656 367.178C669.417 356.113 654.102 353.427 642.649 360.722L642.624 360.687L642.045 361.118C641.711 361.343 641.382 361.577 641.056 361.82C640.73 362.062 640.412 362.311 640.101 362.566L547.478 431.532Z"/>
</mask>
<path fill-rule="evenodd" clip-rule="evenodd" d="M547.478 431.532C546.8 431.947 546.135 432.396 545.486 432.88C533.899 441.507 531.5 457.893 540.128 469.479C548.599 480.857 564.552 483.375 576.095 475.294L576.102 475.303L670.588 404.95C671.168 404.585 671.738 404.194 672.298 403.777C683.884 395.15 686.283 378.764 677.656 367.178C669.417 356.113 654.102 353.427 642.649 360.722L642.624 360.687L642.045 361.118C641.711 361.343 641.382 361.577 641.056 361.82C640.73 362.062 640.412 362.311 640.101 362.566L547.478 431.532Z" fill="#F6C5A1"/>
<path d="M547.478 431.532L550.681 436.766L550.919 436.621L551.143 436.454L547.478 431.532ZM576.095 475.294L581.017 471.629L577.458 466.849L572.576 470.267L576.095 475.294ZM576.102 475.303L571.18 478.968L574.845 483.89L579.767 480.225L576.102 475.303ZM670.588 404.95L667.318 399.757L667.115 399.885L666.923 400.028L670.588 404.95ZM642.649 360.722L637.727 364.386L641.134 368.962L645.945 365.897L642.649 360.722ZM642.624 360.687L647.545 357.022L643.881 352.1L638.959 355.765L642.624 360.687ZM642.045 361.118L645.481 366.202L645.597 366.124L645.709 366.04L642.045 361.118ZM640.101 362.566L643.766 367.488L643.878 367.404L643.986 367.315L640.101 362.566ZM544.275 426.298C543.439 426.81 542.62 427.363 541.821 427.958L549.15 437.802C549.651 437.429 550.162 437.084 550.681 436.766L544.275 426.298ZM541.821 427.958C527.516 438.609 524.555 458.84 535.206 473.144L545.049 465.815C538.446 456.947 540.282 444.405 549.15 437.802L541.821 427.958ZM535.206 473.144C545.665 487.191 565.36 490.3 579.614 480.321L572.576 470.267C563.744 476.45 551.533 474.522 545.049 465.815L535.206 473.144ZM581.024 471.639L581.017 471.629L571.173 478.959L571.18 478.968L581.024 471.639ZM666.923 400.028L572.437 470.382L579.767 480.225L674.252 409.872L666.923 400.028ZM673.857 410.143C674.572 409.693 675.275 409.211 675.962 408.699L668.633 398.856C668.202 399.176 667.763 399.477 667.318 399.757L673.857 410.143ZM675.962 408.699C690.267 398.048 693.229 377.818 682.578 363.513L672.734 370.843C679.337 379.711 677.501 392.252 668.633 398.856L675.962 408.699ZM682.578 363.513C672.404 349.85 653.498 346.537 639.353 355.546L645.945 365.897C654.706 360.318 666.43 362.376 672.734 370.843L682.578 363.513ZM637.702 364.352L637.727 364.386L647.571 357.057L647.545 357.022L637.702 364.352ZM645.709 366.04L646.288 365.609L638.959 355.765L638.38 356.196L645.709 366.04ZM638.608 356.035C638.197 356.312 637.792 356.6 637.391 356.898L644.721 366.742C644.972 366.555 645.225 366.375 645.481 366.202L638.608 356.035ZM637.391 356.898C636.991 357.196 636.599 357.502 636.216 357.816L643.986 367.315C644.225 367.12 644.47 366.929 644.721 366.742L637.391 356.898ZM551.143 436.454L643.766 367.488L636.436 357.644L543.813 426.61L551.143 436.454Z" fill="black" mask="url(#path-30-inside-1_2472_35430)"/>
<mask id="path-32-inside-2_2472_35430" fill="white">
<path fill-rule="evenodd" clip-rule="evenodd" d="M583.632 480.598C568.314 491.057 547.334 487.647 536.154 472.633C524.974 457.618 527.722 436.541 542.133 424.864L542.115 424.84L596.154 384.603L637.688 440.385L584.872 479.712C584.852 479.726 584.832 479.741 584.812 479.756C584.792 479.771 584.772 479.786 584.752 479.801L583.65 480.621L583.632 480.598Z"/>
</mask>
<path fill-rule="evenodd" clip-rule="evenodd" d="M583.632 480.598C568.314 491.057 547.334 487.647 536.154 472.633C524.974 457.618 527.722 436.541 542.133 424.864L542.115 424.84L596.154 384.603L637.688 440.385L584.872 479.712C584.852 479.726 584.832 479.741 584.812 479.756C584.792 479.771 584.772 479.786 584.752 479.801L583.65 480.621L583.632 480.598Z" fill="#F9F9F9"/>
<path d="M583.632 480.598L588.554 476.933L585.037 472.208L580.172 475.53L583.632 480.598ZM542.133 424.864L545.996 429.631L550.573 425.923L547.055 421.199L542.133 424.864ZM542.115 424.84L538.451 419.918L533.529 423.583L537.193 428.505L542.115 424.84ZM596.154 384.603L601.076 380.938L597.411 376.016L592.489 379.681L596.154 384.603ZM637.688 440.385L641.353 445.306L646.275 441.642L642.61 436.72L637.688 440.385ZM584.872 479.712L581.207 474.79L581.197 474.797L584.872 479.712ZM584.752 479.801L581.098 474.871L581.087 474.879L584.752 479.801ZM583.65 480.621L578.728 484.286L582.393 489.208L587.315 485.543L583.65 480.621ZM580.172 475.53C567.561 484.141 550.282 481.331 541.076 468.968L531.232 476.298C544.386 493.963 569.067 497.973 587.093 485.665L580.172 475.53ZM541.076 468.968C531.87 456.604 534.132 439.245 545.996 429.631L538.27 420.096C521.312 433.837 518.079 458.632 531.232 476.298L541.076 468.968ZM547.055 421.199L547.037 421.175L537.193 428.505L537.211 428.528L547.055 421.199ZM545.78 429.762L599.818 389.525L592.489 379.681L538.451 419.918L545.78 429.762ZM591.232 388.268L632.766 444.049L642.61 436.72L601.076 380.938L591.232 388.268ZM634.024 435.463L581.207 474.79L588.537 484.633L641.353 445.306L634.024 435.463ZM581.197 474.797C581.18 474.81 581.164 474.822 581.147 474.834L588.477 484.678C588.5 484.661 588.524 484.643 588.547 484.626L581.197 474.797ZM581.147 474.834C581.131 474.846 581.114 474.859 581.098 474.871L588.407 484.73C588.43 484.713 588.454 484.695 588.477 484.678L581.147 474.834ZM581.087 474.879L579.985 475.699L587.315 485.543L588.417 484.722L581.087 474.879ZM588.572 476.956L588.554 476.933L578.71 484.262L578.728 484.286L588.572 476.956Z" fill="black" mask="url(#path-32-inside-2_2472_35430)"/>
<path fill-rule="evenodd" clip-rule="evenodd" d="M667.309 358.46L668.408 357.544L598.728 273.9C598.361 273.383 597.972 272.877 597.56 272.382C589.015 262.125 573.774 260.737 563.517 269.282C553.722 277.442 552.015 291.709 559.323 301.91L559.293 301.935L559.719 302.447C559.944 302.743 560.177 303.036 560.417 303.324C560.657 303.613 560.903 303.895 561.154 304.169L631.343 388.422L632.33 387.599C640.552 396.167 654.123 397.032 663.387 389.315C672.65 381.598 674.251 368.094 667.309 358.46Z" fill="#F6C5A1"/>
<path d="M671.049 360.598L594.131 268.267C589.645 264.451 577.468 259.144 564.643 268.434C551.818 277.723 554.096 292.905 556.838 299.334L633.756 391.665" stroke="black" stroke-width="6.13645"/>
<mask id="path-36-inside-3_2472_35430" fill="white">
<path fill-rule="evenodd" clip-rule="evenodd" d="M456.417 446.036C456.865 445.379 457.286 444.696 457.68 443.988C464.696 431.362 460.149 415.438 447.522 408.421C435.124 401.53 419.545 405.791 412.343 417.902L412.333 417.896L355.11 520.865C354.731 521.437 354.372 522.027 354.033 522.637C347.016 535.264 351.563 551.188 364.19 558.205C376.248 564.906 391.314 561.06 398.757 549.704L398.794 549.724L399.145 549.093C399.356 548.751 399.561 548.403 399.758 548.048C399.955 547.693 400.143 547.335 400.322 546.975L456.417 446.036Z"/>
</mask>
<path fill-rule="evenodd" clip-rule="evenodd" d="M456.417 446.036C456.865 445.379 457.286 444.696 457.68 443.988C464.696 431.362 460.149 415.438 447.522 408.421C435.124 401.53 419.545 405.791 412.343 417.902L412.333 417.896L355.11 520.865C354.731 521.437 354.372 522.027 354.033 522.637C347.016 535.264 351.563 551.188 364.19 558.205C376.248 564.906 391.314 561.06 398.757 549.704L398.794 549.724L399.145 549.093C399.356 548.751 399.561 548.403 399.758 548.048C399.955 547.693 400.143 547.335 400.322 546.975L456.417 446.036Z" fill="#F6C5A1"/>
<path d="M456.417 446.036L451.346 442.581L451.189 442.811L451.053 443.055L456.417 446.036ZM412.343 417.902L409.362 423.266L414.572 426.161L417.618 421.038L412.343 417.902ZM412.333 417.896L415.314 412.532L409.95 409.551L406.969 414.915L412.333 417.896ZM355.11 520.865L360.225 524.256L360.357 524.056L360.474 523.846L355.11 520.865ZM398.757 549.704L401.738 544.34L396.752 541.569L393.625 546.34L398.757 549.704ZM398.794 549.724L395.814 555.088L401.177 558.069L404.158 552.705L398.794 549.724ZM399.145 549.093L393.923 545.871L393.849 545.99L393.781 546.112L399.145 549.093ZM400.322 546.975L394.958 543.994L394.89 544.117L394.828 544.242L400.322 546.975ZM461.489 449.491C462.04 448.681 462.559 447.84 463.043 446.969L452.316 441.008C452.013 441.553 451.689 442.077 451.346 442.581L461.489 449.491ZM463.043 446.969C471.707 431.38 466.092 411.72 450.503 403.057L444.542 413.784C454.206 419.155 457.686 431.343 452.316 441.008L463.043 446.969ZM450.503 403.057C435.195 394.549 415.963 399.81 407.069 414.765L417.618 421.038C423.128 411.772 435.053 408.511 444.542 413.784L450.503 403.057ZM409.352 423.26L409.362 423.266L415.324 412.538L415.314 412.532L409.352 423.26ZM360.474 523.846L417.697 420.877L406.969 414.915L349.746 517.884L360.474 523.846ZM349.995 517.474C349.528 518.179 349.086 518.907 348.669 519.656L359.397 525.618C359.658 525.148 359.934 524.694 360.225 524.256L349.995 517.474ZM348.669 519.656C340.006 535.245 345.62 554.905 361.209 563.569L367.171 552.841C357.507 547.47 354.026 535.282 359.397 525.618L348.669 519.656ZM361.209 563.569C376.099 571.843 394.696 567.094 403.889 553.067L393.625 546.34C387.931 555.027 376.398 557.969 367.171 552.841L361.209 563.569ZM401.775 544.361L401.738 544.34L395.776 555.067L395.814 555.088L401.775 544.361ZM393.781 546.112L393.431 546.744L404.158 552.705L404.509 552.074L393.781 546.112ZM404.368 552.315C404.628 551.894 404.879 551.465 405.122 551.028L394.394 545.067C394.242 545.34 394.085 545.608 393.923 545.871L404.368 552.315ZM405.122 551.028C405.364 550.592 405.596 550.152 405.816 549.709L394.828 544.242C394.691 544.518 394.546 544.793 394.394 545.067L405.122 551.028ZM451.053 443.055L394.958 543.994L405.686 549.956L461.781 449.017L451.053 443.055Z" fill="black" mask="url(#path-36-inside-3_2472_35430)"/>
<mask id="path-38-inside-4_2472_35430" fill="white">
<path fill-rule="evenodd" clip-rule="evenodd" d="M403.291 416.163C412.958 400.332 433.486 394.818 449.848 403.911C466.211 413.004 472.368 433.348 464.03 449.917L464.056 449.931L431.329 508.821L370.539 475.039L402.526 417.48C402.538 417.458 402.55 417.436 402.562 417.415C402.574 417.393 402.586 417.371 402.598 417.349L403.266 416.148L403.291 416.163Z"/>
</mask>
<path fill-rule="evenodd" clip-rule="evenodd" d="M403.291 416.163C412.958 400.332 433.486 394.818 449.848 403.911C466.211 413.004 472.368 433.348 464.03 449.917L464.056 449.931L431.329 508.821L370.539 475.039L402.526 417.48C402.538 417.458 402.55 417.436 402.562 417.415C402.574 417.393 402.586 417.371 402.598 417.349L403.266 416.148L403.291 416.163Z" fill="#F9F9F9"/>
<path d="M403.291 416.163L400.311 421.526L405.459 424.388L408.529 419.361L403.291 416.163ZM464.03 449.917L458.548 447.158L455.9 452.419L461.049 455.28L464.03 449.917ZM464.056 449.931L469.419 452.912L472.4 447.548L467.036 444.567L464.056 449.931ZM431.329 508.821L428.348 514.185L433.712 517.166L436.692 511.802L431.329 508.821ZM370.539 475.039L365.175 472.058L362.194 477.422L367.558 480.402L370.539 475.039ZM402.526 417.48L407.889 420.461L407.896 420.449L402.526 417.48ZM402.598 417.349L407.956 420.342L407.962 420.33L402.598 417.349ZM403.266 416.148L406.246 410.784L400.883 407.804L397.902 413.167L403.266 416.148ZM408.529 419.361C416.487 406.327 433.394 401.787 446.867 409.275L452.829 398.547C433.578 387.849 409.429 394.337 398.054 412.965L408.529 419.361ZM446.867 409.275C460.341 416.762 465.413 433.517 458.548 447.158L469.511 452.675C479.323 433.179 472.08 409.246 452.829 398.547L446.867 409.275ZM461.049 455.28L461.075 455.295L467.036 444.567L467.01 444.553L461.049 455.28ZM458.692 446.95L425.965 505.84L436.692 511.802L469.419 452.912L458.692 446.95ZM434.309 503.457L373.519 469.675L367.558 480.402L428.348 514.185L434.309 503.457ZM375.902 478.019L407.889 420.461L397.162 414.499L365.175 472.058L375.902 478.019ZM407.896 420.449C407.906 420.431 407.916 420.413 407.926 420.395L397.198 414.434C397.184 414.459 397.17 414.485 397.156 414.51L407.896 420.449ZM407.926 420.395C407.936 420.377 407.946 420.359 407.956 420.342L397.24 414.357C397.226 414.383 397.212 414.408 397.198 414.434L407.926 420.395ZM407.962 420.33L408.629 419.129L397.902 413.167L397.234 414.369L407.962 420.33ZM400.285 421.512L400.311 421.526L406.272 410.799L406.246 410.784L400.285 421.512Z" fill="black" mask="url(#path-38-inside-4_2472_35430)"/>
<path d="M446.606 201.857C469.259 185.57 495.523 201.951 505.356 214.771C509.387 204.044 524.482 193.584 541.869 197.992C559.256 202.4 561.97 220.709 559.812 225.763C569.038 228.286 589.45 228.146 593.24 247.454C597.762 270.497 584.091 284.411 567.509 287.914C576.02 294.605 581.031 313.611 569.378 324.019C553.156 338.508 529.545 334.189 519.136 322.073C516.249 332.395 503.212 356.138 475.144 353.614C447.076 351.09 439.174 324.71 441.81 316.228C426.216 312.54 405.533 304.856 405.072 280.434C404.611 256.013 422.614 246.525 436.983 247.733C432.099 242.384 426.256 216.49 446.606 201.857Z" fill="black"/>
<rect x="476.298" y="341.895" width="44.0308" height="65.1657" fill="#F6C5A1"/>
<rect x="476.298" y="341.895" width="44.0308" height="26.4185" fill="black"/>
<path d="M475.967 407.06V341.895H519.998V407.06" stroke="black" stroke-width="5"/>
<mask id="path-44-inside-5_2472_35430" fill="white">
<path fill-rule="evenodd" clip-rule="evenodd" d="M452.775 299.181C452.473 297.34 452.317 295.457 452.317 293.543C452.317 271.833 472.369 254.234 497.103 254.234C520.815 254.234 540.223 270.408 541.788 290.872H542.04V350.657H542.034C542.038 350.764 542.04 350.871 542.04 350.979C542.04 362.162 522.057 379.964 497.407 379.964C472.757 379.964 452.775 362.162 452.775 350.979C452.775 350.871 452.776 350.764 452.78 350.657H452.775V299.181Z"/>
</mask>
<path fill-rule="evenodd" clip-rule="evenodd" d="M452.775 299.181C452.473 297.34 452.317 295.457 452.317 293.543C452.317 271.833 472.369 254.234 497.103 254.234C520.815 254.234 540.223 270.408 541.788 290.872H542.04V350.657H542.034C542.038 350.764 542.04 350.871 542.04 350.979C542.04 362.162 522.057 379.964 497.407 379.964C472.757 379.964 452.775 362.162 452.775 350.979C452.775 350.871 452.776 350.764 452.78 350.657H452.775V299.181Z" fill="#F6C5A1"/>
<path d="M452.775 299.181H457.775V298.774L457.709 298.373L452.775 299.181ZM541.788 290.872L536.802 291.253L537.155 295.872H541.788V290.872ZM542.04 290.872H547.04V285.872H542.04V290.872ZM542.04 350.657V355.657H547.04V350.657H542.04ZM542.034 350.657V345.657H536.86L537.037 350.829L542.034 350.657ZM452.78 350.657L457.777 350.829L457.955 345.657H452.78V350.657ZM452.775 350.657H447.775V355.657H452.775V350.657ZM457.709 298.373C457.451 296.797 457.317 295.185 457.317 293.543H447.317C447.317 295.729 447.495 297.882 447.84 299.988L457.709 298.373ZM457.317 293.543C457.317 275.188 474.497 259.234 497.103 259.234V249.234C470.24 249.234 447.317 268.479 447.317 293.543H457.317ZM497.103 259.234C518.745 259.234 535.476 273.905 536.802 291.253L546.773 290.491C544.97 266.912 522.885 249.234 497.103 249.234V259.234ZM542.04 285.872H541.788V295.872H542.04V285.872ZM547.04 350.657V290.872H537.04V350.657H547.04ZM542.034 355.657H542.04V345.657H542.034V355.657ZM547.04 350.979C547.04 350.814 547.037 350.65 547.031 350.486L537.037 350.829C537.039 350.878 537.04 350.928 537.04 350.979H547.04ZM497.407 384.964C510.915 384.964 523.081 380.1 531.899 373.715C536.313 370.519 540.004 366.859 542.635 363.084C545.213 359.384 547.04 355.178 547.04 350.979H537.04C537.04 352.371 536.369 354.584 534.43 357.367C532.543 360.076 529.698 362.963 526.035 365.615C518.699 370.927 508.549 374.964 497.407 374.964V384.964ZM447.775 350.979C447.775 355.178 449.601 359.384 452.18 363.084C454.81 366.859 458.501 370.519 462.915 373.715C471.733 380.1 483.899 384.964 497.407 384.964V374.964C486.265 374.964 476.115 370.927 468.779 365.615C465.116 362.963 462.271 360.076 460.384 357.367C458.445 354.584 457.775 352.371 457.775 350.979H447.775ZM447.783 350.486C447.777 350.65 447.775 350.814 447.775 350.979H457.775C457.775 350.928 457.775 350.878 457.777 350.829L447.783 350.486ZM452.775 355.657H452.78V345.657H452.775V355.657ZM447.775 299.181V350.657H457.775V299.181H447.775Z" fill="black" mask="url(#path-44-inside-5_2472_35430)"/>
<path d="M529.76 318.836C529.76 310.435 536.57 303.625 544.971 303.625C553.371 303.625 560.181 310.435 560.181 318.836C560.181 327.237 553.371 334.047 544.971 334.047C536.57 334.047 529.76 327.237 529.76 318.836Z" fill="#F6C5A1"/>
<path d="M540.929 304.292C543.219 303.575 545.646 303.434 548.001 303.88C550.357 304.325 552.573 305.345 554.46 306.852C556.348 308.359 557.852 310.309 558.844 312.536C559.836 314.763 560.288 317.202 560.161 319.646C560.033 322.089 559.33 324.465 558.112 326.572C556.893 328.679 555.195 330.455 553.161 331.748C551.128 333.042 548.818 333.815 546.429 334.002C544.041 334.19 541.643 333.786 539.44 332.825" stroke="black" stroke-width="5.18114" stroke-linecap="round" stroke-linejoin="round"/>
<path d="M465.699 318.836C465.699 310.435 458.889 303.625 450.488 303.625C442.088 303.625 435.278 310.435 435.278 318.836C435.278 327.237 442.088 334.047 450.488 334.047C458.889 334.047 465.699 327.237 465.699 318.836Z" fill="#F6C5A1"/>
<path d="M454.53 304.292C452.24 303.575 449.813 303.434 447.458 303.88C445.102 304.325 442.886 305.345 440.999 306.852C439.111 308.359 437.607 310.309 436.615 312.536C435.623 314.763 435.171 317.202 435.298 319.646C435.426 322.089 436.129 324.465 437.347 326.572C438.566 328.679 440.264 330.455 442.298 331.748C444.331 333.042 446.641 333.815 449.029 334.002C451.418 334.19 453.816 333.786 456.019 332.825" stroke="black" stroke-width="5.18114" stroke-linecap="round" stroke-linejoin="round"/>
<ellipse cx="517.55" cy="312.327" rx="4.95235" ry="4.95235" fill="black"/>
<ellipse cx="477.932" cy="312.327" rx="4.95235" ry="4.95235" fill="black"/>
<path d="M507.278 301.583C509.144 300.262 512.015 297.621 517.614 297.621C522.37 297.621 526.37 300.526 527.088 301.583" stroke="black" stroke-width="6.71189" stroke-linecap="round"/>
<path d="M467.66 301.583C469.526 300.262 472.397 297.621 477.995 297.621C482.752 297.621 486.751 300.526 487.469 301.583" stroke="black" stroke-width="6.71189" stroke-linecap="round"/>
<path d="M497.174 315.922V324.65C495.993 324.903 493.632 325.94 493.632 328.065C493.632 330.721 495.993 331.48 497.174 331.859" stroke="black" stroke-width="5" stroke-linecap="round"/>
<path d="M464.123 1027.74V988.188H428.986L361.415 1027.74H464.123Z" fill="#53300F" stroke="black" stroke-width="5"/>
<path d="M523.15 1028.33V988.777H558.287L625.858 1028.33H523.15Z" fill="#53300F" stroke="black" stroke-width="5"/>
<mask id="path-59-inside-6_2472_35430" fill="white">
<path fill-rule="evenodd" clip-rule="evenodd" d="M509.149 664.412C509.15 664.476 509.151 664.539 509.152 664.603C509.153 664.667 509.154 664.73 509.156 664.794L511.652 806.039C511.602 806.866 511.584 807.702 511.599 808.544C511.907 826.003 526.311 839.906 543.77 839.598C560.443 839.303 573.873 826.154 574.78 809.765L574.831 809.764L574.816 808.893C574.829 808.407 574.832 807.918 574.823 807.427C574.815 806.936 574.795 806.447 574.764 805.962L572.297 666.38C572.367 665.426 572.394 664.46 572.377 663.486C572.068 646.026 557.665 632.123 540.206 632.432C523.062 632.735 509.346 646.628 509.149 663.66L509.136 663.661L509.149 664.412Z"/>
</mask>
<path fill-rule="evenodd" clip-rule="evenodd" d="M509.149 664.412C509.15 664.476 509.151 664.539 509.152 664.603C509.153 664.667 509.154 664.73 509.156 664.794L511.652 806.039C511.602 806.866 511.584 807.702 511.599 808.544C511.907 826.003 526.311 839.906 543.77 839.598C560.443 839.303 573.873 826.154 574.78 809.765L574.831 809.764L574.816 808.893C574.829 808.407 574.832 807.918 574.823 807.427C574.815 806.936 574.795 806.447 574.764 805.962L572.297 666.38C572.367 665.426 572.394 664.46 572.377 663.486C572.068 646.026 557.665 632.123 540.206 632.432C523.062 632.735 509.346 646.628 509.149 663.66L509.136 663.661L509.149 664.412Z" fill="#5A5A5A"/>
<path d="M509.149 664.412L515.063 664.342L515.063 664.325L515.063 664.307L509.149 664.412ZM509.156 664.794L515.07 664.689L515.069 664.672L515.069 664.654L509.156 664.794ZM511.652 806.039L517.556 806.397L517.57 806.166L517.566 805.935L511.652 806.039ZM574.78 809.765L574.675 803.851L569.178 803.949L568.874 809.438L574.78 809.765ZM574.831 809.764L574.936 815.678L580.849 815.573L580.745 809.66L574.831 809.764ZM574.816 808.893L568.904 808.728L568.9 808.863L568.902 808.998L574.816 808.893ZM574.764 805.962L568.85 806.066L568.853 806.201L568.861 806.336L574.764 805.962ZM572.297 666.38L566.398 665.95L566.379 666.216L566.384 666.484L572.297 666.38ZM509.149 663.66L509.254 669.574L514.997 669.473L515.063 663.729L509.149 663.66ZM509.136 663.661L509.031 657.747L503.118 657.851L503.222 663.765L509.136 663.661ZM503.235 664.481C503.236 664.557 503.237 664.632 503.238 664.707L515.066 664.498C515.065 664.446 515.064 664.394 515.063 664.342L503.235 664.481ZM503.238 664.707C503.239 664.783 503.241 664.858 503.243 664.933L515.069 664.654C515.068 664.602 515.066 664.55 515.066 664.498L503.238 664.707ZM517.566 805.935L515.07 664.689L503.242 664.898L505.738 806.144L517.566 805.935ZM505.748 805.681C505.689 806.662 505.667 807.652 505.685 808.649L517.512 808.44C517.5 807.751 517.515 807.07 517.556 806.397L505.748 805.681ZM505.685 808.649C506.051 829.374 523.149 845.878 543.874 845.512L543.665 833.684C529.472 833.935 517.763 822.633 517.512 808.44L505.685 808.649ZM543.874 845.512C563.669 845.162 579.609 829.553 580.685 810.092L568.874 809.438C568.137 822.756 557.217 833.445 543.665 833.684L543.874 845.512ZM574.727 803.851L574.675 803.851L574.884 815.679L574.936 815.678L574.727 803.851ZM568.902 808.998L568.918 809.869L580.745 809.66L580.73 808.789L568.902 808.998ZM580.728 809.059C580.744 808.482 580.747 807.904 580.737 807.322L568.91 807.531C568.917 807.933 568.915 808.332 568.904 808.728L580.728 809.059ZM580.737 807.322C580.727 806.741 580.703 806.163 580.667 805.588L568.861 806.336C568.886 806.731 568.903 807.13 568.91 807.531L580.737 807.322ZM566.384 666.484L568.85 806.066L580.678 805.857L578.211 666.275L566.384 666.484ZM578.196 666.81C578.279 665.678 578.311 664.534 578.29 663.381L566.463 663.59C566.477 664.386 566.455 665.173 566.398 665.95L578.196 666.81ZM578.29 663.381C577.924 642.656 560.826 626.152 540.101 626.518L540.31 638.346C554.503 638.095 566.212 649.397 566.463 663.59L578.29 663.381ZM540.101 626.518C519.749 626.878 503.469 643.37 503.235 663.592L515.063 663.729C515.224 649.886 526.374 638.592 540.31 638.346L540.101 626.518ZM509.24 669.574L509.254 669.574L509.044 657.747L509.031 657.747L509.24 669.574ZM515.063 664.307L515.049 663.556L503.222 663.765L503.235 664.516L515.063 664.307Z" fill="black" mask="url(#path-59-inside-6_2472_35430)"/>
<ellipse cx="542.63" cy="826.787" rx="28.3578" ry="28.3578" fill="#5A5A5A"/>
<rect x="512.624" y="820.195" width="59.7234" height="168.266" fill="#5A5A5A"/>
<path d="M512.294 818.679V987.701H571.978V817.98" stroke="black" stroke-width="5.91463"/>
<mask id="path-64-inside-7_2472_35430" fill="white">
<path fill-rule="evenodd" clip-rule="evenodd" d="M420.684 671.98C420.684 672.04 420.684 672.1 420.684 672.16C420.684 672.22 420.684 672.281 420.684 672.341V813.618C420.619 814.445 420.586 815.28 420.586 816.122C420.586 833.584 434.742 847.74 452.204 847.74C468.879 847.74 482.54 834.83 483.736 818.459H483.788V817.588C483.81 817.102 483.821 816.614 483.821 816.122C483.821 815.631 483.81 815.142 483.788 814.656V675.053C483.874 674.1 483.918 673.136 483.918 672.16C483.918 654.699 469.763 640.543 452.301 640.543C435.154 640.543 421.196 654.192 420.697 671.218H420.684V671.98Z"/>
</mask>
<path fill-rule="evenodd" clip-rule="evenodd" d="M420.684 671.98C420.684 672.04 420.684 672.1 420.684 672.16C420.684 672.22 420.684 672.281 420.684 672.341V813.618C420.619 814.445 420.586 815.28 420.586 816.122C420.586 833.584 434.742 847.74 452.204 847.74C468.879 847.74 482.54 834.83 483.736 818.459H483.788V817.588C483.81 817.102 483.821 816.614 483.821 816.122C483.821 815.631 483.81 815.142 483.788 814.656V675.053C483.874 674.1 483.918 673.136 483.918 672.16C483.918 654.699 469.763 640.543 452.301 640.543C435.154 640.543 421.196 654.192 420.697 671.218H420.684V671.98Z" fill="#5A5A5A"/>
<path d="M420.684 671.98L426.599 672.013L426.599 671.996V671.98H420.684ZM420.684 672.341H426.599V672.324L426.599 672.308L420.684 672.341ZM420.684 813.618L426.581 814.08L426.599 813.85V813.618H420.684ZM483.736 818.459V812.545H478.238L477.837 818.028L483.736 818.459ZM483.788 818.459V824.374H489.702V818.459H483.788ZM483.788 817.588L477.879 817.319L477.873 817.453V817.588H483.788ZM483.788 814.656H477.873V814.791L477.879 814.926L483.788 814.656ZM483.788 675.053L477.897 674.519L477.873 674.785V675.053H483.788ZM420.697 671.218V677.132H426.441L426.609 671.391L420.697 671.218ZM420.684 671.218V665.303H414.769V671.218H420.684ZM414.77 671.947C414.769 672.018 414.769 672.089 414.769 672.16H426.598C426.598 672.111 426.598 672.062 426.599 672.013L414.77 671.947ZM414.769 672.16C414.769 672.231 414.769 672.303 414.77 672.374L426.599 672.308C426.598 672.259 426.598 672.209 426.598 672.16H414.769ZM426.599 813.618V672.341H414.769V813.618H426.599ZM414.788 813.157C414.711 814.136 414.672 815.125 414.672 816.122H426.501C426.501 815.434 426.528 814.753 426.581 814.08L414.788 813.157ZM414.672 816.122C414.672 836.851 431.475 853.654 452.204 853.654V841.825C438.009 841.825 426.501 830.317 426.501 816.122H414.672ZM452.204 853.654C472.002 853.654 488.215 838.329 489.635 818.89L477.837 818.028C476.865 831.33 465.757 841.825 452.204 841.825V853.654ZM483.788 812.545H483.736V824.374H483.788V812.545ZM477.873 817.588V818.459H489.702V817.588H477.873ZM489.696 817.858C489.722 817.282 489.736 816.704 489.736 816.122H477.906C477.906 816.524 477.897 816.923 477.879 817.319L489.696 817.858ZM489.736 816.122C489.736 815.541 489.722 814.962 489.696 814.386L477.879 814.926C477.897 815.322 477.906 815.721 477.906 816.122H489.736ZM477.873 675.053V814.656H489.702V675.053H477.873ZM489.678 675.587C489.781 674.457 489.833 673.314 489.833 672.16H478.004C478.004 672.957 477.968 673.744 477.897 674.519L489.678 675.587ZM489.833 672.16C489.833 651.432 473.029 634.628 452.301 634.628V646.458C466.496 646.458 478.004 657.965 478.004 672.16H489.833ZM452.301 634.628C431.946 634.628 415.377 650.831 414.785 671.045L426.609 671.391C427.015 657.553 438.363 646.458 452.301 646.458V634.628ZM420.684 677.132H420.697V665.303H420.684V677.132ZM426.599 671.98V671.218H414.769V671.98H426.599Z" fill="black" mask="url(#path-64-inside-7_2472_35430)"/>
<ellipse cx="452.26" cy="826.139" rx="28.3578" ry="28.3578" fill="#5A5A5A"/>
<rect x="422.254" y="819.547" width="59.7234" height="168.266" fill="#5A5A5A"/>
<path d="M421.924 818.03V987.053H481.608V817.332" stroke="black" stroke-width="5.91463"/>
<rect x="420.964" y="614.469" width="151.525" height="52.0307" fill="#5A5A5A"/>
<path d="M471.472 666.871H521.238" stroke="black" stroke-width="5.34794"/>
<path d="M422.449 614.469V666.499" stroke="black" stroke-width="5.34794"/>
<path d="M571.746 614.469V666.499" stroke="black" stroke-width="5.34794"/>
<path d="M420.374 409.405C420.374 404.693 423.936 400.744 428.623 400.258L459.971 397.013C461.578 396.847 463.201 397.107 464.676 397.767L465.698 395.486L464.676 397.767L492.645 410.293C496.352 411.953 500.594 411.946 504.295 410.272L531.935 397.777C533.412 397.11 535.038 396.844 536.65 397.007L568.962 400.28C573.658 400.756 577.232 404.709 577.232 409.429V610.59C577.232 615.668 573.115 619.786 568.036 619.786H429.57C424.491 619.786 420.374 615.668 420.374 610.59V409.405Z" fill="#F9F9F9" stroke="black" stroke-width="5"/>
<path d="M517.674 508.201L504.149 421.684L493.23 421.684L480.104 508.201L498.889 533.452L517.674 508.201Z" fill="#63518C" stroke="black" stroke-width="5"/>
<path d="M506.403 427.688L512.789 409.122L498.889 403.309L485.364 409.122L490.999 427.688H506.403Z" fill="#63518C" stroke="black" stroke-width="5"/>
<path d="M498.889 403.891L526.845 387.555L540.215 394.556L511.287 422.811L498.889 403.891Z" fill="#F9F9F9" stroke="black" stroke-width="5"/>
<path d="M498.889 403.891L470.933 387.555L457.563 394.556L486.491 422.811L498.889 403.891Z" fill="#F9F9F9" stroke="black" stroke-width="5"/>
<mask id="path-78-inside-8_2472_35430" fill="white">
<ellipse cx="498.803" cy="554.127" rx="4.32953" ry="4.32226"/>
</mask>
<ellipse cx="498.803" cy="554.127" rx="4.32953" ry="4.32226" fill="#F9F9F9"/>
<path d="M498.133 554.127C498.133 553.745 498.441 553.449 498.803 553.449V563.449C503.948 563.449 508.133 559.283 508.133 554.127H498.133ZM498.803 553.449C499.166 553.449 499.474 553.745 499.474 554.127H489.474C489.474 559.283 493.659 563.449 498.803 563.449V553.449ZM499.474 554.127C499.474 554.509 499.166 554.805 498.803 554.805V544.805C493.659 544.805 489.474 548.97 489.474 554.127H499.474ZM498.803 554.805C498.441 554.805 498.133 554.509 498.133 554.127H508.133C508.133 548.97 503.948 544.805 498.803 544.805V554.805Z" fill="black" mask="url(#path-78-inside-8_2472_35430)"/>
<mask id="path-80-inside-9_2472_35430" fill="white">
<ellipse cx="498.803" cy="576.073" rx="4.32953" ry="4.98723"/>
</mask>
<ellipse cx="498.803" cy="576.073" rx="4.32953" ry="4.98723" fill="#F9F9F9"/>
<path d="M498.133 576.073C498.133 576.286 498.057 576.359 498.089 576.322C498.108 576.3 498.171 576.236 498.298 576.174C498.433 576.108 498.61 576.06 498.803 576.06V586.06C504.596 586.06 508.133 580.902 508.133 576.073H498.133ZM498.803 576.06C498.997 576.06 499.174 576.108 499.308 576.174C499.435 576.236 499.498 576.3 499.517 576.322C499.549 576.359 499.474 576.286 499.474 576.073H489.474C489.474 580.902 493.01 586.06 498.803 586.06V576.06ZM499.474 576.073C499.474 575.861 499.549 575.788 499.517 575.824C499.498 575.847 499.435 575.911 499.308 575.973C499.174 576.038 498.997 576.086 498.803 576.086V566.086C493.01 566.086 489.474 571.245 489.474 576.073H499.474ZM498.803 576.086C498.61 576.086 498.433 576.038 498.298 575.973C498.171 575.911 498.108 575.847 498.089 575.824C498.057 575.788 498.133 575.861 498.133 576.073H508.133C508.133 571.245 504.596 566.086 498.803 566.086V576.086Z" fill="black" mask="url(#path-80-inside-9_2472_35430)"/>
<mask id="path-82-inside-10_2472_35430" fill="white">
<ellipse cx="498.803" cy="598.014" rx="4.32953" ry="4.32225"/>
</mask>
<ellipse cx="498.803" cy="598.014" rx="4.32953" ry="4.32225" fill="#F9F9F9"/>
<path d="M498.133 598.014C498.133 597.631 498.441 597.336 498.803 597.336V607.336C503.948 607.336 508.133 603.17 508.133 598.014H498.133ZM498.803 597.336C499.166 597.336 499.474 597.631 499.474 598.014H489.474C489.474 603.17 493.659 607.336 498.803 607.336V597.336ZM499.474 598.014C499.474 598.396 499.166 598.691 498.803 598.691V588.691C493.659 588.691 489.474 592.857 489.474 598.014H499.474ZM498.803 598.691C498.441 598.691 498.133 598.396 498.133 598.014H508.133C508.133 592.857 503.948 588.691 498.803 588.691V598.691Z" fill="black" mask="url(#path-82-inside-10_2472_35430)"/>
<rect x="531.938" y="445.566" width="35.6398" height="52.8774" fill="#F9F9F9" stroke="black" stroke-width="5"/>
<path d="M534.438 460.891L549.758 470.677L565.078 460.891" stroke="black" stroke-width="5" stroke-linecap="round" stroke-linejoin="round"/>
<path fill-rule="evenodd" clip-rule="evenodd" d="M326.978 413.208L325.602 413.491L350.91 536.449C351.009 537.172 351.133 537.897 351.283 538.625C354.386 553.702 367.306 563.784 380.14 561.142C392.397 558.619 400.143 545.406 398.112 531.09L398.15 531.082L397.995 530.33C397.925 529.907 397.847 529.483 397.759 529.059C397.672 528.634 397.577 528.214 397.474 527.798L371.982 403.945L370.746 404.199C367.192 390.986 355.526 382.378 343.934 384.764C332.343 387.15 325.025 399.665 326.978 413.208Z" fill="#F6C5A1"/>
<path d="M324.592 408.949L352.528 544.677C354.843 551.032 363.331 563.261 378.77 561.345C394.209 559.428 398.818 543.031 399.192 535.072L371.256 399.345" stroke="black" stroke-width="6.13645"/>
<path d="M509.127 349.031C509.127 354.75 504.066 359.616 497.529 359.616C490.991 359.616 485.931 354.75 485.931 349.031C485.931 347.336 486.053 346.408 486.268 345.864C486.413 345.495 486.586 345.305 487.087 345.134C487.743 344.91 488.797 344.795 490.596 344.765C491.614 344.749 492.767 344.758 494.119 344.77C495.134 344.778 496.262 344.788 497.529 344.788C499.047 344.788 500.373 344.778 501.542 344.769C503.053 344.758 504.301 344.749 505.363 344.765C507.298 344.795 508.22 344.917 508.69 345.104C508.783 345.141 508.831 345.171 508.853 345.187C508.872 345.2 508.877 345.208 508.881 345.212C508.887 345.22 508.947 345.298 509.004 345.575C509.128 346.181 509.128 347.061 509.127 348.621C509.127 348.753 509.127 348.89 509.127 349.031Z" fill="#DE8383" stroke="black" stroke-width="3.48191"/>
</svg>
