<svg width="58" height="57" viewBox="0 0 58 57" fill="none" xmlns="http://www.w3.org/2000/svg">
<mask id="mask0_2193_122743" style="mask-type:luminance" maskUnits="userSpaceOnUse" x="0" y="0" width="58" height="57">
<path d="M0 0.701172H57.0606V56.2986H0V0.701172Z" fill="white"/>
</mask>
<g mask="url(#mask0_2193_122743)">
<path d="M57.021 28.397C57.021 28.8506 57.0093 29.3031 56.9869 29.7557C56.9635 30.2083 56.9295 30.6599 56.8847 31.1106C56.8389 31.5613 56.7815 32.011 56.7134 32.4598C56.6452 32.9076 56.5654 33.3536 56.4749 33.7986C56.3843 34.2426 56.2821 34.6848 56.1692 35.1241C56.0553 35.5634 55.9317 35.9999 55.7964 36.4335C55.6611 36.8672 55.5151 37.297 55.3584 37.724C55.2016 38.1501 55.0342 38.5724 54.8561 38.9918C54.6779 39.4103 54.4891 39.824 54.2895 40.234C54.0909 40.643 53.8817 41.0483 53.6617 41.4478C53.4426 41.8474 53.2129 42.2412 52.9734 42.6294C52.734 43.0186 52.4848 43.4011 52.2259 43.7779C51.9679 44.1547 51.6992 44.5249 51.4218 44.8885C51.1444 45.253 50.8582 45.61 50.5623 45.9603C50.2673 46.3097 49.9626 46.6534 49.6502 46.9885C49.3377 47.3247 49.0165 47.6522 48.6874 47.9732C48.3574 48.2932 48.0206 48.6057 47.6751 48.9096C47.3305 49.2145 46.9781 49.5099 46.6179 49.7977C46.2578 50.0846 45.8908 50.3639 45.517 50.6337C45.1422 50.9036 44.7616 51.164 44.3742 51.4158C43.9877 51.6677 43.5935 51.91 43.1944 52.143C42.7953 52.3759 42.3893 52.5993 41.9785 52.8133C41.5678 53.0263 41.1521 53.2299 40.7316 53.424C40.3101 53.6171 39.8847 53.8008 39.4544 53.9741C39.0242 54.1483 38.5891 54.3111 38.151 54.4636C37.712 54.616 37.2701 54.758 36.8242 54.8896C36.3784 55.0213 35.9296 55.1424 35.478 55.2523C35.0263 55.3621 34.5717 55.4615 34.1152 55.5505C33.6586 55.6386 33.1992 55.7162 32.7387 55.7825C32.2783 55.8488 31.8159 55.9046 31.3526 55.9491C30.8892 55.9936 30.4239 56.0268 29.9596 56.0485C29.4943 56.0713 29.028 56.0826 28.5627 56.0826C28.0965 56.0826 27.6312 56.0713 27.1659 56.0495C26.7006 56.0268 26.2362 55.9936 25.7729 55.9491C25.3095 55.9046 24.8471 55.8497 24.3867 55.7825C23.9253 55.7162 23.4668 55.6386 23.0103 55.5505C22.5537 55.4625 22.0991 55.363 21.6475 55.2532C21.1948 55.1434 20.7461 55.0222 20.3012 54.8906C19.8554 54.759 19.4125 54.617 18.9744 54.4645C18.5354 54.3121 18.1013 54.1492 17.671 53.975C17.2408 53.8018 16.8154 53.619 16.3939 53.4249C15.9724 53.2308 15.5567 53.0273 15.1459 52.8142C14.7351 52.6003 14.3302 52.3768 13.9301 52.1439C13.531 51.911 13.1377 51.6686 12.7503 51.4177C12.3629 51.1658 11.9823 50.9045 11.6085 50.6347C11.2337 50.3649 10.8667 50.0865 10.5066 49.7987C10.1464 49.5118 9.79401 49.2154 9.44942 48.9115C9.10385 48.6076 8.76704 48.2951 8.43705 47.9751C8.10803 47.6541 7.7868 47.3265 7.47433 46.9904C7.16186 46.6553 6.85717 46.3116 6.56222 45.9622C6.2663 45.6119 5.98011 45.2549 5.70268 44.8904C5.42525 44.5268 5.15659 44.1566 4.89766 43.7798C4.63872 43.403 4.3905 43.0205 4.15103 42.6313C3.91157 42.2431 3.68184 41.8493 3.46184 41.4497C3.24282 41.0502 3.03354 40.6449 2.83398 40.2359C2.63443 39.8259 2.44656 39.4122 2.26842 38.9937C2.08931 38.5752 1.92188 38.1529 1.76516 37.7259C1.60843 37.2989 1.46242 36.8691 1.32711 36.4354C1.1918 36.0018 1.06818 35.5653 0.954288 35.126C0.84137 34.6867 0.73916 34.2445 0.64863 33.8005C0.558102 33.3564 0.47828 32.9095 0.41014 32.4617C0.341026 32.0138 0.284567 31.5641 0.238816 31.1134C0.193065 30.6627 0.158995 30.2111 0.136606 29.7585C0.113244 29.306 0.101562 28.8524 0.101562 28.3999C0.101562 27.9464 0.113244 27.4938 0.136606 27.0412C0.158995 26.5886 0.193065 26.137 0.238816 25.6863C0.284567 25.2356 0.342 24.7859 0.41014 24.3381C0.47828 23.8902 0.558102 23.4433 0.64863 22.9993C0.740133 22.5552 0.842343 22.1131 0.955261 21.6738C1.06818 21.2344 1.19278 20.798 1.32809 20.3643C1.46339 19.9307 1.60941 19.5008 1.76613 19.0738C1.92285 18.6478 2.09125 18.2245 2.26939 17.806C2.44753 17.3876 2.63638 16.9738 2.83496 16.5638C3.03451 16.1548 3.2438 15.7496 3.46379 15.35C3.68281 14.9514 3.91254 14.5566 4.15201 14.1684C4.39147 13.7802 4.64067 13.3968 4.8996 13.0209C5.15854 12.6441 5.42623 12.2739 5.70366 11.9093C5.98108 11.5458 6.26825 11.1888 6.5632 10.8385C6.85912 10.4882 7.16283 10.1454 7.47627 9.81026C7.78874 9.47414 8.10998 9.14655 8.439 8.82558C8.76899 8.50556 9.1058 8.19311 9.45136 7.88919C9.79693 7.58526 10.1493 7.28891 10.5095 7.00203C10.8697 6.7142 11.2366 6.43584 11.6104 6.166C11.9842 5.89616 12.3658 5.63484 12.7523 5.38394C13.1397 5.13209 13.5339 4.8897 13.933 4.65679C14.3321 4.42387 14.7381 4.20043 15.1489 3.98739C15.5596 3.77342 15.9753 3.56985 16.3968 3.3767C16.8173 3.18261 17.2437 2.99893 17.6739 2.82566C18.1042 2.6524 18.5383 2.48955 18.9774 2.33711C19.4154 2.18467 19.8573 2.04265 20.3032 1.91105C20.749 1.77944 21.1978 1.6592 21.6494 1.54842C22.1021 1.43859 22.5557 1.33918 23.0132 1.25112C23.4697 1.16307 23.9282 1.08543 24.3896 1.01915C24.8501 0.952878 25.3124 0.897016 25.7758 0.853463C26.2391 0.808963 26.7035 0.775825 27.1688 0.753102C27.6341 0.731325 28.0994 0.719963 28.5656 0.719963C29.0319 0.71807 29.4972 0.727538 29.9635 0.748368C30.4288 0.769197 30.8941 0.801389 31.3574 0.843995C31.8218 0.887548 32.2842 0.941516 32.7456 1.00685C33.207 1.07218 33.6664 1.14792 34.1239 1.23503C34.5814 1.32213 35.036 1.4206 35.4887 1.52948C35.9413 1.63931 36.3911 1.75861 36.8369 1.88927C37.2837 2.01993 37.7266 2.161 38.1656 2.31344C38.6046 2.46493 39.0398 2.62778 39.471 2.8001C39.9022 2.97242 40.3286 3.1561 40.7501 3.34925C41.1716 3.5424 41.5882 3.74501 42 3.95899C42.4108 4.17202 42.8167 4.39452 43.2168 4.62744C43.6168 4.86035 44.0111 5.10179 44.3985 5.35364C44.7869 5.60549 45.1675 5.86586 45.5423 6.1357C45.917 6.40554 46.285 6.6839 46.6452 6.97173C47.0053 7.25956 47.3587 7.55496 47.7043 7.85984C48.0498 8.16376 48.3876 8.47621 48.7166 8.79718C49.0466 9.11814 49.3679 9.44574 49.6803 9.78185C49.9938 10.118 50.2975 10.4617 50.5934 10.812C50.8893 11.1623 51.1755 11.5202 51.453 11.8847C51.7304 12.2492 51.9981 12.6194 52.257 12.9972C52.5159 13.374 52.7642 13.7575 53.0036 14.1466C53.2431 14.5358 53.4718 14.9306 53.6918 15.3301C53.9109 15.7306 54.1192 16.1359 54.3178 16.5458C54.5163 16.9568 54.7052 17.3715 54.8823 17.79C55.0605 18.2094 55.2269 18.6326 55.3827 19.0596C55.5394 19.4866 55.6845 19.9174 55.8188 20.352C55.9531 20.7866 56.0767 21.2231 56.1887 21.6633C56.3006 22.1036 56.4019 22.5458 56.4914 22.9908C56.581 23.4358 56.6589 23.8827 56.726 24.3314C56.7932 24.7802 56.8487 25.23 56.8935 25.6816C56.9373 26.1332 56.9704 26.5848 56.9918 27.0384C57.0132 27.4909 57.0229 27.9445 57.021 28.397Z" fill="#366758"/>
</g>
<path d="M47.623 47.3872C47.3319 47.7303 47.0315 48.0651 46.721 48.3926C46.4105 48.7193 46.0906 49.0377 45.7624 49.3471C45.4333 49.6566 45.0966 49.9578 44.7507 50.2491C44.4047 50.5405 44.0511 50.822 43.6891 51.0945C43.3271 51.367 42.9575 51.6288 42.5803 51.8816C42.204 52.1336 41.82 52.3757 41.4294 52.6071C41.0387 52.8386 40.6412 53.0594 40.2379 53.2695C39.8345 53.4796 39.4253 53.6782 39.0109 53.8662C38.5958 54.0541 38.1756 54.2306 37.7511 54.3956C37.3258 54.5613 36.8972 54.7148 36.4634 54.8568C36.0297 54.9988 35.5926 55.1285 35.1513 55.2467C34.71 55.3649 34.2661 55.4716 33.8189 55.5659C33.3717 55.6603 32.9219 55.7424 32.4704 55.8122C32.0182 55.8819 31.565 55.9394 31.1094 55.9853C30.6545 56.0305 30.198 56.0633 29.7415 56.0838C29.2842 56.1052 28.8268 56.1134 28.3694 56.1093C27.9121 56.1052 27.4547 56.0888 26.9982 56.06C26.5417 56.0313 26.0861 55.9903 25.6321 55.9369C25.1773 55.8836 24.725 55.8179 24.2744 55.7399C23.8238 55.662 23.3765 55.5717 22.931 55.4699C22.4854 55.3673 22.0433 55.2532 21.6045 55.1277C21.1657 55.0013 20.7311 54.8634 20.2999 54.714C19.8687 54.5646 19.4426 54.4029 19.0207 54.2306C18.5996 54.0582 18.1828 53.8744 17.7718 53.679C17.36 53.4837 16.955 53.2777 16.5559 53.0602C16.1559 52.8435 15.7635 52.6154 15.3771 52.3773C14.9906 52.1385 14.6109 51.8906 14.2387 51.6313C13.8666 51.3727 13.5021 51.1035 13.146 50.8253C12.789 50.5463 12.4405 50.2582 12.0996 49.9611C11.7596 49.6631 11.4279 49.357 11.1056 49.0418C10.7824 48.7258 10.4685 48.4025 10.1647 48.0701C9.86011 47.7377 9.56562 47.397 9.28125 47.049C11.9089 43.4041 15.9829 40.8746 24.5494 40.7802C34.4349 40.6645 41.7078 40.314 44.711 43.5461C45.8046 44.7386 46.775 46.019 47.623 47.3872Z" fill="#F7D671"/>
<path d="M20.4183 26.0598C15.6743 24.3912 16.4481 18.3053 17.1215 18.1748C17.794 18.0435 19.2395 19.1236 19.307 19.1556C19.3753 19.1885 18.9711 16.4406 19.8799 15.1643C20.7879 13.8881 24.2526 16.4726 26.9107 16.5054C29.5679 16.5383 35.9936 16.7024 37.8771 18.3382C39.7605 19.9739 38.7833 23.4752 38.7833 23.4752C38.7833 23.4752 40.9385 24.0317 40.5005 26.9765C40.0617 29.9214 36.6653 32.4501 35.4544 34.5717C34.2427 36.6942 27.0499 37.0865 25.9335 34.0112" fill="#14213D"/>
<path d="M28.2367 44.3274C24.788 44.3274 24.28 41.5278 24.2665 41.0543C24.2665 41.0001 24.2598 40.9057 24.2665 40.7768C24.2598 40.5134 24.2598 40.1079 24.2598 39.6344C24.2733 38.3565 24.2876 36.5918 24.2665 35.8343L30.85 33.542L32.0466 33.1225L33.3739 32.6621C33.3739 32.6621 33.3672 32.9124 33.3537 33.3253C33.3461 33.5616 33.3393 33.853 33.3326 34.1838C33.3334 34.2232 33.3309 34.2617 33.3258 34.2995C33.3182 34.7796 33.3115 35.3279 33.298 35.9024C33.2769 37.7081 33.2701 39.737 33.3672 40.4666C33.5469 41.8865 31.6838 44.3274 28.2367 44.3274Z" fill="#FFB5A6"/>
<path d="M33.3796 34.1978C33.3635 34.2331 33.345 34.2667 33.3239 34.2987C30.9873 38.9721 27.477 40.8245 24.2646 40.7769C24.2578 40.5134 24.2578 40.108 24.2578 39.6344C24.2722 38.3565 24.2857 36.5919 24.2646 35.8343L30.8489 33.542L33.3306 34.1838L33.3796 34.1978Z" fill="#E86B70"/>
<path d="M20.2895 21.9053C24.1247 26.3775 33.5958 25.5699 33.5958 25.5699C33.5958 25.5699 33.7755 30.8055 34.7172 30.762C35.659 30.7185 35.8159 27.8171 38.1263 28.2981C40.4359 28.7782 39.0005 33.1183 37.2065 33.358C35.4126 33.5976 34.9636 32.1146 34.9636 32.1146C34.9636 32.1146 31.6558 38.495 26.4081 38.495C21.1603 38.495 19.817 33.6017 19.8482 30.936C19.8794 28.271 20.2895 21.9053 20.2895 21.9053Z" fill="#FFB5A6"/>
</svg>
