<svg width="49" height="50" viewBox="0 0 49 50" fill="none" xmlns="http://www.w3.org/2000/svg">
<path fill-rule="evenodd" clip-rule="evenodd" d="M28.5494 5.29994C28.727 5.64498 28.7719 6.08803 28.8597 6.97411C29.0271 8.64828 29.1108 9.48536 29.462 9.94678C29.6808 10.2333 29.9715 10.4567 30.3047 10.5944C30.6378 10.7321 31.0015 10.7792 31.3587 10.7308C31.9304 10.6552 32.5837 10.1224 33.8863 9.05661C34.5743 8.49107 34.9194 8.20932 35.2889 8.0909C35.7596 7.94051 36.2688 7.96589 36.7222 8.16236C37.0794 8.31753 37.3959 8.63194 38.0227 9.26078L39.8479 11.086C40.4768 11.7149 40.7912 12.0293 40.9464 12.3866C41.1428 12.8399 41.1682 13.3492 41.0178 13.8198C40.8994 14.1894 40.6177 14.5344 40.0542 15.2224C38.9864 16.5271 38.4535 17.1784 38.3759 17.7521C38.3281 18.1091 38.3757 18.4725 38.5137 18.8053C38.6518 19.138 38.8754 19.4284 39.1619 19.6467C39.6213 19.9979 40.4604 20.0816 42.1367 20.249C43.0207 20.3368 43.4637 20.3817 43.8108 20.5594C44.2487 20.7864 44.5895 21.1642 44.7704 21.6231C44.9154 21.9844 44.9154 22.4295 44.9154 23.3197V25.9004C44.9154 26.7905 44.9154 27.2356 44.7724 27.5949C44.591 28.0552 44.2485 28.4339 43.8088 28.6607C43.4637 28.8383 43.0207 28.8832 42.1346 28.971C40.4604 29.1384 39.6234 29.2221 39.1619 29.5733C38.8755 29.7921 38.652 30.0829 38.5143 30.416C38.3766 30.7491 38.3295 31.1128 38.3779 31.47C38.4555 32.0417 38.9884 32.695 40.0542 33.9976C40.6177 34.6856 40.8994 35.0286 41.0178 35.4002C41.1682 35.8709 41.1428 36.3801 40.9464 36.8335C40.7912 37.1908 40.4768 37.5052 39.8479 38.134L38.0227 39.9572C37.3939 40.5881 37.0794 40.9025 36.7222 41.0556C36.2688 41.2521 35.7596 41.2775 35.2889 41.1271C34.9194 41.0087 34.5743 40.7269 33.8863 40.1634C32.5817 39.0977 31.9304 38.5648 31.3587 38.4893C31.0015 38.4409 30.6378 38.4879 30.3047 38.6256C29.9715 38.7633 29.6808 38.9868 29.462 39.2733C29.1108 39.7326 29.0271 40.5697 28.8597 42.2459C28.7719 43.132 28.727 43.5751 28.5494 43.9201C28.3231 44.3595 27.9452 44.7019 27.4857 44.8838C27.1243 45.0267 26.6792 45.0267 25.789 45.0267H23.2084C22.3182 45.0267 21.8731 45.0267 21.5138 44.8838C21.0535 44.7023 20.6748 44.3599 20.448 43.9201C20.2704 43.5751 20.2255 43.132 20.1377 42.2459C19.9703 40.5718 19.8866 39.7347 19.5354 39.2733C19.3168 38.9871 19.0264 38.7639 18.6936 38.6262C18.3609 38.4885 17.9976 38.4413 17.6407 38.4893C17.067 38.5648 16.4157 39.0977 15.1111 40.1634C14.4231 40.729 14.078 41.0107 13.7085 41.1291C13.2378 41.2795 12.7286 41.2542 12.2752 41.0577C11.9179 40.9025 11.6015 40.5881 10.9747 39.9593L9.14945 38.134C8.52061 37.5052 8.2062 37.1908 8.05103 36.8335C7.85457 36.3801 7.82918 35.8709 7.97957 35.4002C8.09799 35.0307 8.37974 34.6856 8.94324 33.9976C10.011 32.693 10.5439 32.0417 10.6194 31.468C10.6675 31.1111 10.6202 30.7478 10.4825 30.4151C10.3449 30.0823 10.1216 29.7919 9.83545 29.5733C9.37607 29.2221 8.53695 29.1384 6.86074 28.971C5.9767 28.8832 5.53366 28.8383 5.18657 28.6607C4.74873 28.4337 4.40787 28.0558 4.22699 27.597C4.08203 27.2356 4.08203 26.7905 4.08203 25.9004V23.3197C4.08203 22.4295 4.08203 21.9844 4.22495 21.6251C4.40643 21.1648 4.74887 20.7861 5.18861 20.5594C5.53366 20.3817 5.9767 20.3368 6.86278 20.249C8.53695 20.0816 9.37607 19.9979 9.83545 19.6467C10.122 19.4284 10.3456 19.138 10.4837 18.8053C10.6217 18.4725 10.6693 18.1091 10.6215 17.7521C10.5439 17.1784 10.009 16.5271 8.94324 15.2204C8.37974 14.5324 8.09799 14.1894 7.97957 13.8178C7.82918 13.3471 7.85457 12.8379 8.05103 12.3845C8.2062 12.0293 8.52061 11.7128 9.14945 11.084L10.9747 9.26078C11.6035 8.63194 11.9179 8.31548 12.2752 8.16236C12.7286 7.96589 13.2378 7.94051 13.7085 8.0909C14.078 8.20932 14.4231 8.49107 15.1111 9.05457C16.4157 10.1203 17.067 10.6532 17.6387 10.7308C17.9964 10.7793 18.3606 10.7321 18.6942 10.5941C19.0277 10.456 19.3187 10.2319 19.5374 9.94473C19.8845 9.48536 19.9703 8.64828 20.1377 6.97207C20.2255 6.08803 20.2704 5.64498 20.448 5.2979C20.6747 4.85929 21.0526 4.51766 21.5117 4.33628C21.8731 4.19336 22.3182 4.19336 23.2084 4.19336H25.789C26.6792 4.19336 27.1243 4.19336 27.4836 4.33628C27.9439 4.51775 28.3226 4.8602 28.5494 5.29994ZM24.4987 32.7767C26.6646 32.7767 28.7419 31.9163 30.2734 30.3847C31.8049 28.8532 32.6654 26.776 32.6654 24.61C32.6654 22.4441 31.8049 20.3669 30.2734 18.8353C28.7419 17.3038 26.6646 16.4434 24.4987 16.4434C22.3328 16.4434 20.2555 17.3038 18.724 18.8353C17.1924 20.3669 16.332 22.4441 16.332 24.61C16.332 26.776 17.1924 28.8532 18.724 30.3847C20.2555 31.9163 22.3328 32.7767 24.4987 32.7767Z" fill="#F5F5F5"/>
</svg>
