<svg width="44" height="32" viewBox="0 0 44 32" fill="none" xmlns="http://www.w3.org/2000/svg">
<mask id="mask0_2193_122342" style="mask-type:luminance" maskUnits="userSpaceOnUse" x="0" y="0" width="39" height="23">
<path d="M0 0H38.0769V22.9073H0V0Z" fill="white"/>
</mask>
<g mask="url(#mask0_2193_122342)">
<path d="M6.06926 22.7945H1.51732C0.679428 22.7945 0 22.115 0 21.2764V1.53757C0 0.698959 0.679428 0.0195312 1.51732 0.0195312H36.4141C37.252 0.0195312 37.9314 0.698959 37.9314 1.53757V9.12994" fill="#0378A3"/>
</g>
<mask id="mask1_2193_122342" style="mask-type:luminance" maskUnits="userSpaceOnUse" x="0" y="3" width="39" height="8">
<path d="M0 3.64355H38.0769V10.6824H0V3.64355Z" fill="white"/>
</mask>
<g mask="url(#mask1_2193_122342)">
<path d="M0 3.81543H37.9314V10.5851L6.06926 10.6481H0V3.81543Z" fill="#29485A"/>
</g>
<mask id="mask2_2193_122342" style="mask-type:luminance" maskUnits="userSpaceOnUse" x="6" y="9" width="38" height="23">
<path d="M6.03125 9.01465H43.9996V31.9242H6.03125V9.01465Z" fill="white"/>
</mask>
<g mask="url(#mask2_2193_122342)">
<path d="M7.58568 9.12988H42.4818C43.3197 9.12988 43.9991 9.80931 43.9991 10.6479V30.3861C43.9991 31.2254 43.3197 31.9048 42.4818 31.9048H7.58568C6.74779 31.9048 6.06836 31.2254 6.06836 30.3861V10.6479C6.06836 9.80931 6.74779 9.12988 7.58568 9.12988Z" fill="#06AAE9"/>
</g>
<path d="M20.4831 15.9628C20.4831 18.059 18.7841 19.7586 16.6894 19.7586C14.5947 19.7586 12.8965 18.059 12.8965 15.9628C12.8965 13.8659 14.5947 12.167 16.6894 12.167C18.7841 12.167 20.4831 13.8659 20.4831 15.9628Z" fill="#F8CF26"/>
<path d="M16.6894 15.9628C16.6894 18.059 14.9912 19.7586 12.8964 19.7586C10.801 19.7586 9.10352 18.059 9.10352 15.9628C9.10352 13.8659 10.801 12.167 12.8964 12.167C14.9912 12.167 16.6894 13.8659 16.6894 15.9628Z" fill="#ED1C24"/>
<path d="M38.6896 24.3137H12.8967C12.4778 24.3137 12.1377 23.9736 12.1377 23.5547C12.1377 23.135 12.4778 22.7949 12.8967 22.7949H38.6896C39.1086 22.7949 39.4487 23.135 39.4487 23.5547C39.4487 23.9736 39.1086 24.3137 38.6896 24.3137Z" fill="#29485A"/>
<path d="M16.6896 28.1086H12.8967C12.4778 28.1086 12.1377 27.7685 12.1377 27.3496C12.1377 26.9299 12.4778 26.5898 12.8967 26.5898H16.6896C17.1086 26.5898 17.4479 26.9299 17.4479 27.3496C17.4479 27.7685 17.1086 28.1086 16.6896 28.1086Z" fill="#29485A"/>
<path d="M24.2761 28.1086H19.7241C19.3052 28.1086 18.9658 27.7685 18.9658 27.3496C18.9658 26.9299 19.3052 26.5898 19.7241 26.5898H24.2761C24.695 26.5898 25.0344 26.9299 25.0344 27.3496C25.0344 27.7685 24.695 28.1086 24.2761 28.1086Z" fill="#29485A"/>
<path d="M31.862 28.1086H27.3101C26.8918 28.1086 26.5518 27.7685 26.5518 27.3496C26.5518 26.9299 26.8918 26.5898 27.3101 26.5898H31.862C32.2809 26.5898 32.6203 26.9299 32.6203 27.3496C32.6203 27.7685 32.2809 28.1086 31.862 28.1086Z" fill="#29485A"/>
<path d="M38.6896 28.1086H34.8967C34.4778 28.1086 34.1377 27.7685 34.1377 27.3496C34.1377 26.9299 34.4778 26.5898 34.8967 26.5898H38.6896C39.1086 26.5898 39.4487 26.9299 39.4487 27.3496C39.4487 27.7685 39.1086 28.1086 38.6896 28.1086Z" fill="#29485A"/>
<path d="M33.3791 14.4434H37.9311C38.35 14.4434 38.6894 14.7834 38.6894 15.2024V18.2392C38.6894 18.6588 38.35 18.9982 37.9311 18.9982H33.3791C32.9602 18.9982 32.6201 18.6588 32.6201 18.2392V15.2024C32.6201 14.7834 32.9602 14.4434 33.3791 14.4434Z" fill="#CDA349"/>
</svg>
