<svg width="30" height="30" viewBox="0 0 30 30" fill="none" xmlns="http://www.w3.org/2000/svg">
<path d="M25.9898 8.24707H24.5746L22.9008 9.74993H24.5469C24.7368 9.74993 24.8926 9.88627 24.8926 10.0594C24.8926 10.2293 24.7368 10.3683 24.5469 10.3683H2.82638C2.6365 10.3683 2.48124 10.2293 2.48124 10.0594C2.48124 9.88627 2.6365 9.74993 2.82638 9.74993H4.15848L5.83621 8.24707H2.05649C0.917727 8.24707 0.00295908 9.08814 0.037572 10.112C0.0721848 11.1076 1.03492 11.8685 2.14648 11.8685H26.6628V8.84999C26.6628 8.51931 26.3626 8.24707 25.9898 8.24707Z" fill="#63518C"/>
<mask id="mask0_2763_2359" style="mask-type:luminance" maskUnits="userSpaceOnUse" x="0" y="11" width="29" height="19">
<path d="M0 11.6279H28.7346V29.9996H0V11.6279Z" fill="white"/>
</mask>
<g mask="url(#mask0_2763_2359)">
<path d="M21.3551 20.9358C21.3551 22.3829 22.6699 23.5644 24.2888 23.5644H28.6653V29.0942C28.6653 29.5953 28.2134 30.0003 27.6541 30.0003H3.2689C1.48436 30.0003 0.0415039 28.7046 0.0415039 27.1057V11.6455C0.555752 12.159 1.31526 12.4866 2.15041 12.4866H28.6134C28.648 12.5764 28.6653 12.6721 28.6653 12.7712V18.3068H24.2888C22.6699 18.3068 21.3551 19.4852 21.3551 20.9358Z" fill="#63518C"/>
</g>
<mask id="mask1_2763_2359" style="mask-type:luminance" maskUnits="userSpaceOnUse" x="22" y="18" width="8" height="5">
<path d="M22.0283 18.8809H30.0002V22.9605H22.0283V18.8809Z" fill="white"/>
</mask>
<g mask="url(#mask1_2763_2359)">
<path d="M29.4763 18.9258H24.2888C23.0462 18.9258 22.0454 19.8257 22.0454 20.9359C22.0454 22.0462 23.0462 22.9461 24.2888 22.9461H29.4763C29.7285 22.9461 29.9253 22.7637 29.9253 22.5411V19.3277C29.9253 19.1082 29.7285 18.9258 29.4763 18.9258ZM24.8031 21.7925C24.2715 21.7925 23.8433 21.4092 23.8433 20.9359C23.8433 20.4596 24.2715 20.0763 24.8031 20.0763C25.3312 20.0763 25.7594 20.4596 25.7594 20.9359C25.7594 21.4092 25.3312 21.7925 24.8031 21.7925Z" fill="#63518C"/>
</g>
<path d="M24.2316 7.68374L21.9259 9.74968H19.5203L20.9632 8.45708C20.1725 7.74881 20.176 6.59831 20.9666 5.89004L17.8396 3.08839C17.049 3.79622 15.7648 3.79932 14.9747 3.09149L7.54329 9.74968H5.1377L15.8375 0.162349C16.0793 -0.0541163 16.4724 -0.0541163 16.7142 0.162349L24.2316 6.89844C24.4734 7.11491 24.4734 7.46772 24.2316 7.68374Z" fill="#63518C"/>
<path d="M18.0133 6.53506C18.0133 6.58553 18.0079 6.63599 17.997 6.68557C17.9856 6.73559 17.9693 6.78384 17.9475 6.83076C17.9263 6.87769 17.8996 6.9224 17.8679 6.96445C17.8368 7.0065 17.8007 7.04546 17.7606 7.08176C17.7206 7.11761 17.6771 7.14949 17.6301 7.17782C17.5826 7.20571 17.5332 7.22961 17.4808 7.24909C17.4283 7.26856 17.3744 7.28317 17.3191 7.29335C17.2632 7.30309 17.2073 7.30796 17.1504 7.30796C17.0941 7.30796 17.0377 7.30309 16.9823 7.29335C16.9265 7.28317 16.8726 7.26856 16.8201 7.24909C16.7682 7.22961 16.7183 7.20571 16.6713 7.17782C16.6238 7.14949 16.5803 7.11761 16.5403 7.08176C16.5002 7.04546 16.4646 7.0065 16.433 6.96445C16.4018 6.9224 16.3751 6.87769 16.3534 6.83076C16.3316 6.78384 16.3153 6.73559 16.3044 6.68557C16.293 6.63599 16.2876 6.58553 16.2876 6.53506C16.2876 6.48415 16.293 6.43369 16.3044 6.38411C16.3153 6.33409 16.3316 6.28584 16.3534 6.23892C16.3751 6.19199 16.4018 6.14773 16.433 6.10523C16.4646 6.06318 16.5002 6.02422 16.5403 5.98837C16.5803 5.95207 16.6238 5.92019 16.6713 5.89186C16.7183 5.86398 16.7682 5.84007 16.8201 5.82059C16.8726 5.80112 16.9265 5.78651 16.9823 5.77677C17.0377 5.76659 17.0941 5.76172 17.1504 5.76172C17.2073 5.76172 17.2632 5.76659 17.3191 5.77677C17.3744 5.78651 17.4283 5.80112 17.4808 5.82059C17.5332 5.84007 17.5826 5.86398 17.6301 5.89186C17.6771 5.92019 17.7206 5.95207 17.7606 5.98837C17.8007 6.02422 17.8368 6.06318 17.8679 6.10523C17.8996 6.14773 17.9263 6.19199 17.9475 6.23892C17.9693 6.28584 17.9856 6.33409 17.997 6.38411C18.0079 6.43369 18.0133 6.48415 18.0133 6.53506Z" fill="#63518C"/>
</svg>
