<svg width="199" height="82" viewBox="0 0 199 82" fill="none" xmlns="http://www.w3.org/2000/svg">
<mask id="mask0_64_490" style="mask-type:luminance" maskUnits="userSpaceOnUse" x="144" y="55" width="28" height="27">
<path d="M144.647 55.5962H171.744V82.0001H144.647V55.5962Z" fill="white"/>
</mask>
<g mask="url(#mask0_64_490)">
<path d="M170.297 57.8859C166.938 58.1988 163.579 58.8245 160.3 57.6521C158.034 56.8717 155.848 55.5446 153.737 57.4184C153.503 57.5765 153.349 57.8859 153.27 58.2779C149.677 59.6049 146.707 62.5754 145.614 66.6357C143.895 73.1197 147.724 79.8376 154.284 81.5566C160.767 83.2756 167.485 79.4491 169.204 72.886C170.063 69.6061 169.516 66.1681 167.877 63.4349C168.812 62.8092 169.596 62.0287 170.142 61.3239C170.689 60.6982 171.469 59.684 171.624 58.7454C171.861 57.6521 171.624 57.8103 170.297 57.8859ZM167.643 72.494C166.158 78.1186 160.3 81.4776 154.676 79.9958C149.051 78.5105 145.693 72.6522 147.178 67.0276C148.034 63.7477 150.457 61.1692 153.349 59.9969C153.503 60.4644 153.816 61.0111 154.205 61.4821C155.69 63.2767 158.502 65.0748 162.094 65.1539C163.658 65.2295 165.144 64.841 166.392 64.2944C167.956 66.6357 168.423 69.6061 167.643 72.494Z" fill="white"/>
</g>
<path d="M159.753 74.2129C157.488 74.0582 155.301 73.5115 153.269 72.4939C152.489 72.1054 151.471 72.652 151.55 73.5872C151.55 75.1515 152.956 76.9496 155.377 77.6509C157.876 78.2766 159.908 77.4962 160.768 76.09C161.159 75.3062 160.613 74.292 159.753 74.2129Z" fill="white"/>
<path d="M163.235 67.8973C163.445 67.9523 163.634 68.0486 163.809 68.1792C163.981 68.3133 164.122 68.4749 164.229 68.6605C164.339 68.8496 164.408 69.0525 164.435 69.2691C164.463 69.4822 164.449 69.6954 164.394 69.9051C164.339 70.1182 164.243 70.3073 164.112 70.4792C163.978 70.6546 163.82 70.7955 163.631 70.9021C163.441 71.0121 163.239 71.0809 163.022 71.1084C162.809 71.1359 162.596 71.1221 162.386 71.0671C162.176 71.0087 161.984 70.9159 161.812 70.7852C161.637 70.6511 161.499 70.4896 161.389 70.3039C161.279 70.1148 161.21 69.912 161.183 69.6954C161.155 69.4822 161.169 69.2691 161.224 69.0559C161.282 68.8462 161.375 68.6571 161.509 68.4818C161.64 68.3099 161.802 68.1689 161.991 68.0623C162.176 67.9523 162.379 67.8835 162.596 67.856C162.812 67.8285 163.025 67.8423 163.235 67.8973Z" fill="white"/>
<path d="M153.383 65.2741C153.593 65.3291 153.786 65.4254 153.958 65.556C154.13 65.6901 154.27 65.8483 154.381 66.0374C154.487 66.2264 154.556 66.4293 154.587 66.6424C154.614 66.859 154.601 67.0722 154.546 67.2819C154.487 67.4916 154.394 67.6842 154.26 67.8561C154.13 68.028 153.968 68.1689 153.779 68.2789C153.59 68.389 153.39 68.4577 153.174 68.4852C152.957 68.5127 152.744 68.499 152.534 68.444C152.325 68.3855 152.132 68.2927 151.96 68.1586C151.788 68.028 151.647 67.8664 151.537 67.6773C151.431 67.4916 151.362 67.2888 151.334 67.0722C151.303 66.8556 151.317 66.6424 151.376 66.4327C151.431 66.223 151.527 66.0305 151.658 65.8586C151.792 65.6867 151.95 65.5457 152.139 65.4391C152.328 65.3291 152.531 65.2604 152.744 65.2329C152.961 65.2019 153.174 65.2157 153.383 65.2741Z" fill="white"/>
<path d="M138.429 60.6981C136.397 61.7158 134.211 62.2624 131.945 62.4171C131.007 62.4962 130.539 63.4348 131.007 64.2152C131.866 65.5423 133.898 66.4018 136.397 65.776C138.897 65.0747 140.224 63.3557 140.224 61.7158C140.224 60.8562 139.289 60.3096 138.429 60.6981Z" fill="white"/>
<path d="M140.326 54.6506C140.385 54.8604 140.398 55.0735 140.371 55.2901C140.34 55.5033 140.271 55.7061 140.165 55.8952C140.055 56.0843 139.914 56.2424 139.742 56.3765C139.57 56.5072 139.377 56.6034 139.168 56.6584C138.958 56.7169 138.745 56.7306 138.528 56.6997C138.315 56.6722 138.112 56.6034 137.923 56.4969C137.734 56.3868 137.576 56.2459 137.442 56.074C137.308 55.9021 137.215 55.7096 137.16 55.4998C137.101 55.2901 137.088 55.077 137.115 54.8604C137.146 54.6438 137.215 54.4409 137.321 54.2553C137.431 54.0662 137.572 53.9046 137.744 53.774C137.916 53.6399 138.109 53.547 138.318 53.4886C138.528 53.4336 138.741 53.4198 138.958 53.4473C139.175 53.4748 139.374 53.5436 139.563 53.6536C139.752 53.7636 139.914 53.9046 140.044 54.0765C140.178 54.2484 140.271 54.4409 140.326 54.6506Z" fill="white"/>
<path d="M130.491 57.3082C130.55 57.5179 130.564 57.7311 130.536 57.9477C130.505 58.1643 130.436 58.3671 130.33 58.5528C130.22 58.7419 130.079 58.9035 129.907 59.0341C129.735 59.1682 129.542 59.261 129.333 59.3195C129.123 59.3745 128.91 59.3882 128.693 59.3607C128.477 59.3332 128.277 59.2644 128.088 59.1544C127.899 59.0444 127.737 58.9035 127.607 58.7316C127.473 58.5597 127.38 58.3671 127.325 58.1574C127.266 57.9477 127.253 57.7345 127.28 57.5179C127.311 57.3048 127.38 57.1019 127.487 56.9128C127.597 56.7238 127.737 56.5656 127.909 56.4315C128.081 56.3009 128.274 56.2046 128.484 56.1496C128.693 56.0912 128.906 56.0774 129.123 56.1084C129.34 56.1359 129.539 56.2046 129.728 56.3146C129.917 56.4212 130.079 56.5622 130.209 56.7341C130.343 56.906 130.436 57.0985 130.491 57.3082Z" fill="white"/>
<path d="M146.005 54.7643C144.286 48.2802 137.569 44.3746 131.085 46.1692C130.852 46.2483 130.614 46.3274 130.381 46.403C130.381 46.4821 130.381 46.5612 130.381 46.6368V46.7159V46.7949C130.226 47.2625 129.913 47.6544 129.445 47.8092L126.4 48.7477L126.087 48.8268C126.008 48.9024 126.008 48.9024 125.929 48.9815L124.756 52.3405C124.602 52.808 124.21 53.1209 123.821 53.2H123.742H123.663C123.663 53.2 123.663 53.2 123.588 53.2C123.588 53.2 123.588 53.2 123.508 53.2C123.508 53.2 123.508 53.2 123.429 53.2C123.429 53.2 123.429 53.2 123.35 53.2C123.35 53.2 123.35 53.2 123.275 53.2C123.275 53.2 123.275 53.2 123.196 53.2C123.196 53.2 123.196 53.2 123.117 53.2C123.117 53.2 123.117 53.2 123.037 53.2C123.037 53.2 123.037 53.2 122.962 53.2H122.883C121.869 55.6203 121.631 58.357 122.336 61.0111C124.055 67.4952 130.772 71.4008 137.256 69.6818C143.894 67.9662 147.8 61.324 146.005 54.7643ZM136.943 68.2C131.319 69.6818 125.461 66.3228 123.976 60.6983C123.429 58.7455 123.508 56.7927 124.055 54.919L133.117 52.4986L134.052 48.2011L137.022 51.481L141.474 50.3086C142.88 51.6391 143.894 53.279 144.441 55.2318C145.926 60.8564 142.567 66.6357 136.943 68.2Z" fill="white"/>
<mask id="mask1_64_490" style="mask-type:luminance" maskUnits="userSpaceOnUse" x="120" y="43" width="10" height="10">
<path d="M120.006 43.123H129.687V52.9558H120.006V43.123Z" fill="white"/>
</mask>
<g mask="url(#mask1_64_490)">
<path d="M120.305 49.6073L122.962 52.3405C123.275 52.6534 123.822 52.5743 123.977 52.1067L125.304 48.2802L129.134 47.1079C129.522 46.9497 129.68 46.4821 129.367 46.1693L126.71 43.4361C126.4 43.1232 125.85 43.2023 125.696 43.6698L124.368 47.4963L120.538 48.6687C120.15 48.7478 119.992 49.2944 120.305 49.6073Z" fill="white"/>
</g>
<mask id="mask2_64_490" style="mask-type:luminance" maskUnits="userSpaceOnUse" x="109" y="45" width="16" height="16">
<path d="M109.039 45.0347H124.406V60.877H109.039V45.0347Z" fill="white"/>
</mask>
<g mask="url(#mask2_64_490)">
<path d="M122.102 52.6533L119.679 50.1539C119.369 49.7619 119.211 49.2944 119.369 48.8268C119.524 48.3558 119.837 47.9673 120.304 47.8092L123.821 46.7159L123.897 46.5612C123.275 46.1692 122.336 45.7807 121.477 45.9354C119.916 46.0901 118.431 47.7335 117.179 49.6072C115.852 51.56 114.525 52.808 113.119 52.8871C111.713 53.0452 110.149 51.7938 109.527 51.7938C109.214 51.7938 109.29 52.3404 109.682 53.3581C110.074 54.3723 110.933 55.8575 112.026 57.3393C113.119 58.7455 114.446 59.9178 115.698 60.076C116.946 60.2307 118.197 59.2921 119.29 57.5765C120.383 55.7785 121.322 53.9804 122.102 52.6533Z" fill="white"/>
</g>
<mask id="mask3_64_490" style="mask-type:luminance" maskUnits="userSpaceOnUse" x="16" y="0" width="3" height="6">
<path d="M16.1572 0H18.7976V5.42862H16.1572V0Z" fill="white"/>
</mask>
<g mask="url(#mask3_64_490)">
<path d="M17.3506 4.66873L17.409 4.66529L17.9935 0.921293C18.0382 0.615311 17.911 0.299013 17.6463 0.133989C17.5156 0.0514767 17.3644 0.010221 17.1993 0.0170966C17.0377 0.0205353 16.8899 0.0755432 16.7661 0.164931C16.5152 0.350584 16.412 0.677195 16.4808 0.97974L17.3506 4.66873Z" fill="white"/>
</g>
<path d="M25.6636 3.69932C25.8595 3.45866 25.9077 3.1183 25.7598 2.84326C25.6876 2.70917 25.5776 2.59572 25.4332 2.52008C25.2888 2.44445 25.1341 2.41694 24.9828 2.43413C24.6734 2.46851 24.419 2.69542 24.3296 2.99453L23.2363 6.62163L23.2879 6.64913L25.6636 3.69932Z" fill="white"/>
<path d="M31.432 9.24839C31.4354 9.09711 31.3976 8.9424 31.3116 8.80488C31.2223 8.66736 31.1019 8.56422 30.9644 8.50578C30.679 8.37857 30.3421 8.45077 30.1152 8.66393L27.3545 11.2596L27.3854 11.3078L30.9197 9.94287C31.2119 9.82941 31.4217 9.56125 31.432 9.24839Z" fill="white"/>
<mask id="mask4_64_490" style="mask-type:luminance" maskUnits="userSpaceOnUse" x="28" y="15" width="6" height="4">
<path d="M28.4785 15.9902H33.0029V18.6306H28.4785V15.9902Z" fill="white"/>
</mask>
<g mask="url(#mask4_64_490)">
<path d="M33.2571 17.1866C33.2502 17.0216 33.1952 16.8738 33.1058 16.7534C32.9236 16.499 32.597 16.3959 32.2945 16.4646L28.6055 17.3345L28.6089 17.3929L32.3495 17.9774C32.6589 18.0255 32.9752 17.8949 33.1402 17.6301C33.2193 17.4995 33.264 17.3482 33.2571 17.1866Z" fill="white"/>
</g>
<mask id="mask5_64_490" style="mask-type:luminance" maskUnits="userSpaceOnUse" x="0" y="15" width="5" height="2">
<path d="M0 15.1101H4.71695V16.8704H0V15.1101Z" fill="white"/>
</mask>
<g mask="url(#mask5_64_490)">
<path d="M0.938107 15.282C0.628686 15.2339 0.312389 15.3646 0.147365 15.6293C0.06829 15.7565 0.0270344 15.9112 0.0304722 16.0728C0.0373486 16.2378 0.0923568 16.3856 0.181745 16.5094C0.367398 16.7604 0.69057 16.8635 0.996553 16.7948L4.6821 15.925V15.8665L0.938107 15.282Z" fill="white"/>
</g>
<path d="M2.86057 7.51561C2.72649 7.58781 2.61303 7.69782 2.53396 7.84222C2.45832 7.98661 2.43426 8.14133 2.44801 8.2926C2.48239 8.60202 2.71273 8.85643 3.01184 8.94582L6.63894 10.0391L6.66645 9.98754L3.71663 7.60843C3.47254 7.41247 3.13561 7.36777 2.86057 7.51561Z" fill="white"/>
<path d="M11.2765 5.91679L11.3247 5.88584L9.95978 2.35501C9.84633 2.06278 9.57473 1.85306 9.26187 1.84274C9.11059 1.83931 8.95932 1.87712 8.8218 1.96307C8.68428 2.04902 8.58114 2.17279 8.51926 2.31031C8.39549 2.59567 8.46425 2.93259 8.68084 3.1595L11.2765 5.91679Z" fill="white"/>
<path d="M19.4313 30.196C19.4003 30.196 19.3556 30.2029 19.2972 30.2201L18.2245 30.5261C16.2408 31.0899 14.1883 31.6744 12.1668 32.2348C11.902 32.307 11.8848 32.4308 11.878 32.7058C11.8745 32.7574 11.8745 32.8055 11.8711 32.8571C11.8711 33.5894 12.0739 33.6512 12.2974 33.6512C12.4143 33.6512 12.5553 33.6272 12.7306 33.579C14.8106 32.9946 16.8872 32.4067 18.9671 31.8222C19.2456 31.7397 19.4794 31.53 19.5997 31.2446C19.7338 30.9352 19.7201 30.5914 19.5654 30.3026C19.5104 30.196 19.4657 30.196 19.4313 30.196Z" fill="white"/>
<path d="M11.871 30.777C11.8745 31.5437 12.012 31.5471 12.1598 31.5471C12.263 31.5471 12.4005 31.5196 12.593 31.468C13.2634 31.2789 13.9304 31.0899 14.6008 30.9008C16.0757 30.4813 17.5987 30.0516 19.1012 29.6356C19.4656 29.5324 19.5825 29.4362 19.6065 29.2196L19.6169 29.1543C19.6616 28.7417 19.7028 28.3876 19.445 28.0782C19.4106 28.0335 19.3865 28.03 19.3624 28.03C19.3177 28.03 19.2593 28.0472 19.194 28.0644L19.1665 28.0747C17.2446 28.6179 14.8483 29.2987 12.5483 29.9381C11.761 30.1582 11.8435 30.5982 11.871 30.7426V30.777Z" fill="white"/>
<path d="M14.6309 33.6961C15.2256 33.7236 16.0095 33.7304 16.6249 33.7304C17.034 33.7304 17.4432 33.727 17.8041 33.7236C18.0826 33.7236 18.337 33.7236 18.5502 33.7236C19.0762 33.7201 19.42 33.6101 19.5713 33.3866C19.7226 33.1632 19.7088 32.8022 19.53 32.3105L14.6309 33.6961Z" fill="white"/>
<path d="M12.5001 27.9546H12.3453C12.0669 27.9546 11.9706 28.1677 11.9362 28.295C11.8503 28.6422 11.7918 29.0479 12.005 29.4432L17.0485 28.0165C15.7902 27.9855 13.7927 27.9546 12.5001 27.9546Z" fill="white"/>
<mask id="mask6_64_490" style="mask-type:luminance" maskUnits="userSpaceOnUse" x="13" y="33" width="5" height="3">
<path d="M13.5176 33.5928H17.9182V35.6453H13.5176V33.5928Z" fill="white"/>
</mask>
<g mask="url(#mask6_64_490)">
<path d="M13.7307 34.3252C13.7136 34.6518 13.7961 34.9234 13.9645 35.1091C14.1364 35.3016 14.408 35.4116 14.7484 35.4288C14.8997 35.4357 15.2916 35.4391 15.7454 35.4391C16.2027 35.4391 16.5946 35.4357 16.7424 35.4288C17.0862 35.4116 17.3578 35.3016 17.5297 35.1091C17.6982 34.9234 17.7773 34.6518 17.7601 34.3252H13.7307Z" fill="white"/>
</g>
<path d="M25.4055 17.1833C25.2508 17.6612 24.828 18.0222 24.247 18.1769C23.8757 17.3277 23.6179 16.9976 23.2019 16.8154C22.8238 16.6504 22.5556 16.7123 22.4009 17.0011C22.2531 17.2761 22.339 17.5305 22.6416 17.7196C22.92 17.8949 23.0747 18.0909 23.1057 18.3006C23.1366 18.5138 23.0403 18.751 22.8134 19.0054C22.4731 19.387 22.59 19.6621 22.7447 19.8237C22.8616 19.944 22.9922 20.0024 23.1263 19.999C23.336 19.9956 23.5079 19.8443 23.6144 19.7205C23.8757 19.4145 24.0957 19.253 24.4361 19.3217C24.5461 20.3256 24.0957 21.0923 23.1332 21.5392C23.061 21.5117 23.0369 21.4499 23.006 21.357C22.9922 21.3123 22.975 21.2676 22.951 21.2264C22.7481 20.9032 22.5178 20.8138 22.2428 20.9548C21.9093 21.1232 21.9299 21.4292 21.9849 21.6768C22.1775 22.5466 22.0743 23.2067 21.6859 23.5745C21.3043 23.9424 20.6511 24.018 19.802 23.7911C19.551 23.7224 19.245 23.6914 19.0869 24.0352C18.946 24.3412 19.0525 24.5853 19.4135 24.7882C19.4994 24.8363 19.5991 24.8638 19.692 24.8879C19.8398 24.9291 19.9773 24.9669 20.077 25.0804C20.077 25.1526 20.077 25.2248 20.077 25.2935C20.077 25.5136 20.0804 25.7233 19.9739 25.9158H17.5674V22.33C17.6052 22.354 17.643 22.3781 17.6774 22.3987C17.7599 22.4503 17.8287 22.4916 17.8906 22.5397C17.9421 22.5775 17.9937 22.6222 18.0487 22.6669C18.255 22.8388 18.4887 23.0313 18.7363 23.0038C18.8703 22.9866 18.9941 22.9041 19.1075 22.7529C19.2244 22.5981 19.2691 22.4572 19.245 22.3265C19.2004 22.1065 18.9769 21.969 18.7569 21.8383C18.6778 21.7902 18.5987 21.7421 18.5334 21.6939C17.5227 20.9273 17.3543 20.1056 17.9731 18.947C18.1346 18.6444 18.09 18.3866 17.8562 18.2559C17.4093 18.005 17.4574 17.6508 17.5124 17.2795C17.5365 17.1042 17.5605 16.9254 17.533 16.757C17.478 16.4338 17.5227 16.1759 17.6671 15.9903C17.8218 15.7874 18.09 15.6671 18.4647 15.6259C18.6091 15.6121 18.7259 15.5537 18.805 15.4574C18.8841 15.3577 18.915 15.2236 18.8978 15.0723C18.86 14.7835 18.6606 14.6116 18.3615 14.6082C18.169 14.6082 17.9868 14.6254 17.7737 14.646C17.6912 14.6529 17.6087 14.6598 17.5193 14.6667C17.5434 14.3469 17.5296 14.0272 17.5193 13.7178C17.4952 13.037 17.4677 12.3907 17.8252 11.7719C17.9009 11.6412 17.9421 11.4521 17.8252 11.3112C17.3887 10.7783 17.454 10.1697 17.5193 9.5784C17.5399 9.37556 17.564 9.1624 17.5674 8.95612C17.5709 8.39229 17.9387 7.94534 18.5541 7.76657C19.1832 7.58435 19.6816 7.715 20.077 8.16882C19.9704 8.23758 19.8604 8.29946 19.7504 8.36134C19.4444 8.54012 19.1557 8.70514 18.946 8.99738C18.7672 9.25179 18.7775 9.49589 18.9769 9.70217C19.1763 9.91532 19.4272 9.93252 19.6748 9.74686C19.7366 9.69873 19.7951 9.64716 19.8501 9.59559C19.9154 9.53714 19.9807 9.4787 20.0529 9.42713C20.8299 8.88736 21.9712 9.00769 22.5934 9.69873C23.2432 10.4138 23.2535 11.4109 22.6312 12.2016C21.9953 11.6928 21.3971 11.5071 20.7474 11.6137L20.7336 11.6171C20.3761 11.6756 19.9292 11.7478 19.9739 12.26C19.9842 12.4251 20.0357 12.542 20.1286 12.621C20.2867 12.7517 20.5273 12.7242 20.7611 12.7001L20.8436 12.6898C21.2802 12.6451 21.6721 12.7792 21.9265 13.0577C22.1465 13.3018 22.2325 13.6318 22.1603 13.9825C22.1362 14.1063 22.0812 14.2266 22.0296 14.3435C22.0159 14.3744 22.0021 14.4054 21.9884 14.4363C21.8302 14.8042 21.9128 15.0861 22.2222 15.2271C22.6072 15.4024 22.8306 15.1067 22.9681 14.8729C23.2088 14.4501 23.2947 14.1166 23.2432 13.8243C23.1504 13.2983 23.3738 12.9855 23.7726 12.6589C24.0098 12.817 24.1714 13.0439 24.2745 13.3671C24.5083 14.1063 24.3948 14.7664 23.9307 15.3302C23.7038 15.6087 23.7038 15.8803 23.9342 16.0934C24.1886 16.3341 24.467 16.3066 24.7455 16.0178C24.8074 15.949 24.8692 15.8768 24.9414 15.7943C24.9724 15.7599 25.0033 15.7256 25.0377 15.6843C25.4262 16.1553 25.5602 16.702 25.4055 17.1833ZM14.6384 25.9193H13.2461C12.7477 25.9158 11.8779 25.909 11.5341 25.8986C11.5273 25.8539 11.5238 25.8161 11.5169 25.7783C11.5032 25.6752 11.4894 25.5858 11.4826 25.493C11.2625 23.3889 10.6059 21.6664 9.47491 20.2259C6.94128 17.0011 7.41225 12.4457 10.5406 9.85688C11.7885 8.82548 13.1293 8.30977 14.6384 8.27539V25.9193ZM25.4502 14.0719C25.4812 13.1711 25.1546 12.4148 24.4773 11.8269C24.2195 11.6 24.1679 11.3765 24.1679 11.0636C24.1679 9.54402 23.2191 8.37166 21.7581 8.07255C21.4143 8.00379 21.2286 7.84908 21.0464 7.62217C20.3004 6.70422 19.2072 6.38793 18.1278 6.77298C17.0689 7.15116 16.4845 8.03129 16.4811 9.24835C16.4742 11.2355 16.4742 13.2536 16.4776 15.2064C16.4776 16.0178 16.4776 16.8292 16.4776 17.6371V17.6852H16.4845V20.0987C16.4845 22.0378 16.4845 23.9802 16.4845 25.9193H15.7454C15.7454 23.7671 15.7454 21.6149 15.7454 19.4592V15.4093C15.7454 13.013 15.7454 10.6201 15.7454 8.22382C15.7454 7.69437 15.7179 7.41589 15.5598 7.26806C15.3947 7.10991 15.1094 7.10991 14.5422 7.14429C10.8775 7.3712 7.67352 10.1732 6.91721 13.814C6.40842 16.2653 6.90346 18.5447 8.39201 20.5835C9.72587 22.4125 10.3894 24.2484 10.4169 26.1977C10.4169 26.2115 10.4203 26.2321 10.4203 26.2596C10.434 26.6963 10.7881 27.0366 11.2247 27.0366H20.2936C20.5101 27.0366 20.7164 26.9541 20.8677 26.796C21.0224 26.6447 21.1014 26.4384 21.098 26.2218C21.0774 25.5342 21.1324 24.9016 22.0056 24.6128C22.4662 24.4615 22.8616 23.9871 23.006 23.413C23.1435 22.8801 23.4357 22.6257 23.8688 22.3884C24.9827 21.7765 25.5705 20.721 25.574 19.3458C25.5774 18.9642 25.6221 18.7063 25.8696 18.4244C26.8425 17.307 26.7875 15.8768 25.7287 14.7801C25.5155 14.5601 25.4399 14.3607 25.4502 14.0719Z" fill="white"/>
<path d="M18.0948 71.1404C25.9466 69.2839 25.9741 63.3018 24.3515 56.4395L22.8389 50.0448C21.3813 43.8701 23.8977 42.2199 23.1414 39.0569C22.5364 36.4853 19.4699 35.7977 16.6646 36.4578C13.7219 37.1591 11.0817 39.3457 11.8105 42.4262C12.5943 45.7542 15.4958 45.3004 17.0084 51.7088L18.191 56.7008C19.7036 63.068 19.7174 65.9147 17.5172 66.4372C16.3071 66.726 15.3858 65.9559 14.9458 64.0856C14.6432 62.8205 14.9045 61.8303 14.5607 60.3726C14.1344 58.5573 12.7318 57.0033 10.1191 57.6222C7.64394 58.2135 5.11375 60.2626 6.10382 64.457C6.91514 67.8675 11.178 72.7769 18.0948 71.1404Z" fill="white"/>
<path d="M53.9094 51.6233C53.4419 48.9829 53.5932 47.0438 54.3632 45.2011C54.7895 44.2384 54.927 43.1933 54.7757 42.3406C54.4182 40.3603 52.5893 39.4252 50.0454 39.8928C46.9239 40.4429 44.7925 42.6294 45.1912 44.8435C45.315 45.5449 45.6175 46.15 46.2913 46.9476C47.6527 48.5566 48.3815 50.2206 48.684 51.8846C49.3303 55.4738 47.5152 58.1005 43.9261 58.7468C41.2309 59.2281 39.7871 57.7842 39.0995 53.9474C38.7145 51.7745 38.907 49.588 39.6221 47.8552C40.0346 46.8926 40.1996 45.8474 40.0483 44.9948C39.6908 43.0145 37.8482 42.0793 35.2905 42.5332C32.1827 43.097 30.0376 45.2836 30.4363 47.4977C30.5739 48.254 30.8764 48.8454 31.5502 49.6567C33.3516 51.7608 33.6678 52.4484 34.0391 54.5662C34.1629 55.2401 34.4929 57.9079 34.6029 58.5268C35.483 63.4775 37.8482 65.6916 41.2997 65.0728C43.7611 64.6189 45.1087 63.6976 46.8689 61.291C47.8452 59.9433 48.2577 59.5719 48.8903 59.4619C49.6466 59.3244 50.1004 59.7645 50.2929 60.8646C50.5817 62.4186 50.9942 63.3263 52.9331 62.9825C55.7658 62.4736 57.9797 60.1633 57.6085 58.1417C57.471 57.3854 57.0997 56.8628 56.2471 56.1339C54.927 55.0613 54.322 53.8924 53.9094 51.6233Z" fill="white"/>
<path d="M86.2759 57.3927C84.7082 55.1098 84.4607 54.4085 84.2957 52.3457C84.2407 51.6856 84.1719 48.8801 84.1169 48.2613C83.7182 43.2418 81.5867 40.8077 78.094 41.0827C76.0726 41.2478 74.6562 42.0454 72.6623 44.2732C71.5622 45.5109 71.1084 45.8409 70.5721 45.8822C70.1871 45.9097 69.8021 45.6897 69.6921 44.3145C69.5683 42.733 69.2383 41.7978 67.2719 41.9491C64.3979 42.1829 61.9777 44.2594 62.1427 46.3085C62.1977 47.0786 62.5415 47.6287 63.3116 48.4401C64.5079 49.6365 64.9892 50.8467 65.1817 53.2395C65.388 55.8249 65.058 57.7365 64.1091 59.4967C63.6003 60.4043 63.3528 61.4495 63.4216 62.3021C63.5728 64.3099 65.2917 65.4238 67.8769 65.2176C71.0397 64.97 73.3774 63.0035 73.1986 60.7619C73.1436 60.033 72.8961 59.428 72.2635 58.5478C71.1084 56.8288 70.5446 55.0823 70.4209 53.4871C70.1184 49.7603 71.7135 47.3812 75.3438 47.0924C77.5852 46.9136 78.8778 48.4813 79.1941 52.4694C79.3591 54.5597 78.9603 56.7326 78.0802 58.369C77.5714 59.2904 77.3102 60.3356 77.3789 61.1882C77.5302 63.196 79.2628 64.3099 81.848 64.1036C85.0108 63.8561 87.3622 61.8758 87.1834 59.6342C87.1284 58.8641 86.8809 58.2453 86.2759 57.3927Z" fill="white"/>
<path d="M101.684 37.8332C104.187 37.8332 106.731 36.4855 106.731 33.6113C106.731 31.4385 104.751 30.3933 102.496 30.3933C99.8141 30.3933 96.8299 31.9198 96.8299 34.3264C96.8299 36.5817 99.2365 37.8332 101.684 37.8332ZM100.914 64.7734C103.651 64.7734 106.58 63.3295 106.58 60.7441C106.58 59.8777 106.25 59.2038 105.81 58.475C105.191 57.3748 104.421 55.8896 104.421 52.3278C104.421 49.0686 105.095 48.2022 105.672 47.2946C106.003 46.8132 106.58 45.9469 106.58 44.7504C106.58 42.5914 104.614 41.5325 102.358 41.5325C99.6628 41.5325 96.6924 43.0589 96.6924 45.4655C96.6924 46.4282 97.1737 47.047 97.6963 47.6796C98.3701 48.491 99.1815 49.2061 99.1815 52.5203C99.1815 56.0821 98.3289 57.6636 97.6 58.7638C97.3112 59.2038 96.6924 60.2077 96.6924 61.5004C96.6924 63.7695 98.6589 64.7734 100.914 64.7734Z" fill="white"/>
<path d="M193.406 47.1433C189.377 46.9645 188.662 51.1176 187.163 51.0488C186.393 51.0076 186.05 50.4575 186.105 49.3573C186.173 47.7896 185.967 46.8132 184.014 46.7307C181.127 46.5932 178.459 48.3534 178.363 50.4025C178.335 51.1726 178.596 51.7639 179.27 52.6578C180.315 54.0055 180.645 55.2707 180.535 57.6636C180.425 60.2627 179.848 62.1192 178.679 63.7282C178.06 64.5671 177.689 65.571 177.648 66.4236C177.565 68.4452 179.146 69.7654 181.732 69.8891C184.894 70.0267 187.452 68.3627 187.562 66.1073C187.59 65.3785 187.425 64.7596 186.888 63.8107C185.967 61.9542 185.623 60.1664 185.692 58.5712C185.857 54.8307 188.208 52.6716 190.409 52.7678C191.467 52.8229 192.499 53.4417 192.458 54.5006C192.43 55.1194 192.169 55.5045 192.114 56.3021C192.059 57.9524 193.393 58.8187 195.001 58.8875C197.064 58.9838 198.866 57.2923 198.989 54.3631C199.154 50.76 197.49 47.3358 193.406 47.1433Z" fill="white"/>
</svg>
