<svg width="52" height="52" viewBox="0 0 52 52" fill="none" xmlns="http://www.w3.org/2000/svg">
<circle cx="26" cy="26" r="26" fill="white"/>
<path d="M27.234 14.125C28.584 14.1286 29.2691 14.1358 29.8607 14.1526L30.0935 14.161C30.3623 14.1706 30.6275 14.1826 30.9479 14.197C32.2247 14.257 33.0958 14.4586 33.8602 14.755C34.6522 15.0598 35.3194 15.4726 35.9866 16.1386C36.5968 16.7384 37.0689 17.464 37.3701 18.2649C37.6665 19.0293 37.8681 19.9005 37.9281 21.1784C37.9425 21.4976 37.9545 21.7628 37.9641 22.0328L37.9713 22.2656C37.9893 22.856 37.9965 23.5412 37.9989 24.8911L38.0001 25.7863V27.3583C38.0031 28.2336 37.9939 29.1088 37.9725 29.9838L37.9653 30.2166C37.9557 30.4866 37.9437 30.7518 37.9293 31.071C37.8693 32.349 37.6653 33.219 37.3701 33.9845C37.0698 34.7858 36.5975 35.5116 35.9866 36.1109C35.3865 36.7209 34.661 37.193 33.8602 37.4945C33.0958 37.7908 32.2247 37.9924 30.9479 38.0524C30.6632 38.0658 30.3784 38.0778 30.0935 38.0884L29.8607 38.0956C29.2691 38.1124 28.584 38.1208 27.234 38.1232L26.3388 38.1244H24.768C23.8924 38.1275 23.0167 38.1183 22.1413 38.0968L21.9085 38.0896C21.6236 38.0788 21.3388 38.0665 21.0541 38.0524C19.7774 37.9924 18.9062 37.7908 18.1406 37.4945C17.3398 37.1937 16.6145 36.7215 16.0154 36.1109C15.4047 35.5112 14.9321 34.7856 14.6307 33.9845C14.3343 33.2202 14.1327 32.349 14.0727 31.071C14.0593 30.7863 14.0473 30.5015 14.0367 30.2166L14.0307 29.9838C14.0086 29.1088 13.9986 28.2336 14.0007 27.3583V24.8911C13.9973 24.0159 14.0061 23.1406 14.0271 22.2656L14.0355 22.0328C14.0451 21.7628 14.0571 21.4976 14.0715 21.1784C14.1315 19.9005 14.3331 19.0305 14.6295 18.2649C14.9308 17.4632 15.4043 16.7374 16.0166 16.1386C16.6155 15.5283 17.3404 15.0562 18.1406 14.755C18.9062 14.4586 19.7762 14.257 21.0541 14.197C21.3733 14.1826 21.6397 14.1706 21.9085 14.161L22.1413 14.1538C23.0163 14.1325 23.8916 14.1233 24.7668 14.1262L27.234 14.125ZM26.0004 20.1249C24.4092 20.1249 22.8831 20.757 21.7579 21.8822C20.6327 23.0074 20.0006 24.5335 20.0006 26.1247C20.0006 27.716 20.6327 29.2421 21.7579 30.3673C22.8831 31.4925 24.4092 32.1246 26.0004 32.1246C27.5917 32.1246 29.1178 31.4925 30.243 30.3673C31.3681 29.2421 32.0003 27.716 32.0003 26.1247C32.0003 24.5335 31.3681 23.0074 30.243 21.8822C29.1178 20.757 27.5917 20.1249 26.0004 20.1249ZM26.0004 22.5248C26.4732 22.5247 26.9413 22.6178 27.3781 22.7986C27.8149 22.9794 28.2118 23.2445 28.5461 23.5788C28.8805 23.913 29.1457 24.3098 29.3267 24.7465C29.5077 25.1833 29.6009 25.6514 29.6009 26.1241C29.601 26.5969 29.508 27.065 29.3271 27.5018C29.1463 27.9386 28.8812 28.3355 28.547 28.6698C28.2127 29.0042 27.8159 29.2694 27.3792 29.4504C26.9425 29.6314 26.4744 29.7246 26.0016 29.7246C25.0469 29.7246 24.1312 29.3454 23.4561 28.6702C22.781 27.9951 22.4017 27.0795 22.4017 26.1247C22.4017 25.17 22.781 24.2543 23.4561 23.5792C24.1312 22.9041 25.0469 22.5248 26.0016 22.5248M32.3015 18.3249C31.9037 18.3249 31.5221 18.4829 31.2408 18.7642C30.9595 19.0455 30.8015 19.4271 30.8015 19.8249C30.8015 20.2227 30.9595 20.6042 31.2408 20.8855C31.5221 21.1668 31.9037 21.3248 32.3015 21.3248C32.6993 21.3248 33.0808 21.1668 33.3621 20.8855C33.6434 20.6042 33.8014 20.2227 33.8014 19.8249C33.8014 19.4271 33.6434 19.0455 33.3621 18.7642C33.0808 18.4829 32.6993 18.3249 32.3015 18.3249Z" fill="#63518C"/>
</svg>
