<svg width="52" height="52" viewBox="0 0 52 52" fill="none" xmlns="http://www.w3.org/2000/svg">
<circle cx="26" cy="26" r="26" fill="white"/>
<path d="M35.3333 14.125C36.0406 14.125 36.7189 14.406 37.219 14.906C37.719 15.4061 38 16.0844 38 16.7917V35.4583C38 36.1656 37.719 36.8439 37.219 37.344C36.7189 37.844 36.0406 38.125 35.3333 38.125H16.6667C15.9594 38.125 15.2811 37.844 14.781 37.344C14.281 36.8439 14 36.1656 14 35.4583V16.7917C14 16.0844 14.281 15.4061 14.781 14.906C15.2811 14.406 15.9594 14.125 16.6667 14.125H35.3333ZM34.6667 34.7917V27.725C34.6667 26.5722 34.2087 25.4666 33.3936 24.6514C32.5784 23.8363 31.4728 23.3783 30.32 23.3783C29.1867 23.3783 27.8667 24.0717 27.2267 25.1117V23.6317H23.5067V34.7917H27.2267V28.2183C27.2267 27.1917 28.0533 26.3517 29.08 26.3517C29.5751 26.3517 30.0499 26.5483 30.3999 26.8984C30.75 27.2485 30.9467 27.7233 30.9467 28.2183V34.7917H34.6667ZM19.1733 21.5383C19.7674 21.5383 20.3372 21.3023 20.7573 20.8823C21.1773 20.4622 21.4133 19.8924 21.4133 19.2983C21.4133 18.0583 20.4133 17.045 19.1733 17.045C18.5757 17.045 18.0026 17.2824 17.58 17.705C17.1574 18.1276 16.92 18.7007 16.92 19.2983C16.92 20.5383 17.9333 21.5383 19.1733 21.5383ZM21.0267 34.7917V23.6317H17.3333V34.7917H21.0267Z" fill="#63518C"/>
</svg>
