<svg width="1440" height="477" viewBox="0 0 1440 477" fill="none" xmlns="http://www.w3.org/2000/svg">
<path fill-rule="evenodd" clip-rule="evenodd" d="M1121.05 385.301C1120.5 387.852 1120.23 390.436 1120.23 393.049C1120.23 439.414 1207.93 477 1316.11 477C1424.3 477 1512 439.414 1512 393.049C1512 368.824 1488.06 346.995 1449.76 331.672H1458.57V0L-2.19727 0V248.745C-49.7616 259.965 -83.9994 291.338 -83.9994 328.286C-83.9994 374.651 -30.0844 412.238 36.4232 412.238C82.173 412.238 121.964 394.452 142.346 368.258C176.529 380.727 220.834 388.251 269.24 388.251C333.574 388.251 390.665 374.96 426.377 354.435C447.796 377.662 485.194 393.049 527.746 393.049C570.299 393.049 607.697 377.662 629.116 354.434C664.828 374.96 721.919 388.251 786.253 388.251C861.932 388.251 927.587 369.859 960.21 342.935C978.876 372.448 1021.21 393.049 1070.45 393.049C1088.52 393.049 1105.66 390.273 1121.05 385.301Z" fill="#3C3155"/>
</svg>
