<svg width="375" height="188" viewBox="0 0 375 188" fill="none" xmlns="http://www.w3.org/2000/svg">
<path d="M373.884 0.708496H1.11995C0.499907 0.708496 0 0.958102 0 1.26769V187.389C0 187.698 0.499907 187.948 1.11995 187.948H373.884C374.5 187.948 375 187.698 375 187.389V1.26769C375 0.958102 374.5 0.708496 373.884 0.708496ZM171.677 102.231V86.426H203.327V102.231H171.677ZM203.327 103.347V119.15H171.677V103.347H203.327ZM137.788 86.426H169.441V102.231H137.788V86.426ZM135.552 102.231H103.899V86.426H135.552V102.231ZM171.677 85.3096V69.507H203.327V85.3096H171.677ZM205.563 86.426H237.216V102.231H205.563V86.426ZM239.452 86.426H271.105V102.231H239.452V86.426ZM239.452 85.3096V69.507H271.105V85.3096H239.452ZM237.216 85.3096H205.563V69.507H237.216V85.3096ZM205.563 68.3886V52.586H237.216V68.3886H205.563ZM203.327 68.3886H171.677V52.586H203.327V68.3886ZM169.441 68.3886H137.788V52.586H169.441V68.3886ZM169.441 69.507V85.3096H137.788V69.507H169.441ZM135.552 85.3096H103.899V69.507H135.552V85.3096ZM101.663 85.3096H70.0141V69.507H101.663V85.3096ZM101.663 86.426V102.231H70.0141V86.426H101.663ZM101.663 103.347V119.15H70.0141V103.347H101.663ZM103.899 103.347H135.552V119.15H103.899V103.347ZM137.788 103.347H169.441V119.15H137.788V103.347ZM169.441 120.268V136.071H137.788V120.268H169.441ZM171.677 120.268H203.327V136.071H171.677V120.268ZM205.563 120.268H237.216V136.071H205.563V120.268ZM205.563 119.15V103.347H237.216V119.15H205.563ZM239.452 103.347H271.105V119.15H239.452V103.347ZM273.341 103.347H304.99V119.15H273.341V103.347ZM273.341 102.231V86.426H304.99V102.231H273.341ZM273.341 85.3096V69.507H304.99V85.3096H273.341ZM273.341 68.3886V52.586H304.99V68.3886H273.341ZM271.105 68.3886H239.452V52.586H271.105V68.3886ZM239.452 51.4695V35.665H271.105V51.4695H239.452ZM237.216 51.4695H205.563V35.665H237.216V51.4695ZM203.327 51.4695H171.677V35.665H203.327V51.4695ZM169.441 51.4695H137.788V35.665H169.441V51.4695ZM135.552 51.4695H103.899V35.665H135.552V51.4695ZM135.552 52.586V68.3905H103.899V52.586H135.552ZM101.663 68.3886H70.0141V52.586H101.663V68.3886ZM67.7781 68.3886H36.1251V52.586H67.7781V68.3886ZM67.7781 69.507V85.3096H36.1251V69.507H67.7781ZM67.7781 86.426V102.231H36.1251V86.426H67.7781ZM67.7781 103.347V119.15H36.1251V103.347H67.7781ZM67.7781 120.268V136.071H36.1251V120.268H67.7781ZM70.0141 120.268H101.663V136.071H70.0141V120.268ZM103.899 120.268H135.552V136.071H103.899V120.268ZM135.552 137.187V152.992H103.899V137.187H135.552ZM137.788 137.187H169.441V152.992H137.788V137.187ZM171.677 137.187H203.327V152.992H171.677V137.187ZM205.563 137.187H237.216V152.992H205.563V137.187ZM239.452 137.187H271.105V152.992H239.452V137.187ZM239.452 136.071V120.268H271.105V136.071H239.452ZM273.341 120.268H304.99V136.071H273.341V120.268ZM307.226 120.268H338.879V136.071H307.226V120.268ZM307.226 119.15V103.347H338.879V119.15H307.226ZM307.226 102.231V86.426H338.879V102.231H307.226ZM307.226 85.3096V69.507H338.879V85.3096H307.226ZM307.226 68.3886V52.586H338.879V68.3886H307.226ZM307.226 51.4695V35.665H338.879V51.4695H307.226ZM304.99 51.4695H273.341V35.665H304.99V51.4695ZM273.341 34.5485V18.7459H304.99V34.5485H273.341ZM271.105 34.5485H239.452V18.7459H271.105V34.5485ZM237.216 34.5485H205.563V18.7459H237.216V34.5485ZM203.327 34.5485H171.677V18.7459H203.327V34.5485ZM169.441 34.5485H137.788V18.7459H169.441V34.5485ZM135.552 34.5485H103.899V18.7459H135.552V34.5485ZM101.663 34.5485H70.0141V18.7459H101.663V34.5485ZM101.663 35.665V51.4695H70.0141V35.665H101.663ZM67.7781 51.4695H36.1251V35.665H67.7781V51.4695ZM33.889 51.4695H2.23989V35.665H33.889V51.4695ZM33.889 52.586V68.3905H2.23989V52.586H33.889ZM33.889 69.507V85.3096H2.23989V69.507H33.889ZM33.889 86.426V102.231H2.23989V86.426H33.889ZM33.889 103.347V119.15H2.23989V103.347H33.889ZM33.889 120.268V136.071H2.23989V120.268H33.889ZM33.889 137.187V152.992H2.23989V137.187H33.889ZM36.1251 137.187H67.7781V152.992H36.1251V137.187ZM70.0141 137.187H101.663V152.992H70.0141V137.187ZM101.663 154.108V169.911H70.0141V154.108H101.663ZM103.899 154.108H135.552V169.911H103.899V154.108ZM137.788 154.108H169.441V169.911H137.788V154.108ZM171.677 154.108H203.327V169.911H171.677V154.108ZM205.563 154.108H237.216V169.911H205.563V154.108ZM239.452 154.108H271.105V169.911H239.452V154.108ZM273.341 154.108H304.99V169.911H273.341V154.108ZM273.341 152.992V137.187H304.99V152.992H273.341ZM307.226 137.187H338.879V152.992H307.226V137.187ZM341.115 137.187H372.764V152.992H341.115V137.187ZM341.115 136.071V120.268H372.764V136.071H341.115ZM341.115 119.15V103.347H372.764V119.15H341.115ZM341.115 102.231V86.426H372.764V102.231H341.115ZM341.115 85.3096V69.507H372.764V85.3096H341.115ZM341.115 68.3886V52.586H372.764V68.3886H341.115ZM341.115 51.4695V35.665H372.764V51.4695H341.115ZM341.115 34.5485V18.7459H372.764V34.5485H341.115ZM338.879 34.5485H307.226V18.7459H338.879V34.5485ZM307.226 17.6295V1.82495H338.879V17.6295H307.226ZM304.99 17.6295H273.341V1.82495H304.99V17.6295ZM271.105 17.6295H239.452V1.82495H271.105V17.6295ZM237.216 17.6295H205.563V1.82495H237.216V17.6295ZM203.327 17.6295H171.677V1.82495H203.327V17.6295ZM169.441 17.6295H137.788V1.82495H169.441V17.6295ZM135.552 17.6295H103.899V1.82495H135.552V17.6295ZM101.663 17.6295H70.0141V1.82495H101.663V17.6295ZM67.7781 17.6295H36.1251V1.82495H67.7781V17.6295ZM67.7781 18.7459V34.5485H36.1251V18.7459H67.7781ZM33.889 34.5485H2.23989V18.7459H33.889V34.5485ZM2.23989 154.108H33.889V169.911H2.23989V154.108ZM36.1251 154.108H67.7781V169.911H36.1251V154.108ZM67.7781 171.027V186.832H36.1251V171.027H67.7781ZM70.0141 171.027H101.663V186.832H70.0141V171.027ZM103.899 171.027H135.552V186.832H103.899V171.027ZM137.788 171.027H169.441V186.832H137.788V171.027ZM171.677 171.027H203.327V186.832H171.677V171.027ZM205.563 171.027H237.216V186.832H205.563V171.027ZM239.452 171.027H271.105V186.832H239.452V171.027ZM273.341 171.027H304.99V186.832H273.341V171.027ZM307.226 171.027H338.879V186.832H307.226V171.027ZM307.226 169.911V154.108H338.879V169.911H307.226ZM341.115 154.108H372.764V169.911H341.115V154.108ZM372.764 17.6295H341.115V1.82495H372.764V17.6295ZM33.889 1.82495V17.6295H2.23989V1.82495H33.889ZM2.23989 171.027H33.889V186.832H2.23989V171.027ZM341.115 186.832V171.027H372.764V186.832H341.115Z" fill="#ECECEC" fill-opacity="0.2"/>
</svg>
