<svg width="1440" height="681" viewBox="0 0 1440 681" fill="none" xmlns="http://www.w3.org/2000/svg">
<path fill-rule="evenodd" clip-rule="evenodd" d="M239.145 76.103C239.744 73.9856 240.05 71.8408 240.05 69.6729C240.05 31.1936 143.556 0 24.5251 0C-94.5061 0 -191 31.1936 -191 69.6729C-191 97.598 -140.18 121.686 -66.8071 132.799V681H1478.46V188.788C1528.99 178.962 1565 153.403 1565 123.421C1565 84.9413 1505.68 53.7477 1432.51 53.7477C1382.17 53.7477 1338.39 68.5082 1315.96 90.2472C1278.35 79.899 1229.61 73.6542 1176.35 73.6542C1105.56 73.6542 1042.75 84.6852 1003.46 101.72C979.891 82.4425 938.744 69.6729 891.926 69.6729C845.107 69.6729 803.96 82.4425 780.393 101.72C741.102 84.6852 678.287 73.6542 607.503 73.6542C524.237 73.6542 452 88.9184 416.107 111.263C395.569 86.7701 348.989 69.6729 294.815 69.6729C274.931 69.6729 256.07 71.9762 239.145 76.103Z" fill="url(#paint0_linear_64_480)"/>
<defs>
<linearGradient id="paint0_linear_64_480" x1="-191" y1="0" x2="1592.35" y2="599.649" gradientUnits="userSpaceOnUse">
<stop offset="0.0480546" stop-color="#3C3155"/>
<stop offset="1" stop-color="#63518C"/>
</linearGradient>
</defs>
</svg>
