<svg width="160" height="44" viewBox="0 0 160 44" fill="none" xmlns="http://www.w3.org/2000/svg">
<mask id="mask0_64_282" style="mask-type:luminance" maskUnits="userSpaceOnUse" x="116" y="29" width="23" height="15">
<path d="M116.3 29.6618H138.086V43.5217H116.3V29.6618Z" fill="white"/>
</mask>
<g mask="url(#mask0_64_282)">
<path d="M136.922 30.8637C134.221 31.028 131.521 31.3564 128.884 30.741C127.063 30.3314 125.305 29.6347 123.608 30.6183C123.42 30.7013 123.295 30.8637 123.232 31.0695C120.343 31.7661 117.955 33.3253 117.076 35.4566C115.694 38.8603 118.773 42.3866 124.047 43.289C129.26 44.1913 134.661 42.1827 136.043 38.7376C136.734 37.0159 136.294 35.2112 134.976 33.7765C135.728 33.448 136.358 33.0384 136.798 32.6684C137.237 32.34 137.864 31.8076 137.989 31.3149C138.18 30.741 137.989 30.824 136.922 30.8637ZM134.788 38.5318C133.594 41.4843 128.884 43.2475 124.362 42.4696C119.84 41.69 117.14 38.6148 118.334 35.6624C119.022 33.9407 120.971 32.5872 123.295 31.9718C123.42 32.2172 123.671 32.5042 123.983 32.7514C125.178 33.6935 127.439 34.6373 130.327 34.6788C131.585 34.7185 132.779 34.5146 133.782 34.2277C135.04 35.4566 135.416 37.0159 134.788 38.5318Z" fill="#F7D671"/>
</g>
<path d="M128.444 39.4341C126.623 39.3529 124.865 39.066 123.231 38.5318C122.604 38.3278 121.786 38.6148 121.849 39.1057C121.849 39.9268 122.98 40.8706 124.926 41.2388C126.935 41.5672 128.569 41.1576 129.26 40.4195C129.575 40.008 129.135 39.4756 128.444 39.4341Z" fill="#F7D671"/>
<path d="M131.244 36.1189C131.413 36.1478 131.565 36.1983 131.706 36.2669C131.844 36.3373 131.957 36.4221 132.043 36.5195C132.131 36.6188 132.187 36.7253 132.209 36.839C132.231 36.9509 132.22 37.0628 132.176 37.1728C132.131 37.2847 132.054 37.384 131.949 37.4742C131.841 37.5663 131.714 37.6402 131.562 37.6962C131.41 37.7539 131.247 37.79 131.073 37.8045C130.901 37.8189 130.73 37.8117 130.561 37.7828C130.393 37.7521 130.238 37.7034 130.1 37.6348C129.959 37.5645 129.848 37.4796 129.76 37.3822C129.671 37.2829 129.616 37.1764 129.594 37.0628C129.572 36.9509 129.583 36.839 129.627 36.7271C129.674 36.617 129.749 36.5177 129.857 36.4257C129.962 36.3355 130.092 36.2615 130.244 36.2055C130.393 36.1478 130.556 36.1117 130.73 36.0972C130.904 36.0828 131.076 36.09 131.244 36.1189Z" fill="#F7D671"/>
<path d="M123.322 34.7419C123.491 34.7708 123.646 34.8213 123.784 34.8899C123.922 34.9603 124.036 35.0433 124.124 35.1426C124.21 35.2418 124.265 35.3483 124.29 35.4602C124.312 35.5739 124.301 35.6858 124.257 35.7959C124.21 35.906 124.135 36.007 124.027 36.0973C123.922 36.1875 123.792 36.2615 123.64 36.3192C123.488 36.377 123.328 36.4131 123.154 36.4275C122.98 36.442 122.808 36.4347 122.64 36.4059C122.471 36.3752 122.316 36.3265 122.178 36.2561C122.04 36.1875 121.927 36.1027 121.838 36.0034C121.752 35.906 121.697 35.7995 121.675 35.6858C121.65 35.5721 121.661 35.4602 121.708 35.3501C121.752 35.24 121.83 35.139 121.935 35.0487C122.043 34.9585 122.17 34.8845 122.322 34.8286C122.474 34.7708 122.637 34.7347 122.808 34.7203C122.982 34.704 123.154 34.7113 123.322 34.7419Z" fill="#F7D671"/>
<path d="M111.3 32.3399C109.666 32.8741 107.908 33.1611 106.087 33.2423C105.332 33.2838 104.956 33.7765 105.332 34.1861C106.023 34.8827 107.657 35.3339 109.666 35.0054C111.675 34.6373 112.742 33.7349 112.742 32.8741C112.742 32.4229 111.991 32.136 111.3 32.3399Z" fill="#F7D671"/>
<path d="M112.825 29.1655C112.872 29.2756 112.883 29.3875 112.861 29.5012C112.836 29.6131 112.781 29.7195 112.695 29.8188C112.607 29.9181 112.493 30.0011 112.355 30.0714C112.217 30.14 112.062 30.1906 111.894 30.2194C111.725 30.2501 111.554 30.2573 111.379 30.2411C111.208 30.2267 111.045 30.1906 110.893 30.1346C110.741 30.0769 110.614 30.0029 110.506 29.9126C110.398 29.8224 110.324 29.7213 110.279 29.6113C110.232 29.5012 110.221 29.3893 110.243 29.2756C110.268 29.1619 110.324 29.0554 110.409 28.958C110.498 28.8587 110.611 28.7739 110.749 28.7053C110.887 28.6349 111.042 28.5862 111.211 28.5555C111.379 28.5266 111.551 28.5194 111.725 28.5339C111.899 28.5483 112.059 28.5844 112.211 28.6421C112.363 28.6999 112.493 28.7739 112.598 28.8641C112.706 28.9544 112.781 29.0554 112.825 29.1655Z" fill="#F7D671"/>
<path d="M104.917 30.5605C104.964 30.6706 104.975 30.7825 104.953 30.8962C104.928 31.0099 104.873 31.1164 104.787 31.2138C104.698 31.3131 104.585 31.3979 104.447 31.4665C104.309 31.5369 104.154 31.5856 103.985 31.6163C103.817 31.6452 103.645 31.6524 103.471 31.6379C103.297 31.6235 103.137 31.5874 102.985 31.5297C102.833 31.4719 102.703 31.3979 102.598 31.3077C102.49 31.2174 102.415 31.1164 102.371 31.0063C102.324 30.8962 102.313 30.7843 102.335 30.6706C102.36 30.5587 102.415 30.4523 102.501 30.353C102.589 30.2537 102.703 30.1707 102.841 30.1003C102.979 30.0318 103.134 29.9812 103.303 29.9524C103.471 29.9217 103.643 29.9145 103.817 29.9307C103.991 29.9451 104.151 29.9812 104.303 30.039C104.455 30.0949 104.585 30.1689 104.69 30.2592C104.798 30.3494 104.873 30.4505 104.917 30.5605Z" fill="#F7D671"/>
<path d="M117.391 29.2251C116.009 25.8214 110.608 23.7713 105.395 24.7134C105.207 24.7549 105.016 24.7964 104.828 24.8361C104.828 24.8776 104.828 24.9191 104.828 24.9588V25.0003V25.0418C104.704 25.2872 104.452 25.493 104.076 25.5742L101.628 26.0669L101.376 26.1084C101.312 26.1481 101.312 26.1481 101.249 26.1896L100.306 27.9528C100.182 28.1982 99.8668 28.3624 99.5545 28.4039H99.4909H99.4273C99.4273 28.4039 99.4273 28.4039 99.3665 28.4039C99.3665 28.4039 99.3665 28.4039 99.303 28.4039C99.303 28.4039 99.303 28.4039 99.2394 28.4039C99.2394 28.4039 99.2394 28.4039 99.1758 28.4039C99.1758 28.4039 99.1758 28.4039 99.115 28.4039C99.115 28.4039 99.115 28.4039 99.0514 28.4039C99.0514 28.4039 99.0514 28.4039 98.9879 28.4039C98.9879 28.4039 98.9879 28.4039 98.9243 28.4039C98.9243 28.4039 98.9243 28.4039 98.8635 28.4039H98.7999C97.9845 29.6744 97.7938 31.111 98.3604 32.5042C99.7424 35.9078 105.143 37.9579 110.356 37.0556C115.694 36.155 118.834 32.6684 117.391 29.2251ZM110.105 36.2778C105.583 37.0556 100.873 35.2924 99.6789 32.3399C99.2394 31.3149 99.303 30.2898 99.7424 29.3063L107.028 28.0358L107.78 25.7799L110.168 27.5016L113.748 26.8862C114.878 27.5846 115.694 28.4454 116.133 29.4705C117.327 32.423 114.627 35.4566 110.105 36.2778Z" fill="#F7D671"/>
<mask id="mask1_64_282" style="mask-type:luminance" maskUnits="userSpaceOnUse" x="96" y="23" width="9" height="6">
<path d="M96.4873 23.1144H104.271V28.2758H96.4873V23.1144Z" fill="white"/>
</mask>
<g mask="url(#mask1_64_282)">
<path d="M96.7282 26.518L98.8648 27.9528C99.1163 28.117 99.5558 28.0755 99.6802 27.83L100.747 25.8214L103.826 25.206C104.139 25.123 104.266 24.8776 104.014 24.7134L101.878 23.2786C101.629 23.1144 101.187 23.1559 101.062 23.4014L99.9953 25.41L96.9162 26.0254C96.6038 26.0669 96.4767 26.3538 96.7282 26.518Z" fill="#F7D671"/>
</g>
<mask id="mask2_64_282" style="mask-type:luminance" maskUnits="userSpaceOnUse" x="87" y="24" width="14" height="9">
<path d="M87.6699 24.1178H100.025V32.4338H87.6699V24.1178Z" fill="white"/>
</mask>
<g mask="url(#mask2_64_282)">
<path d="M98.173 28.117L96.2244 26.805C95.9756 26.5993 95.8485 26.3538 95.9756 26.1084C96.1 25.8612 96.3515 25.6572 96.7274 25.5742L99.555 25.0003L99.6158 24.9191C99.1156 24.7134 98.361 24.5094 97.67 24.5907C96.4151 24.6719 95.221 25.5345 94.2149 26.5181C93.148 27.5431 92.0811 28.1982 90.9506 28.2397C89.8201 28.3227 88.5625 27.6658 88.0622 27.6658C87.8107 27.6658 87.8715 27.9528 88.1866 28.487C88.5017 29.0193 89.1927 29.799 90.0716 30.5768C90.9506 31.3149 92.0175 31.9303 93.0236 32.0133C94.027 32.0945 95.0331 31.6018 95.912 30.7013C96.791 29.7575 97.5456 28.8136 98.173 28.117Z" fill="#F7D671"/>
</g>
<mask id="mask3_64_282" style="mask-type:luminance" maskUnits="userSpaceOnUse" x="12" y="0" width="4" height="4">
<path d="M12.9912 0.478271H15.114V3.32786H12.9912V0.478271Z" fill="white"/>
</mask>
<g mask="url(#mask3_64_282)">
<path d="M13.9504 2.92903L13.9974 2.92723L14.4673 0.961927C14.5032 0.801311 14.401 0.63528 14.1881 0.548655C14.0831 0.505343 13.9615 0.483687 13.8288 0.487296C13.6989 0.489101 13.58 0.517976 13.4805 0.564897C13.2788 0.66235 13.1958 0.833795 13.2511 0.992607L13.9504 2.92903Z" fill="#F7D671"/>
</g>
<path d="M20.633 2.4201C20.7906 2.29377 20.8293 2.11511 20.7104 1.97073C20.6524 1.90035 20.5639 1.8408 20.4479 1.80109C20.3318 1.76139 20.2074 1.74695 20.0858 1.75598C19.837 1.77402 19.6325 1.89313 19.5606 2.05014L18.6816 3.95408L18.7231 3.96852L20.633 2.4201Z" fill="#F7D671"/>
<path d="M25.2713 5.33287C25.2741 5.25346 25.2437 5.17225 25.1746 5.10006C25.1027 5.02787 25.006 4.97373 24.8954 4.94305C24.666 4.87628 24.3951 4.91418 24.2127 5.02607L21.9932 6.3886L22.018 6.41387L24.8595 5.69741C25.0944 5.63786 25.263 5.49709 25.2713 5.33287Z" fill="#F7D671"/>
<mask id="mask4_64_282" style="mask-type:luminance" maskUnits="userSpaceOnUse" x="22" y="8" width="5" height="3">
<path d="M22.8975 8.87186H26.5349V10.2579H22.8975V8.87186Z" fill="white"/>
</mask>
<g mask="url(#mask4_64_282)">
<path d="M26.7397 9.49988C26.7342 9.41326 26.69 9.33566 26.6181 9.27249C26.4716 9.13895 26.209 9.08481 25.9658 9.1209L23 9.57749L23.0028 9.60817L26.01 9.91496C26.2588 9.94023 26.5131 9.87165 26.6458 9.73269C26.7093 9.66411 26.7453 9.5847 26.7397 9.49988Z" fill="#F7D671"/>
</g>
<mask id="mask5_64_282" style="mask-type:luminance" maskUnits="userSpaceOnUse" x="0" y="8" width="4" height="2">
<path d="M0 8.40985H3.79225V9.33385H0V8.40985Z" fill="white"/>
</mask>
<g mask="url(#mask5_64_282)">
<path d="M0.754279 8.50009C0.505516 8.47483 0.251225 8.54341 0.118551 8.68237C0.054978 8.74914 0.02181 8.83035 0.0245738 8.91517C0.0301022 9.0018 0.0743268 9.0794 0.146191 9.14437C0.295449 9.27611 0.555268 9.33025 0.801267 9.29415L3.76431 8.83757V8.80689L0.754279 8.50009Z" fill="#F7D671"/>
</g>
<path d="M2.29948 4.42332C2.19168 4.46122 2.10047 4.51897 2.0369 4.59476C1.97609 4.67056 1.95674 4.75177 1.9678 4.83118C1.99544 4.9936 2.18063 5.12714 2.4211 5.17407L5.33715 5.74795L5.35927 5.72088L2.98772 4.47204C2.79148 4.36918 2.5206 4.34572 2.29948 4.42332Z" fill="#F7D671"/>
<path d="M9.0658 3.58416L9.1045 3.56791L8.00718 1.71451C7.91596 1.56111 7.6976 1.45102 7.44608 1.44561C7.32446 1.4438 7.20284 1.46366 7.09228 1.50877C6.98172 1.55389 6.8988 1.61886 6.84905 1.69104C6.74954 1.84083 6.80482 2.01769 6.97896 2.1368L9.0658 3.58416Z" fill="#F7D671"/>
<path d="M15.6221 16.3288C15.5972 16.3288 15.5612 16.3324 15.5143 16.3414L14.6519 16.502C13.057 16.798 11.4069 17.1048 9.78165 17.3989C9.56882 17.4368 9.555 17.5018 9.54947 17.6462C9.54671 17.6733 9.54671 17.6985 9.54395 17.7256C9.54395 18.11 9.70702 18.1425 9.88669 18.1425C9.98066 18.1425 10.094 18.1298 10.235 18.1046C11.9072 17.7978 13.5767 17.4892 15.2489 17.1824C15.4728 17.1391 15.6608 17.029 15.7575 16.8792C15.8653 16.7168 15.8542 16.5363 15.7299 16.3847C15.6856 16.3288 15.6497 16.3288 15.6221 16.3288Z" fill="#F7D671"/>
<path d="M9.54454 16.6338C9.5473 17.0362 9.65786 17.038 9.77671 17.038C9.85964 17.038 9.9702 17.0236 10.125 16.9965C10.664 16.8973 11.2002 16.798 11.7392 16.6987C12.9249 16.4786 14.1494 16.253 15.3573 16.0346C15.6503 15.9805 15.7443 15.9299 15.7636 15.8163L15.7719 15.782C15.8078 15.5654 15.841 15.3795 15.6337 15.2171C15.6061 15.1936 15.5867 15.1918 15.5674 15.1918C15.5314 15.1918 15.4844 15.2009 15.4319 15.2099L15.4098 15.2153C13.8647 15.5004 11.9382 15.8578 10.0891 16.1934C9.45609 16.3089 9.52242 16.5399 9.54454 16.6157V16.6338Z" fill="#F7D671"/>
<path d="M11.7637 18.1659C12.2418 18.1804 12.872 18.184 13.3668 18.184C13.6957 18.184 14.0247 18.1822 14.3149 18.1804C14.5388 18.1804 14.7433 18.1804 14.9147 18.1804C15.3376 18.1786 15.614 18.1208 15.7356 18.0035C15.8572 17.8862 15.8461 17.6967 15.7024 17.4387L11.7637 18.1659Z" fill="#F7D671"/>
<path d="M10.05 15.1522H9.92566C9.70178 15.1522 9.62438 15.2641 9.59674 15.3308C9.52764 15.5131 9.48065 15.726 9.65202 15.9336L13.7069 15.1846C12.6952 15.1684 11.0893 15.1522 10.05 15.1522Z" fill="#F7D671"/>
<mask id="mask6_64_282" style="mask-type:luminance" maskUnits="userSpaceOnUse" x="10" y="18" width="5" height="2">
<path d="M10.8682 18.1118H14.4061V19.1892H10.8682V18.1118Z" fill="white"/>
</mask>
<g mask="url(#mask6_64_282)">
<path d="M11.0399 18.4962C11.0261 18.6677 11.0924 18.8102 11.2278 18.9077C11.366 19.0087 11.5844 19.0665 11.858 19.0755C11.9797 19.0791 12.2948 19.0809 12.6596 19.0809C13.0272 19.0809 13.3423 19.0791 13.4612 19.0755C13.7376 19.0665 13.9559 19.0087 14.0941 18.9077C14.2296 18.8102 14.2931 18.6677 14.2793 18.4962H11.0399Z" fill="#F7D671"/>
</g>
<path d="M20.4259 9.49808C20.3015 9.74893 19.9615 9.93842 19.4944 10.0196C19.1959 9.57387 18.9886 9.40063 18.6541 9.30498C18.3501 9.21835 18.1345 9.25084 18.0101 9.40243C17.8913 9.5468 17.9604 9.68035 18.2036 9.77961C18.4275 9.87165 18.5519 9.97451 18.5767 10.0846C18.6016 10.1965 18.5242 10.321 18.3418 10.4546C18.0682 10.6549 18.1621 10.7993 18.2865 10.8841C18.3805 10.9472 18.4855 10.9779 18.5933 10.9761C18.7619 10.9743 18.9001 10.8949 18.9858 10.8299C19.1959 10.6693 19.3728 10.5845 19.6464 10.6206C19.7349 11.1476 19.3728 11.55 18.5989 11.7846C18.5408 11.7702 18.5215 11.7377 18.4966 11.689C18.4855 11.6655 18.4717 11.642 18.4524 11.6204C18.2893 11.4507 18.1041 11.4038 17.883 11.4778C17.6149 11.5662 17.6314 11.7269 17.6757 11.8568C17.8305 12.3134 17.7475 12.6599 17.4352 12.853C17.1284 13.0461 16.6032 13.0858 15.9205 12.9667C15.7187 12.9306 15.4727 12.9143 15.3456 13.0948C15.2323 13.2554 15.318 13.3836 15.6082 13.49C15.6773 13.5153 15.7574 13.5297 15.8321 13.5424C15.9509 13.564 16.0615 13.5839 16.1416 13.6434C16.1416 13.6813 16.1416 13.7192 16.1416 13.7553C16.1416 13.8708 16.1444 13.9809 16.0587 14.082H14.1239V12.1997C14.1543 12.2123 14.1847 12.225 14.2123 12.2358C14.2787 12.2629 14.334 12.2845 14.3837 12.3098C14.4252 12.3296 14.4666 12.3531 14.5109 12.3765C14.6767 12.4668 14.8647 12.5678 15.0637 12.5534C15.1715 12.5444 15.271 12.5011 15.3622 12.4217C15.4562 12.3405 15.4921 12.2665 15.4727 12.1979C15.4368 12.0824 15.2571 12.0102 15.0802 11.9416C15.0167 11.9164 14.9531 11.8911 14.9006 11.8658C14.088 11.4634 13.9525 11.0321 14.45 10.4239C14.58 10.2651 14.544 10.1297 14.3561 10.0611C13.9967 9.9294 14.0354 9.74351 14.0797 9.54861C14.099 9.45657 14.1184 9.36273 14.0962 9.2743C14.052 9.10466 14.088 8.96931 14.204 8.87185C14.3284 8.76538 14.544 8.70221 14.8453 8.68056C14.9614 8.67334 15.0554 8.64266 15.1189 8.59213C15.1825 8.53979 15.2074 8.46941 15.1936 8.39C15.1632 8.23841 15.0029 8.14818 14.7624 8.14637C14.6076 8.14637 14.4611 8.1554 14.2897 8.16622C14.2234 8.16983 14.1571 8.17344 14.0852 8.17705C14.1045 8.00921 14.0935 7.84138 14.0852 7.67896C14.0658 7.32163 14.0437 6.98235 14.3312 6.65751C14.392 6.58893 14.4252 6.48967 14.3312 6.41568C13.9802 6.13596 14.0327 5.81653 14.0852 5.50612C14.1018 5.39965 14.1211 5.28776 14.1239 5.17947C14.1267 4.88351 14.4224 4.6489 14.9172 4.55505C15.423 4.45941 15.8238 4.52798 16.1416 4.7662C16.0559 4.8023 15.9675 4.83478 15.8791 4.86726C15.6331 4.96111 15.4009 5.04773 15.2323 5.20113C15.0885 5.33468 15.0968 5.46281 15.2571 5.57109C15.4175 5.68298 15.6192 5.692 15.8182 5.59455C15.868 5.56929 15.915 5.54222 15.9592 5.51514C16.0117 5.48447 16.0642 5.45379 16.1223 5.42672C16.747 5.14338 17.6646 5.20654 18.1649 5.56929C18.6873 5.94466 18.6956 6.46802 18.1953 6.88309C17.684 6.616 17.203 6.51855 16.6806 6.57449L16.6696 6.5763C16.3821 6.60698 16.0228 6.64488 16.0587 6.91377C16.067 7.0004 16.1085 7.06176 16.1831 7.10327C16.3102 7.17184 16.5037 7.15741 16.6917 7.14477L16.758 7.13936C17.109 7.1159 17.4241 7.18628 17.6287 7.33246C17.8056 7.46059 17.8747 7.63384 17.8166 7.81792C17.7973 7.88289 17.7531 7.94605 17.7116 8.00741C17.7005 8.02365 17.6895 8.0399 17.6784 8.05614C17.5513 8.24924 17.6176 8.39722 17.8664 8.47121C18.176 8.56325 18.3556 8.40805 18.4662 8.28533C18.6597 8.06336 18.7288 7.8883 18.6873 7.7349C18.6127 7.45879 18.7923 7.29456 19.113 7.12312C19.3037 7.20613 19.4336 7.32524 19.5165 7.49488C19.7045 7.88289 19.6133 8.22939 19.2401 8.52535C19.0577 8.67153 19.0577 8.8141 19.2429 8.92599C19.4474 9.05232 19.6713 9.03788 19.8952 8.88629C19.9449 8.8502 19.9947 8.8123 20.0527 8.76899C20.0776 8.75094 20.1025 8.73289 20.1301 8.71124C20.4425 8.95848 20.5503 9.24542 20.4259 9.49808ZM11.7689 14.0838H10.6495C10.2487 14.082 9.54941 14.0784 9.27301 14.0729C9.26748 14.0495 9.26472 14.0296 9.25919 14.0098C9.24814 13.9556 9.23708 13.9087 9.23155 13.86C9.05465 12.7555 8.52672 11.8514 7.61735 11.0952C5.58026 9.40243 5.95893 7.01123 8.47421 5.6523C9.47755 5.1109 10.5555 4.84019 11.7689 4.82215V14.0838ZM20.4618 7.86484C20.4867 7.39201 20.2241 6.99498 19.6796 6.68638C19.4723 6.56727 19.4308 6.44997 19.4308 6.28574C19.4308 5.48807 18.668 4.87268 17.4932 4.71567C17.2168 4.67958 17.0676 4.59837 16.9211 4.47926C16.3213 3.99741 15.4423 3.83138 14.5744 4.0335C13.7231 4.23202 13.2532 4.69401 13.2505 5.33287C13.2449 6.37598 13.2449 7.43533 13.2477 8.46039C13.2477 8.88629 13.2477 9.3122 13.2477 9.7363V9.76156H13.2532V11.0284C13.2532 12.0463 13.2532 13.0659 13.2532 14.0838H12.659C12.659 12.954 12.659 11.8243 12.659 10.6928V8.56686C12.659 7.309 12.659 6.05294 12.659 4.79508C12.659 4.51716 12.6368 4.37098 12.5097 4.29338C12.377 4.21036 12.1476 4.21036 11.6915 4.22841C8.74508 4.34752 6.169 5.81833 5.56091 7.72949C5.15184 9.01623 5.54986 10.2127 6.74668 11.2829C7.81913 12.243 8.35259 13.2067 8.3747 14.23C8.3747 14.2372 8.37746 14.248 8.37746 14.2624C8.38852 14.4916 8.67322 14.6703 9.02425 14.6703H16.3158C16.4899 14.6703 16.6557 14.627 16.7774 14.544C16.9017 14.4646 16.9653 14.3563 16.9626 14.2426C16.946 13.8817 16.9902 13.5496 17.6923 13.398C18.0626 13.3186 18.3805 13.0695 18.4966 12.7682C18.6072 12.4884 18.8421 12.3549 19.1904 12.2304C20.0859 11.9091 20.5586 11.3551 20.5613 10.6332C20.5641 10.4329 20.6 10.2976 20.799 10.1496C21.5813 9.56305 21.537 8.8123 20.6857 8.23661C20.5143 8.12111 20.4535 8.01643 20.4618 7.86484Z" fill="#F7D671"/>
<path d="M14.5483 37.8213C20.8614 36.8468 20.8835 33.7067 19.5789 30.1045L18.3627 26.7478C17.1907 23.5066 19.214 22.6404 18.6059 20.98C18.1195 19.6301 15.6539 19.2692 13.3985 19.6157C11.0325 19.9839 8.9097 21.1316 9.49568 22.7486C10.1259 24.4956 12.4587 24.2573 13.6749 27.6213L14.6257 30.2417C15.8419 33.5839 15.853 35.0782 14.084 35.3525C13.111 35.5041 12.3703 35.0999 12.0165 34.1181C11.7732 33.454 11.9833 32.9343 11.7069 32.1691C11.3642 31.2162 10.2364 30.4005 8.13577 30.7253C6.14567 31.0357 4.11134 32.1113 4.90738 34.313C5.55969 36.1033 8.9871 38.6804 14.5483 37.8213Z" fill="#63518C"/>
<path d="M43.3438 27.5764C42.9679 26.1904 43.0895 25.1726 43.7086 24.2053C44.0514 23.6999 44.1619 23.1513 44.0403 22.7038C43.7528 21.6643 42.2824 21.1734 40.237 21.4188C37.7273 21.7076 36.0136 22.8554 36.3342 24.0176C36.4337 24.3857 36.6769 24.7033 37.2187 25.122C38.3132 25.9666 38.8992 26.8401 39.1424 27.7136C39.6621 29.5976 38.2027 30.9764 35.317 31.3157C33.15 31.5684 31.9891 30.8104 31.4363 28.7964C31.1267 27.6558 31.2815 26.508 31.8564 25.5985C32.1881 25.0932 32.3208 24.5445 32.1992 24.097C31.9117 23.0575 30.4302 22.5666 28.3738 22.8048C25.8751 23.1008 24.1503 24.2486 24.4709 25.4108C24.5815 25.8078 24.8247 26.1182 25.3665 26.5441C26.8148 27.6486 27.0691 28.0095 27.3677 29.1212C27.4672 29.4749 27.7325 30.8754 27.821 31.2002C28.5286 33.7989 30.4302 34.9612 33.2053 34.6363C35.1843 34.3981 36.2678 33.9144 37.683 32.6512C38.468 31.9437 38.7997 31.7488 39.3083 31.6911C39.9164 31.6189 40.2812 31.8499 40.436 32.4274C40.6682 33.2431 40.9999 33.7195 42.5588 33.5391C44.8363 33.272 46.6164 32.0592 46.3179 30.9981C46.2073 30.601 45.9088 30.3267 45.2233 29.9441C44.1619 29.3811 43.6755 28.7675 43.3438 27.5764Z" fill="#63518C"/>
<path d="M69.367 30.6048C68.1066 29.4065 67.9075 29.0384 67.7749 27.9555C67.7306 27.6091 67.6754 26.1364 67.6311 25.8116C67.3105 23.1768 65.5968 21.899 62.7886 22.0434C61.1633 22.13 60.0245 22.5487 58.4214 23.7182C57.5369 24.3678 57.172 24.5411 56.7408 24.5627C56.4313 24.5772 56.1217 24.4617 56.0333 23.7398C55.9338 22.9097 55.6684 22.4188 54.0874 22.4982C51.7766 22.6209 49.8308 23.7109 49.9634 24.7865C50.0077 25.1908 50.2841 25.4795 50.9032 25.9054C51.8651 26.5335 52.2521 27.1687 52.4068 28.4248C52.5727 29.7819 52.3073 30.7853 51.5445 31.7093C51.1354 32.1857 50.9364 32.7343 50.9917 33.1819C51.1133 34.2358 52.4953 34.8206 54.5738 34.7123C57.1168 34.5823 58.9963 33.5501 58.8526 32.3734C58.8083 31.9908 58.6093 31.6732 58.1008 31.2112C57.172 30.3089 56.7187 29.3921 56.6192 28.5547C56.376 26.5984 57.6585 25.3496 60.5773 25.198C62.3795 25.1042 63.4188 25.9271 63.673 28.0205C63.8057 29.1178 63.4851 30.2583 62.7775 31.1174C62.3684 31.601 62.1584 32.1496 62.2136 32.5972C62.3353 33.6511 63.7283 34.2358 65.8069 34.1276C68.3498 33.9976 70.2404 32.9581 70.0967 31.7815C70.0524 31.3772 69.8534 31.0524 69.367 30.6048Z" fill="#63518C"/>
<path d="M81.7556 20.3376C83.7678 20.3376 85.8132 19.6302 85.8132 18.1215C85.8132 16.9809 84.2211 16.4323 82.4079 16.4323C80.2519 16.4323 77.8527 17.2336 77.8527 18.4969C77.8527 19.6807 79.7876 20.3376 81.7556 20.3376ZM81.1364 34.4791C83.3366 34.4791 85.6915 33.7212 85.6915 32.364C85.6915 31.9093 85.4262 31.5555 85.0724 31.173C84.5749 30.5955 83.9557 29.8158 83.9557 27.9462C83.9557 26.2353 84.4975 25.7806 84.9618 25.3041C85.2272 25.0515 85.6915 24.5967 85.6915 23.9687C85.6915 22.8353 84.1105 22.2795 82.2973 22.2795C80.1303 22.2795 77.7422 23.0808 77.7422 24.344C77.7422 24.8493 78.1292 25.1742 78.5493 25.5063C79.091 25.9322 79.7433 26.3075 79.7433 28.0472C79.7433 29.9169 79.0579 30.747 78.4719 31.3245C78.2397 31.5555 77.7422 32.0825 77.7422 32.7611C77.7422 33.9522 79.3232 34.4791 81.1364 34.4791Z" fill="#63518C"/>
<path d="M155.502 25.2247C152.262 25.1308 151.688 27.3109 150.482 27.2748C149.863 27.2531 149.587 26.9644 149.631 26.3869C149.686 25.564 149.521 25.0514 147.951 25.0081C145.629 24.9359 143.484 25.8599 143.406 26.9355C143.384 27.3398 143.594 27.6502 144.136 28.1194C144.976 28.8268 145.242 29.4909 145.153 30.747C145.065 32.1113 144.601 33.0859 143.661 33.9305C143.163 34.3708 142.865 34.8978 142.832 35.3453C142.765 36.4065 144.037 37.0995 146.115 37.1645C148.658 37.2366 150.715 36.3632 150.803 35.1793C150.825 34.7967 150.692 34.4719 150.261 33.9738C149.521 32.9992 149.244 32.0608 149.299 31.2234C149.432 29.2599 151.323 28.1266 153.092 28.1771C153.943 28.206 154.772 28.5309 154.739 29.0867C154.717 29.4115 154.507 29.6137 154.463 30.0323C154.418 30.8986 155.491 31.3534 156.784 31.3895C158.443 31.44 159.891 30.5521 159.991 29.0145C160.123 27.1232 158.786 25.3257 155.502 25.2247Z" fill="#63518C"/>
</svg>
