<svg width="1440" height="972" viewBox="0 0 1440 972" fill="none" xmlns="http://www.w3.org/2000/svg">
<path fill-rule="evenodd" clip-rule="evenodd" d="M1117.05 891.917C1116.5 894.145 1116.23 896.402 1116.23 898.684C1116.23 939.175 1203.93 972 1312.11 972C1420.3 972 1508 939.175 1508 898.684C1508 879.199 1487.69 861.49 1454.57 848.359L1454.57 0L-6.19727 0L-6.19727 772.66C-53.7618 782.459 -87.9999 809.858 -87.9999 842.125C-87.9999 882.617 -34.0848 915.442 32.4227 915.442C78.1725 915.442 117.964 899.909 138.345 877.033C172.529 887.923 216.834 894.494 265.239 894.494C329.574 894.494 386.665 882.886 422.377 864.961C443.796 885.246 481.194 898.684 523.746 898.684C566.299 898.684 603.697 885.246 625.116 864.961C660.828 882.886 717.919 894.494 782.254 894.494C857.932 894.494 923.587 878.432 956.21 854.918C974.877 880.692 1017.21 898.684 1066.45 898.684C1084.52 898.684 1101.66 896.26 1117.05 891.917Z" fill="#F7D671"/>
</svg>
