<svg width="120" height="120" viewBox="0 0 120 120" fill="none" xmlns="http://www.w3.org/2000/svg">
<rect width="120" height="120" rx="60" fill="url(#paint0_linear_64_1310)"/>
<path d="M39.0435 71.0509C40.3363 70.8141 41.6406 70.7008 42.9558 70.7102C43.3551 70.6738 43.7537 70.6724 44.1537 70.7062C44.553 70.7399 44.9462 70.8074 45.3333 70.9099C45.7211 71.0118 46.0966 71.1474 46.46 71.3154C46.8234 71.4827 47.1691 71.681 47.4979 71.9098C47.7223 72.0784 47.923 72.2714 48.0999 72.4886C48.2776 72.7059 48.426 72.9413 48.546 73.1943C48.6653 73.448 48.7528 73.7118 48.8084 73.9857C48.8633 74.2603 48.885 74.5369 48.8728 74.8169C48.866 75.02 48.8429 75.221 48.8043 75.4207C48.7663 75.6204 48.7121 75.8161 48.643 76.007C48.5738 76.1986 48.4904 76.3828 48.3921 76.5616C48.2938 76.7397 48.1826 76.909 48.0579 77.0703C47.9332 77.2315 47.7969 77.382 47.6484 77.5216C47.5 77.6613 47.342 77.7888 47.1732 77.9042C47.0051 78.0195 46.8288 78.1214 46.6444 78.2091C46.46 78.2968 46.2702 78.3704 46.0743 78.4291V78.477C46.3122 78.5249 46.5441 78.593 46.7705 78.6807C46.9969 78.7684 47.2139 78.8743 47.4213 78.9992C47.6295 79.1233 47.8254 79.2643 48.0091 79.4222C48.1928 79.58 48.3616 79.7521 48.5162 79.9383C48.6701 80.1245 48.8077 80.3229 48.9277 80.5327C49.0477 80.7418 49.1494 80.9604 49.2321 81.1871C49.3148 81.4145 49.3778 81.6466 49.4205 81.884C49.4633 82.1215 49.4856 82.361 49.4877 82.6026C49.4924 82.9102 49.4653 83.2152 49.4056 83.5174C49.3467 83.8197 49.2572 84.1125 49.1365 84.3965C49.0158 84.6799 48.8674 84.9484 48.6911 85.2014C48.5148 85.4544 48.3135 85.6865 48.0884 85.8976C47.6789 86.1938 47.2457 86.4509 46.7888 86.6681C46.3319 86.8853 45.8594 87.0594 45.3706 87.191C44.8818 87.3225 44.3849 87.4082 43.8798 87.4494C43.3754 87.4905 42.8711 87.4858 42.3674 87.4352C41.2583 87.444 40.1532 87.3792 39.0529 87.2409L39.0435 71.0509ZM41.1803 77.7881H43.1097C45.3699 77.7881 46.6946 76.6183 46.6946 75.0301C46.6946 73.1113 45.2228 72.3463 43.0616 72.3463C42.427 72.3294 41.7972 72.378 41.1728 72.4927L41.1803 77.7881ZM41.1803 85.6723C41.7742 85.7526 42.3707 85.7856 42.97 85.7708C45.1794 85.7708 47.2179 84.9646 47.2179 82.5735C47.2179 80.3283 45.2879 79.3999 42.9463 79.3999H41.1803V85.6723Z" fill="white"/>
<path d="M54.3976 92H33.9668C33.8604 91.9993 33.754 91.9939 33.6482 91.9838C33.5424 91.973 33.4374 91.9575 33.333 91.9366C33.2292 91.9163 33.1262 91.89 33.0245 91.8597C32.9228 91.8286 32.8225 91.7929 32.7242 91.7524C32.6259 91.7119 32.5303 91.6667 32.4367 91.6168C32.3425 91.5669 32.2517 91.5122 32.1635 91.4535C32.0747 91.3948 31.9893 91.3321 31.9073 91.2646C31.8252 91.1978 31.7466 91.127 31.6714 91.0521C31.5961 90.9772 31.5249 90.8989 31.4578 90.8173C31.39 90.735 31.327 90.6507 31.268 90.5623C31.2083 90.4746 31.1541 90.3842 31.1039 90.2911C31.0538 90.1973 31.0083 90.1022 30.9677 90.0043C30.927 89.9065 30.8911 89.8073 30.8605 89.7061C30.8294 89.6049 30.8036 89.5024 30.7826 89.3985C30.7616 89.2953 30.746 89.1907 30.7358 89.0854C30.725 88.9802 30.7202 88.8749 30.7202 88.769V68.4555C30.7202 68.3502 30.725 68.2443 30.7358 68.139C30.746 68.0338 30.7616 67.9299 30.7826 67.826C30.8036 67.7221 30.8294 67.6196 30.8605 67.5184C30.8911 67.4172 30.927 67.318 30.9677 67.2201C31.0083 67.1223 31.0538 67.0272 31.1039 66.9341C31.1541 66.841 31.2083 66.7499 31.268 66.6622C31.327 66.5745 31.39 66.4895 31.4578 66.4079C31.5249 66.3262 31.5961 66.2473 31.6714 66.1731C31.7466 66.0982 31.8252 66.0273 31.9073 65.9599C31.9893 65.8931 32.0747 65.8297 32.1635 65.771C32.2517 65.7123 32.3425 65.6576 32.4367 65.6077C32.5303 65.5578 32.6259 65.5126 32.7242 65.4721C32.8225 65.4316 32.9228 65.3958 33.0245 65.3655C33.1262 65.3345 33.2292 65.3088 33.333 65.2879C33.4374 65.267 33.5424 65.2515 33.6482 65.2407C33.754 65.2306 33.8604 65.2252 33.9668 65.2252H54.3976C54.5041 65.2252 54.6098 65.2306 54.7156 65.2407C54.8213 65.2515 54.9264 65.267 55.0308 65.2879C55.1352 65.3088 55.2383 65.3345 55.34 65.3655C55.4416 65.3958 55.5413 65.4316 55.6396 65.4721C55.7379 65.5126 55.8342 65.5578 55.9277 65.6077C56.0213 65.6576 56.1128 65.7123 56.2009 65.771C56.2891 65.8297 56.3745 65.8931 56.4565 65.9599C56.5392 66.0273 56.6179 66.0982 56.6924 66.1731C56.7677 66.248 56.8395 66.3262 56.9067 66.4079C56.9738 66.4895 57.0375 66.5745 57.0965 66.6622C57.1555 66.7499 57.2104 66.841 57.2605 66.9341C57.31 67.0272 57.3554 67.123 57.3968 67.2201C57.4375 67.318 57.4727 67.4172 57.5039 67.5184C57.5351 67.6196 57.5609 67.7221 57.5812 67.826C57.6022 67.9299 57.6178 68.0338 57.6286 68.139C57.6388 68.2443 57.6442 68.3502 57.6442 68.4555V88.769C57.6442 88.8749 57.6388 88.9802 57.6286 89.0854C57.6178 89.1907 57.6022 89.2953 57.5812 89.3985C57.5609 89.5024 57.5351 89.6049 57.5039 89.7061C57.4727 89.8073 57.4375 89.9065 57.3968 90.0043C57.3554 90.1022 57.31 90.1973 57.2605 90.2904C57.2104 90.3842 57.1555 90.4746 57.0965 90.5623C57.0375 90.6507 56.9738 90.735 56.9067 90.8173C56.8395 90.8989 56.7677 90.9772 56.6924 91.0521C56.6179 91.127 56.5392 91.1978 56.4565 91.2646C56.3745 91.3321 56.2891 91.3948 56.2009 91.4535C56.1128 91.5122 56.0213 91.5669 55.9277 91.6168C55.8342 91.6667 55.7379 91.7119 55.6396 91.7524C55.5413 91.7929 55.4416 91.8286 55.34 91.8597C55.2383 91.89 55.1352 91.9163 55.0308 91.9366C54.9264 91.9575 54.8213 91.973 54.7156 91.9838C54.6098 91.9939 54.5041 91.9993 54.3976 92ZM33.9668 67.6236C33.9119 67.6236 33.8577 67.6297 33.8041 67.6405C33.7499 67.6513 33.6977 67.6675 33.6475 67.6884C33.5967 67.7093 33.5485 67.7349 33.5031 67.7653C33.4577 67.7956 33.4157 67.83 33.377 67.8685C33.3384 67.9076 33.3038 67.9495 33.2733 67.9947C33.2428 68.0399 33.217 68.0878 33.196 68.1384C33.175 68.1883 33.1594 68.2402 33.1486 68.2935C33.1377 68.3475 33.1323 68.4015 33.1323 68.4555V88.769C33.1323 88.8237 33.1377 88.8776 33.1486 88.9309C33.1594 88.9842 33.175 89.0362 33.196 89.0868C33.217 89.1367 33.2428 89.1846 33.2733 89.2298C33.3038 89.275 33.3384 89.3175 33.377 89.356C33.4157 89.3944 33.4577 89.4288 33.5031 89.4592C33.5485 89.4896 33.5967 89.5152 33.6475 89.5368C33.6977 89.5577 33.7499 89.5732 33.8041 89.5847C33.8577 89.5955 33.9119 89.6009 33.9668 89.6009H54.3976C54.4525 89.6009 54.5068 89.5955 54.5603 89.5847C54.6139 89.5739 54.6661 89.5584 54.7169 89.5368C54.7678 89.5159 54.8159 89.4902 54.8613 89.4599C54.9068 89.4295 54.9488 89.3951 54.9881 89.3567C55.0267 89.3182 55.0613 89.2757 55.0918 89.2305C55.1217 89.1853 55.1474 89.1374 55.1684 89.0868C55.1895 89.0362 55.2057 88.9842 55.2159 88.9309C55.2267 88.8776 55.2322 88.8237 55.2322 88.769V68.4555C55.2322 68.4015 55.2267 68.3475 55.2159 68.2935C55.2057 68.2402 55.1895 68.1883 55.1684 68.1377C55.1474 68.0871 55.1217 68.0399 55.0918 67.994C55.0613 67.9488 55.0267 67.907 54.9881 67.8678C54.9488 67.8294 54.9068 67.795 54.8613 67.7646C54.8159 67.7342 54.7678 67.7086 54.7169 67.6877C54.6661 67.6668 54.6139 67.6506 54.5603 67.6398C54.5068 67.629 54.4525 67.6236 54.3976 67.6236H33.9668Z" fill="white"/>
<path d="M45.5714 49.1762L46.2202 54.585L44.2156 55.516L42.3052 38.2466L44.6447 37.1577L56.7661 49.6876L54.6964 50.6469L50.8925 46.7035L45.5714 49.1762ZM49.7807 45.3866L46.2975 41.7771C45.5064 40.9594 44.8691 40.1795 44.24 39.4191L44.1966 39.4407C44.3891 40.4291 44.5701 41.4485 44.7078 42.4895L45.265 47.4855L49.7807 45.3866Z" fill="white"/>
<path d="M41.8971 61.4639C41.7432 61.4639 41.59 61.4524 41.4382 61.4308C41.2856 61.4086 41.1358 61.3762 40.988 61.333C40.8409 61.2905 40.6972 61.2372 40.5569 61.1738C40.4165 61.1104 40.2816 61.0382 40.1521 60.9559C40.0227 60.8736 39.8993 60.7825 39.7827 60.6833C39.6654 60.5834 39.5562 60.4768 39.4552 60.3615C39.3535 60.2468 39.2607 60.1253 39.1759 59.9978C39.0919 59.8696 39.0173 59.7367 38.9515 59.5978L30.3045 41.1942C30.2591 41.0984 30.2191 41.0006 30.1838 40.9007C30.1486 40.8009 30.1181 40.6997 30.093 40.5971C30.0679 40.4946 30.0476 40.3907 30.0327 40.2861C30.0177 40.1815 30.0076 40.0763 30.0028 39.9703C29.9988 39.8651 29.9988 39.7592 30.0049 39.6532C30.0103 39.548 30.0211 39.4428 30.0374 39.3382C30.0537 39.2336 30.0747 39.1304 30.1011 39.0278C30.1276 38.9253 30.1588 38.8248 30.1954 38.7249C30.2313 38.6257 30.2727 38.5286 30.3188 38.4328C30.3642 38.3376 30.415 38.2445 30.4699 38.1541C30.5248 38.0637 30.5845 37.976 30.6482 37.8917C30.712 37.8067 30.7797 37.7257 30.8516 37.6475C30.9235 37.5692 30.9987 37.495 31.078 37.4242C31.1567 37.3533 31.2394 37.2865 31.3248 37.2244C31.4102 37.1617 31.499 37.103 31.5905 37.049C31.6821 36.9951 31.7756 36.9458 31.8719 36.9006L50.3828 28.302C50.4791 28.2574 50.578 28.2176 50.6784 28.1826C50.7787 28.1475 50.8804 28.1178 50.9834 28.0922C51.0872 28.0672 51.1916 28.0476 51.2966 28.0321C51.4017 28.0173 51.5075 28.0078 51.6139 28.0031C51.7203 27.9984 51.8268 27.9991 51.9325 28.0051C52.039 28.0105 52.1447 28.0213 52.2498 28.0375C52.3549 28.0537 52.4593 28.0746 52.5623 28.1009C52.6654 28.1272 52.7664 28.1589 52.8667 28.1947C52.9664 28.2311 53.0647 28.2716 53.1603 28.3175C53.2565 28.3634 53.3501 28.4133 53.4409 28.4686C53.5318 28.5233 53.6199 28.5826 53.7047 28.6461C53.7901 28.7095 53.8721 28.7763 53.9501 28.8478C54.0287 28.9193 54.1033 28.9942 54.1745 29.0731C54.2456 29.1521 54.3128 29.2337 54.3758 29.3194C54.4389 29.4044 54.4972 29.4928 54.5514 29.5832C54.6056 29.6742 54.6558 29.768 54.7005 29.8638L63.3482 48.2674C63.393 48.3632 63.433 48.461 63.4682 48.5609C63.5035 48.6607 63.5333 48.7619 63.5584 48.8652C63.5841 48.9677 63.6038 49.0716 63.6187 49.1762C63.6336 49.2807 63.6438 49.386 63.6479 49.4912C63.6526 49.5972 63.6519 49.7031 63.6465 49.8083C63.6404 49.9143 63.6296 50.0188 63.6133 50.1234C63.597 50.228 63.576 50.3319 63.5496 50.4338C63.5231 50.5363 63.4913 50.6375 63.4553 50.7367C63.4187 50.8359 63.3774 50.9337 63.332 51.0288C63.2859 51.1239 63.235 51.217 63.1801 51.3074C63.1252 51.3979 63.0655 51.4856 63.0018 51.5706C62.9381 51.6549 62.8703 51.7365 62.7984 51.8141C62.7266 51.8924 62.6513 51.9666 62.572 52.0374C62.4934 52.1083 62.4106 52.1751 62.3252 52.2371C62.2391 52.2999 62.151 52.3586 62.0595 52.4126C61.968 52.4665 61.8744 52.5158 61.7781 52.561L43.2693 61.1596C42.8347 61.3613 42.3771 61.4632 41.8971 61.4639ZM51.7556 30.3982C51.6315 30.3975 51.5136 30.4231 51.401 30.4751L32.8922 39.0737C32.8427 39.0973 32.7959 39.125 32.7512 39.1574C32.7071 39.1898 32.6664 39.2269 32.6298 39.2667C32.5925 39.3071 32.56 39.351 32.5315 39.3976C32.503 39.4448 32.4793 39.494 32.461 39.5453C32.442 39.5966 32.4285 39.6492 32.4203 39.7032C32.4122 39.7578 32.4095 39.8118 32.4115 39.8664C32.4142 39.9211 32.4217 39.9751 32.4353 40.0284C32.4481 40.081 32.4664 40.1323 32.4895 40.1822L41.1372 58.5837C41.1602 58.633 41.188 58.6795 41.2206 58.7241C41.2531 58.7679 41.2897 58.8084 41.3304 58.8455C41.3704 58.8819 41.4144 58.915 41.4612 58.9433C41.5087 58.9717 41.5575 58.9946 41.6097 59.0135C41.6612 59.0317 41.7141 59.0452 41.7683 59.0533C41.8226 59.0621 41.8775 59.0648 41.9324 59.0621C41.9873 59.0594 42.0415 59.052 42.0944 59.0385C42.148 59.0256 42.1995 59.0074 42.249 58.9838L60.7572 50.3879C60.8073 50.3643 60.8541 50.3366 60.8982 50.3042C60.9422 50.2718 60.9829 50.2354 61.0202 50.1956C61.0575 50.1551 61.09 50.1113 61.1185 50.0647C61.147 50.0182 61.17 49.9689 61.189 49.9176C61.2073 49.8664 61.2209 49.8137 61.2297 49.7598C61.2378 49.7058 61.2405 49.6518 61.2378 49.5972C61.2358 49.5425 61.2277 49.4885 61.2148 49.4359C61.2019 49.3826 61.1836 49.3313 61.1605 49.2821L52.5129 30.8779C52.4654 30.7767 52.3996 30.6889 52.3163 30.6141C52.2322 30.5398 52.1373 30.4845 52.0302 30.4488C51.942 30.4157 51.8498 30.3988 51.7556 30.3982Z" fill="white"/>
<path d="M77.4986 77.239C76.7549 77.3199 76.0105 77.3219 75.2661 77.2464C74.5218 77.1708 73.7937 77.019 73.0818 76.791C72.9469 76.7606 72.8127 76.7276 72.6798 76.6904C72.5463 76.6533 72.4148 76.6129 72.2832 76.569C72.1524 76.5245 72.0229 76.4773 71.8948 76.4267C71.766 76.3754 71.6392 76.3207 71.5138 76.2634C71.3884 76.2054 71.2643 76.1446 71.1423 76.0806C71.0203 76.0158 70.8996 75.9483 70.7816 75.8775C70.663 75.8066 70.5464 75.7331 70.4318 75.6562C70.3172 75.5793 70.2047 75.499 70.0949 75.416C69.9844 75.333 69.8766 75.2473 69.7708 75.159C69.6651 75.0699 69.562 74.9788 69.4617 74.8844C69.3607 74.7906 69.2624 74.6934 69.1675 74.5943C69.0719 74.4944 68.979 74.3925 68.8888 74.2886C68.7994 74.1841 68.7119 74.0775 68.6278 73.9682C68.5438 73.8595 68.4624 73.7482 68.3845 73.6349C68.3058 73.5215 68.2312 73.4062 68.1594 73.2888C68.0868 73.1714 68.0184 73.052 67.9526 72.9312C67.8875 72.8104 67.8252 72.6876 67.7662 72.5628C67.7072 72.4387 67.6516 72.3132 67.5994 72.1857C67.5472 72.0582 67.4984 71.93 67.4537 71.7998C67.4082 71.6703 67.3662 71.5387 67.3282 71.4071C67.2903 71.2749 67.2557 71.142 67.2245 71.0077C67.1933 70.8741 67.1662 70.7392 67.1425 70.6036C67.1188 70.468 67.0991 70.3324 67.0822 70.1961C67.0659 70.0591 67.053 69.9229 67.0442 69.7852C67.0354 69.6483 67.03 69.5106 67.0286 69.3737C67.0266 69.2361 67.0286 69.0984 67.0347 68.9615C67.0408 68.8238 67.0503 68.6869 67.0632 68.5499C67.0767 68.4136 67.093 68.2767 67.114 68.1411C67.1344 68.0048 67.1588 67.8699 67.1866 67.7349C67.2143 67.6007 67.2455 67.4664 67.2808 67.3335C67.316 67.2006 67.3547 67.069 67.3967 66.9381C67.4387 66.8073 67.4848 66.6777 67.5337 66.5489C67.5655 66.4092 67.6008 66.2702 67.6401 66.1326C67.6787 65.995 67.7214 65.858 67.7675 65.7224C67.8136 65.5868 67.8638 65.4525 67.9174 65.3196C67.9702 65.1867 68.0272 65.0551 68.0875 64.9249C68.1479 64.7947 68.2116 64.6665 68.278 64.5397C68.3451 64.4129 68.4156 64.288 68.4895 64.1646C68.5628 64.0418 68.64 63.921 68.72 63.8016C68.8 63.6829 68.8827 63.5655 68.9688 63.4508C69.0549 63.3361 69.1444 63.2241 69.2366 63.1134C69.3288 63.0035 69.4237 62.8962 69.5213 62.791C69.619 62.6857 69.7193 62.5832 69.8223 62.4833C69.9261 62.3835 70.0318 62.2863 70.1396 62.1919C70.2481 62.0974 70.3593 62.0063 70.4718 61.9173C70.585 61.8289 70.7003 61.7432 70.8182 61.6609C70.9362 61.5779 71.0555 61.4983 71.1775 61.4221C71.2996 61.3458 71.4229 61.273 71.549 61.2028C71.6745 61.1326 71.8019 61.0665 71.9314 61.0031C72.0602 60.9397 72.191 60.8803 72.3232 60.8236C72.4561 60.767 72.5897 60.7143 72.7246 60.6651C72.8602 60.6152 72.9964 60.5693 73.134 60.5275C73.2717 60.4849 73.41 60.4458 73.5496 60.4107C73.6893 60.3757 73.8296 60.3446 73.9713 60.317C74.1123 60.2886 74.254 60.265 74.397 60.2441C74.5394 60.2238 74.6824 60.2077 74.8255 60.1942C74.9692 60.1813 75.1129 60.1726 75.2566 60.1672C75.4004 60.1618 75.5448 60.1598 75.6885 60.1618C75.8329 60.1638 75.9766 60.1699 76.1203 60.1793C76.264 60.1888 76.4071 60.2023 76.5501 60.2191C76.6932 60.2367 76.8355 60.2569 76.9772 60.2819C77.1196 60.3062 77.2606 60.3345 77.4009 60.3662C77.5413 60.3979 77.6809 60.4337 77.8192 60.4728C77.9582 60.5119 78.0951 60.5544 78.2314 60.6003C78.887 60.7595 79.5161 60.9889 80.1194 61.2891C80.7221 61.5894 81.2841 61.953 81.8041 62.3801L80.8272 63.9055C79.9391 63.158 78.9331 62.6344 77.8097 62.3349C77.5989 62.262 77.3853 62.2013 77.1677 62.152C76.9508 62.1028 76.7311 62.065 76.5101 62.0394C76.2885 62.0137 76.0668 61.9996 75.8437 61.9982C75.6207 61.9962 75.3983 62.007 75.1766 62.0293C74.955 62.0515 74.7353 62.0859 74.517 62.1318C74.2994 62.1777 74.0845 62.2357 73.873 62.3052C73.6615 62.374 73.454 62.455 73.2513 62.5467C73.0479 62.6378 72.8507 62.7404 72.6595 62.8537C72.4676 62.9664 72.2826 63.0898 72.1043 63.2227C71.926 63.3557 71.7558 63.498 71.5931 63.6491C71.4304 63.8009 71.2765 63.9602 71.1314 64.1281C70.9864 64.2968 70.8501 64.4722 70.724 64.6544C70.5986 64.8372 70.4827 65.0261 70.3769 65.2218C70.2718 65.4168 70.1776 65.6171 70.0935 65.8229C70.0101 66.028 69.9383 66.2372 69.8779 66.4504C69.8169 66.6635 69.7681 66.8794 69.7315 67.098C69.6488 67.2991 69.5769 67.5042 69.5173 67.7133C69.4569 67.9225 69.4081 68.1336 69.3715 68.3482C69.3342 68.5621 69.3092 68.778 69.2956 68.9945C69.2827 69.2118 69.2814 69.4283 69.2915 69.6456C69.3017 69.8628 69.3241 70.0787 69.3586 70.2933C69.3925 70.5078 69.438 70.7203 69.4956 70.9301C69.5532 71.1393 69.6217 71.3457 69.7017 71.5475C69.7817 71.7499 69.8725 71.9475 69.9742 72.1398C70.0759 72.3321 70.1878 72.5183 70.3098 72.6991C70.4318 72.8793 70.5633 73.052 70.7043 73.2179C70.8453 73.3846 70.9952 73.5425 71.1531 73.6922C71.3118 73.842 71.4779 73.9823 71.6514 74.1146C71.8256 74.2461 72.006 74.3682 72.1931 74.4802C72.3802 74.5922 72.5727 74.6941 72.7713 74.7859C72.9693 74.8769 73.172 74.9572 73.3795 75.0267C73.5869 75.0962 73.7971 75.1542 74.0106 75.2001C75.1685 75.5503 76.3481 75.6494 77.5487 75.4976L77.4986 77.239Z" fill="white"/>
<path d="M81.1253 83.6052C80.8196 83.6052 80.5192 83.5633 80.2257 83.4776L60.5881 77.8698C60.4864 77.8408 60.3854 77.8071 60.2864 77.7679C60.1874 77.7288 60.0911 77.685 59.9962 77.6371C59.9013 77.5885 59.8098 77.5352 59.7203 77.4778C59.6308 77.4205 59.5447 77.3591 59.4613 77.293C59.378 77.2275 59.298 77.1574 59.222 77.0838C59.1454 77.0103 59.0729 76.9327 59.0037 76.8524C58.9353 76.7715 58.8709 76.6878 58.8105 76.6001C58.7495 76.5131 58.6939 76.4233 58.6424 76.3309C58.5909 76.2385 58.5441 76.1433 58.5014 76.0462C58.4594 75.949 58.4221 75.8505 58.3895 75.7493C58.357 75.6488 58.3299 75.5469 58.3075 75.443C58.2851 75.3398 58.2682 75.2352 58.256 75.13C58.2445 75.0254 58.2377 74.9195 58.2356 74.8136C58.2343 74.7083 58.2377 74.6024 58.2465 74.4972C58.256 74.3912 58.2695 74.2867 58.2892 74.1828C58.3082 74.0789 58.3326 73.9756 58.3617 73.8744L63.992 54.3644C64.0211 54.2632 64.0557 54.1627 64.095 54.0649C64.1343 53.9664 64.1784 53.8706 64.2272 53.7761C64.276 53.6823 64.3289 53.5906 64.3872 53.5022C64.4448 53.4131 64.5072 53.3275 64.5729 53.2451C64.6394 53.1622 64.7099 53.0825 64.7838 53.007C64.8577 52.9307 64.9356 52.8592 65.017 52.7904C65.0977 52.7223 65.1824 52.6582 65.2699 52.5981C65.3573 52.5381 65.4475 52.4821 65.541 52.4308C65.6339 52.3795 65.7288 52.333 65.8264 52.2912C65.9241 52.2493 66.0237 52.2122 66.1254 52.1798C66.2264 52.1475 66.3288 52.1205 66.4332 52.0982C66.5369 52.0759 66.642 52.0591 66.7477 52.0469C66.8535 52.0348 66.9593 52.028 67.0657 52.0267C67.1721 52.0247 67.2779 52.028 67.3843 52.0368C67.4901 52.0456 67.5958 52.0598 67.7002 52.0786C67.8046 52.0975 67.9084 52.1218 68.0107 52.1508L87.6477 57.7485C87.75 57.7782 87.8504 57.812 87.9494 57.8511C88.0483 57.8902 88.1446 57.9341 88.2395 57.9827C88.3337 58.0312 88.4259 58.0845 88.5154 58.1419C88.6042 58.1992 88.6903 58.2606 88.7737 58.3267C88.8571 58.3929 88.9371 58.4623 89.013 58.5359C89.0896 58.6101 89.1622 58.687 89.2306 58.768C89.2991 58.8483 89.3635 58.9326 89.4245 59.0196C89.4849 59.1066 89.5405 59.1964 89.592 59.2888C89.6435 59.3812 89.6903 59.4764 89.733 59.5735C89.775 59.6707 89.8123 59.7692 89.8448 59.8704C89.8774 59.9709 89.9045 60.0728 89.9269 60.176C89.9492 60.2799 89.9662 60.3838 89.9784 60.489C89.9906 60.5943 89.9974 60.6995 89.9994 60.8055C90.0008 60.9107 89.9974 61.0166 89.9886 61.1219C89.9798 61.2271 89.9655 61.3324 89.9465 61.4363C89.9276 61.5402 89.9031 61.6434 89.874 61.7446L84.2445 81.2708C84.1956 81.4381 84.1346 81.6007 84.0601 81.7579C83.9848 81.9158 83.898 82.0662 83.7991 82.2093C83.7001 82.353 83.5896 82.4879 83.4689 82.6134C83.3482 82.7396 83.2174 82.8543 83.0777 82.9595C82.9381 83.0641 82.791 83.1572 82.6364 83.2388C82.4812 83.3198 82.3212 83.3879 82.1551 83.4439C81.989 83.4992 81.8195 83.5411 81.6473 83.5694C81.4744 83.5977 81.3002 83.6119 81.1253 83.6119V83.6052ZM80.884 81.173C80.9368 81.1878 80.9904 81.1973 81.0453 81.2013C81.1002 81.206 81.1544 81.2047 81.2094 81.1986C81.2636 81.1925 81.3172 81.1811 81.3694 81.1642C81.4216 81.1473 81.4717 81.1264 81.5199 81.0994C81.568 81.0731 81.6127 81.0428 81.6548 81.0077C81.6968 80.9726 81.7354 80.9342 81.7693 80.8916C81.8039 80.8491 81.8337 80.8033 81.8595 80.7554C81.8853 80.7068 81.9056 80.6569 81.9212 80.6042L87.5562 61.08C87.5711 61.0281 87.5812 60.9741 87.5853 60.9195C87.59 60.8648 87.5894 60.8109 87.5833 60.7562C87.5765 60.7022 87.5656 60.6489 87.5487 60.597C87.5317 60.5444 87.5101 60.4944 87.4836 60.4465C87.4565 60.3986 87.426 60.3541 87.3901 60.3123C87.3548 60.2704 87.3155 60.2327 87.2721 60.1983C87.2294 60.1645 87.1833 60.1348 87.1345 60.1092C87.0857 60.0842 87.0348 60.064 86.9819 60.0492L67.345 54.4508C67.2921 54.4366 67.2379 54.4272 67.1836 54.4231C67.1287 54.4184 67.0745 54.4197 67.0203 54.4265C66.9654 54.4326 66.9125 54.444 66.8603 54.4609C66.8081 54.4778 66.7579 54.4993 66.7098 54.5257C66.6623 54.552 66.6169 54.583 66.5749 54.6181C66.5335 54.6532 66.4949 54.6923 66.461 54.7348C66.4264 54.7773 66.3966 54.8225 66.3715 54.8711C66.3457 54.919 66.3254 54.9696 66.3098 55.0215L60.6803 74.5478C60.6484 74.6537 60.6396 74.7616 60.6518 74.8709C60.6647 74.9802 60.6979 75.0828 60.7521 75.1786C60.864 75.3796 61.0301 75.5125 61.2518 75.5773L80.884 81.173Z" fill="white"/>
<defs>
<linearGradient id="paint0_linear_64_1310" x1="12" y1="30" x2="96" y2="96" gradientUnits="userSpaceOnUse">
<stop stop-color="#F7D671"/>
<stop offset="1" stop-color="#FFF1C7"/>
</linearGradient>
</defs>
</svg>
