<svg width="120" height="120" viewBox="0 0 120 120" fill="none" xmlns="http://www.w3.org/2000/svg">
<rect width="120" height="120" rx="60" fill="url(#paint0_linear_64_1285)"/>
<mask id="mask0_64_1285" style="mask-type:luminance" maskUnits="userSpaceOnUse" x="36" y="28" width="48" height="64">
<path d="M36.9746 28H83.049V92H36.9746V28Z" fill="white"/>
</mask>
<g mask="url(#mask0_64_1285)">
<path d="M75.6042 34.316C70.9129 29.9278 64.7863 27.7596 58.3594 28.2092C46.9798 29.0061 37.8697 38.2261 37.1604 49.6481C36.6443 57.9344 40.6322 65.8794 47.57 70.3924C48.143 70.7623 48.6254 71.2464 49.0105 71.7983C48.5738 72.1967 48.3018 72.7658 48.3018 73.4034V75.2588C48.3018 75.9647 48.5685 76.6015 48.9939 77.0969C48.5685 77.5923 48.3018 78.2298 48.3018 78.9298V80.1364C48.3018 80.8416 48.5685 81.4738 48.9939 81.9745C48.5685 82.4693 48.3018 83.1068 48.3018 83.8127V85.0193C48.3018 86.5786 49.5669 87.8536 51.1265 87.8536H52.8456C52.9872 90.1639 54.8988 92.002 57.2359 92.002H62.7728C65.1099 92.002 67.0215 90.1639 67.1631 87.8536H68.8822C70.4365 87.8536 71.7069 86.5845 71.7069 85.0193V83.8127C71.7069 83.1068 71.4409 82.4753 71.0154 81.9745C71.4409 81.4791 71.7069 80.8416 71.7069 80.1364V78.9298C71.7069 78.2239 71.4409 77.5923 71.0154 77.0969C71.4409 76.6015 71.7069 75.9647 71.7069 75.2588V73.4034C71.7069 72.7605 71.4237 72.1854 70.9757 71.787C71.3496 71.2524 71.8207 70.7909 72.3825 70.427C78.9623 66.1696 82.894 58.9531 82.894 51.1164C82.888 44.7652 80.2334 38.6411 75.6042 34.316ZM54.9107 54.4686H52.5108C51.1894 54.4686 50.1115 53.3875 50.1115 52.0614C50.1115 50.7352 51.1894 49.6541 52.5108 49.6541C53.8328 49.6541 54.9107 50.7352 54.9107 52.0614V54.4686ZM56.8958 56.4609H63.1017V71.2179H56.8958V56.4609ZM69.5233 73.2041C69.6312 73.2041 69.7159 73.2898 69.7159 73.3974V75.2528C69.7159 75.7143 69.3414 76.0895 68.8822 76.0955H68.8762H51.1212H51.1153C50.6561 76.0895 50.2816 75.7143 50.2816 75.2528V73.3974C50.2816 73.2898 50.3663 73.2041 50.4741 73.2041H69.5233ZM69.7106 78.9238V80.1304C69.7106 80.5913 69.3361 80.9725 68.8709 80.9725H51.1212C50.6614 80.9725 50.2816 80.5973 50.2816 80.1304V78.9238C50.2816 78.4629 50.6561 78.0871 51.1153 78.0817H51.1212H68.8709H68.8762C69.3361 78.0871 69.7106 78.4629 69.7106 78.9238ZM62.7669 89.9992H57.2306C55.9879 89.9992 54.9617 89.0542 54.8254 87.8423H65.1668C65.0358 89.0542 64.0095 89.9992 62.7669 89.9992ZM69.7106 85.0133C69.7106 85.4742 69.3361 85.856 68.8709 85.856H51.1265C50.6673 85.856 50.2869 85.4802 50.2869 85.0133V83.8067C50.2869 83.3458 50.6614 82.9647 51.1265 82.9647H68.8762C69.3361 82.9647 69.7159 83.3405 69.7159 83.8067V85.0133H69.7106ZM71.2986 68.7422C70.3346 69.3625 69.5346 70.2165 68.9788 71.2126H65.0874V56.4609H67.4867C69.9031 56.4609 71.8717 54.4859 71.8717 52.0614C71.8717 49.6369 69.9031 47.6619 67.4867 47.6619C65.0702 47.6619 63.1017 49.6369 63.1017 52.0614V54.4686H56.8958V52.0614C56.8958 49.6369 54.9273 47.6619 52.5108 47.6619C50.0943 47.6619 48.1258 49.6369 48.1258 52.0614C48.1258 54.4859 50.0943 56.4609 52.5108 56.4609H54.9107V71.2179H51.0021C50.4344 70.2105 49.6291 69.3572 48.6479 68.7197C42.3116 64.5991 38.6697 57.3368 39.1401 49.7737C39.7873 39.3417 48.1086 30.9299 58.4957 30.1955C64.3668 29.7857 69.966 31.7667 74.2484 35.773C78.4746 39.7282 80.897 45.3171 80.897 51.1111C80.9023 58.2645 77.312 64.8607 71.2986 68.7422ZM65.0874 54.4686V52.0614C65.0874 50.7352 66.1653 49.6541 67.4867 49.6541C68.8087 49.6541 69.8859 50.7352 69.8859 52.0614C69.8859 53.3875 68.8087 54.4686 67.4867 54.4686H65.0874Z" fill="white"/>
</g>
<mask id="mask1_64_1285" style="mask-type:luminance" maskUnits="userSpaceOnUse" x="25" y="49" width="7" height="3">
<path d="M25 49.0803H31.7247V51.1204H25V49.0803Z" fill="white"/>
</mask>
<g mask="url(#mask1_64_1285)">
<path d="M31.5918 50.0977C31.5918 49.5458 31.1491 49.1016 30.5986 49.1016H25.9867C25.4368 49.1016 24.9941 49.5458 24.9941 50.0977C24.9941 50.6495 25.4368 51.0938 25.9867 51.0938H30.5986C31.1432 51.0938 31.5918 50.6442 31.5918 50.0977Z" fill="white"/>
</g>
<path d="M32.5382 39.2899L28.545 36.9796C28.0686 36.7066 27.4611 36.866 27.1892 37.3435C26.9166 37.8216 27.0754 38.4306 27.5518 38.7042L31.5457 41.0145C31.7045 41.1055 31.8746 41.1453 32.0393 41.1453C32.3794 41.1453 32.7142 40.9693 32.9015 40.6446C33.1735 40.1777 33.0147 39.5688 32.5382 39.2899Z" fill="white"/>
<path d="M31.5457 59.1756L27.5518 61.4859C27.0754 61.7588 26.9166 62.3678 27.1892 62.8459C27.3705 63.1647 27.7053 63.3473 28.0514 63.3473C28.2214 63.3473 28.3915 63.3015 28.545 63.2158L32.5382 60.8995C33.0147 60.6266 33.1735 60.0176 32.9015 59.5395C32.6289 59.0613 32.0221 58.902 31.5457 59.1756Z" fill="white"/>
<mask id="mask2_64_1285" style="mask-type:luminance" maskUnits="userSpaceOnUse" x="88" y="49" width="8" height="3">
<path d="M88.3008 49.0803H95.0003V51.1204H88.3008V49.0803Z" fill="white"/>
</mask>
<g mask="url(#mask2_64_1285)">
<path d="M94.019 49.1016H89.4077C88.8572 49.1016 88.4146 49.5458 88.4146 50.0977C88.4146 50.6495 88.8572 51.0938 89.4077 51.0938H94.019C94.5695 51.0938 95.0122 50.6495 95.0122 50.0977C95.0122 49.5458 94.5695 49.1016 94.019 49.1016Z" fill="white"/>
</g>
<path d="M87.9606 41.1512C88.1313 41.1512 88.3013 41.1054 88.4542 41.0204L92.4481 38.7095C92.9245 38.4365 93.0833 37.8276 92.8107 37.3494C92.5388 36.8713 91.932 36.7119 91.4549 36.9849L87.4617 39.2958C86.9852 39.5688 86.8264 40.1777 87.0984 40.6558C87.2856 40.9693 87.6205 41.1512 87.9606 41.1512Z" fill="white"/>
<path d="M92.4538 61.4858L88.4605 59.1695C87.9894 58.8966 87.3767 59.056 87.1047 59.5341C86.8321 60.0116 86.9909 60.6205 87.4673 60.8941L91.4612 63.2104C91.62 63.3014 91.7901 63.3413 91.9549 63.3413C92.295 63.3413 92.6298 63.1646 92.817 62.8405C93.089 62.3737 92.9249 61.7647 92.4538 61.4858Z" fill="white"/>
<defs>
<linearGradient id="paint0_linear_64_1285" x1="12" y1="30" x2="96" y2="96" gradientUnits="userSpaceOnUse">
<stop stop-color="#F9AAAA"/>
<stop offset="1" stop-color="#FFD5D5"/>
</linearGradient>
</defs>
</svg>
