<svg width="120" height="120" viewBox="0 0 120 120" fill="none" xmlns="http://www.w3.org/2000/svg">
<rect width="120" height="120" rx="60" fill="url(#paint0_linear_64_1322)"/>
<mask id="mask0_64_1322" style="mask-type:luminance" maskUnits="userSpaceOnUse" x="30" y="28" width="60" height="64">
<path d="M30 28H90V92H30V28Z" fill="white"/>
</mask>
<g mask="url(#mask0_64_1322)">
<path d="M62.8548 85.5112C62.8548 86.1627 62.8548 86.7004 62.8548 87.2626C63.0925 87.3512 63.2786 87.4597 63.4773 87.4881C65.1764 87.7268 66.8882 87.8962 68.5752 88.1964C69.9955 88.4504 70.3031 89.0099 70.2165 90.4015C70.1413 91.6018 69.3193 91.6938 68.42 91.7116C63.1248 91.8142 57.8302 91.9253 52.5349 91.9881C51.6256 91.9987 50.7136 91.7903 49.8789 91.6918C49.2026 89.0192 49.4142 88.6984 51.8922 88.2936C52.8747 88.1336 53.8505 87.9385 54.976 87.7321C55.0244 87.1944 55.0707 86.6799 55.1124 86.2063C52.4328 85.7401 49.8816 85.4134 47.3908 84.8353C43.4534 83.9206 39.837 82.2302 36.5121 79.957C35.0327 78.9451 34.9266 78.494 35.8789 77.0403C36.6129 75.92 37.4161 74.8433 38.2313 73.6858C37.7599 73.1852 37.3301 72.7216 36.8929 72.2665C27.252 62.2229 27.9779 46.9861 38.7196 38.0787C46.689 31.4702 55.8303 30.0728 65.7298 33.0093C66.4033 33.209 67.0621 33.4544 67.8828 33.7308C69.0963 31.7817 70.2803 29.8816 71.4515 28C81.7149 31.3003 90.2834 44.1091 89.9725 55.631C89.5836 70.0265 78.93 82.2467 62.8548 85.5112ZM68.3589 75.7963C70.8343 74.7176 73.4272 72.8895 74.9624 71.1978C76.0678 69.9802 75.7387 68.4663 74.2002 67.8022C73.8107 67.6343 73.3748 67.5787 72.9645 67.4544C69.4146 66.375 68.6323 64.6561 68.8418 61.9325C68.9069 61.0933 68.9257 60.2388 69.1064 59.4206C69.3918 58.1369 69.7961 56.8783 70.2346 55.3069C68.9499 55.0225 67.7377 54.6845 66.5014 54.4967C63.7352 54.078 61.5903 52.6779 59.8052 50.6323C59.0269 49.7407 58.6656 48.7659 59.4379 47.7626C61.1665 45.5179 60.7649 42.9841 60.096 40.6687C59.4997 38.6071 59.3029 36.709 59.8946 34.6858C59.9859 34.3737 59.9355 34.0212 59.9584 33.4835C57.5287 33.2665 55.2272 33.1918 52.7156 33.6806C52.7156 34.5126 52.6686 35.2004 52.727 35.879C52.8129 36.8604 52.9681 37.836 53.1057 38.8122C53.4516 41.2513 52.2871 43.0946 49.8695 43.7923C48.981 44.0483 48.0375 44.1118 47.1329 44.3181C46.6769 44.4226 46.2478 44.6455 45.7683 44.83C46.2491 47.6746 45.5567 50.0866 43.8201 52.244C43.1203 53.1131 42.4655 54.0377 41.9431 55.0172C41.3474 56.1343 40.6275 57.1019 39.3381 57.3406C36.3691 57.8895 34.6553 60.1118 32.5781 61.8155C33.572 65.3313 35.2879 68.2222 37.6363 70.7579C40.1755 73.498 40.927 73.375 42.1835 69.9378C42.6146 68.7586 43.2667 68.0496 44.5836 67.8631C45.7542 67.6971 46.8958 67.3313 48.247 67.0073C47.9549 65.8638 47.7608 64.9868 47.5056 64.1263C46.963 62.2989 47.3706 61.2004 49.0227 60.1898C50.539 59.2612 52.0192 58.2665 53.5953 57.4491C54.2179 57.1257 55.1527 56.9339 55.7772 57.1508C57.9276 57.8968 59.0813 61.1376 58.0901 63.1938C57.7986 63.7989 57.5669 64.4312 57.2802 65.1138C59.0625 66.1091 61.1417 66.2645 62.0489 68.1144C63.0019 70.0589 62.4082 71.7698 60.8126 73.5079C63.8339 73.2996 66.5014 73.2361 68.3589 75.7963ZM76.9482 68.9755C81.7586 61.9914 82.8156 55.0119 79.711 47.7163C76.3962 39.9292 70.1117 35.6091 61.7736 33.7632C61.2256 35.7857 60.6507 37.494 61.3733 39.4874C62.4995 42.5939 62.9307 45.7837 60.7273 48.7302C60.6601 48.8201 60.7186 49 60.7186 49.2401C62.4237 51.3697 64.6721 52.713 67.4899 53.1574C68.4012 53.3016 69.3367 53.4689 70.1829 53.8102C71.6368 54.3981 71.9169 55.3935 71.4495 56.8862C71.0116 58.2811 70.6207 59.7176 70.4562 61.1627C70.1057 64.244 70.5905 64.955 73.6179 65.9821C75.0134 66.4563 76.2686 67.0007 76.9482 68.9755ZM37.5034 78.2116C38.2616 78.7017 38.874 79.162 39.5429 79.5198C51.402 85.8677 63.2752 85.7493 74.5118 78.4861C84.5711 71.9835 89.1881 62.4696 87.2043 50.5238C85.7242 41.6157 80.3738 35.2526 72.3164 30.6085C71.5972 32.1237 70.9512 33.4815 70.2944 34.8664C71.3413 35.5734 72.1747 36.1078 72.9779 36.6852C86.4347 46.3638 86.6254 64.7209 73.5682 74.6892C64.437 81.6594 51.5578 82.2268 41.7517 76.1468C41.1137 75.7507 40.4764 75.3538 39.8061 74.9378C38.9895 76.0959 38.3086 77.0655 37.5034 78.2116ZM66.5947 76.4894C65.7042 75.1045 64.3369 74.8962 62.8884 74.9253C62.1792 74.9398 61.4459 75.2216 60.7696 75.1111C60.1424 75.0079 59.2794 74.6739 59.0679 74.2024C58.8543 73.7282 59.2754 72.9464 59.4997 72.328C59.585 72.0939 59.9167 71.9537 60.1074 71.7454C61.4714 70.2579 61.1759 68.4868 59.3768 67.5602C58.812 67.2698 58.172 67.1257 57.5757 66.8935C55.9444 66.2586 55.5113 65.3704 56.0835 63.756C56.2466 63.2956 56.4696 62.8347 56.7611 62.4444C57.3178 61.7037 57.2197 60.9663 56.7799 60.2784C56.3084 59.541 55.7208 58.8763 55.2098 58.2136C53.2125 59.3393 51.4692 60.2897 49.7614 61.2956C48.6459 61.953 48.4673 62.5245 48.8145 63.7698C49.0032 64.4464 49.2584 65.1138 49.3631 65.8022C49.6479 67.6687 49.2906 68.2308 47.4754 68.7295C46.3821 69.0298 45.2559 69.2163 44.1162 69.4603C43.266 70.9623 43.2701 72.9623 41.2339 73.6653C48.0308 79.4788 60.3472 79.9484 66.5947 76.4894ZM32.2773 59.4021C32.5916 59.1918 32.8964 59.0377 33.1402 58.8175C34.7802 57.3267 36.4786 55.998 38.7619 55.4901C39.3737 55.3545 39.8746 54.5139 40.3192 53.92C40.9458 53.08 41.3702 52.0807 42.0626 51.3069C43.5521 49.6435 44.3889 47.8247 44.2136 45.5569C44.0759 43.7685 44.5595 43.1958 46.3613 42.7421C47.329 42.498 48.3397 42.4094 49.296 42.1329C50.9561 41.6534 51.6256 40.6429 51.4745 38.9742C51.3295 37.375 51.1475 35.7791 50.9823 34.1819C38.9284 35.8261 29.5507 48.6098 32.2773 59.4021ZM50.6969 90.2302C52.6652 90.9987 65.2039 90.8525 68.3361 90.1098C65.4208 88.4253 54.5825 88.4325 50.6969 90.2302ZM56.7275 87.3776C58.1015 87.3776 59.4735 87.3776 60.959 87.3776C60.9294 86.8003 60.9059 86.3604 60.8851 85.9339C56.9598 85.7811 56.6952 85.8724 56.7275 87.3776Z" fill="white"/>
</g>
<defs>
<linearGradient id="paint0_linear_64_1322" x1="12" y1="30" x2="96" y2="96" gradientUnits="userSpaceOnUse">
<stop stop-color="#63518C"/>
<stop offset="1" stop-color="#927DC2"/>
</linearGradient>
</defs>
</svg>
